<svg width="24" height="12" viewBox="0 0 24 12" fill="none" xmlns="http://www.w3.org/2000/svg">
<path d="M11.8556 11.8531C11.4608 11.8538 11.0782 11.7257 10.7742 11.4909L0.636271 3.61734C0.291215 3.35005 0.074222 2.96596 0.0330287 2.54956C-0.00816465 2.13317 0.129816 1.71858 0.416615 1.39699C0.703415 1.07541 1.11554 0.873179 1.56233 0.834788C2.00912 0.796397 2.45397 0.924991 2.79903 1.19228L11.8556 8.24699L20.9121 1.44424C21.085 1.31343 21.2838 1.21575 21.4973 1.1568C21.7108 1.09786 21.9346 1.07882 22.156 1.10077C22.3774 1.12272 22.592 1.18523 22.7874 1.28471C22.9827 1.38419 23.1551 1.51868 23.2945 1.68044C23.4493 1.84236 23.5665 2.03231 23.6388 2.2384C23.7111 2.44448 23.7369 2.66227 23.7147 2.8781C23.6925 3.09394 23.6227 3.30317 23.5097 3.4927C23.3967 3.68223 23.2429 3.84796 23.058 3.97952L12.9201 11.5854C12.6073 11.783 12.2325 11.8773 11.8556 11.8531Z" fill="#07838A"/>
</svg>
