<svg width="1920" height="1080" viewBox="0 0 1920 1080" fill="none" xmlns="http://www.w3.org/2000/svg">
<rect width="1920" height="1080" fill="#DEE8E9"/>
<path d="M1690.09 592.238C1691.18 585.265 1680 579.518 1671.61 578.917C1667.6 578.628 1663.43 579.169 1659.65 578.003C1651.47 575.479 1648.14 566.113 1640.13 563.131C1634.13 560.907 1627.23 562.891 1621.41 565.464C1615.59 568.037 1609.85 571.295 1603.36 571.667C1597.72 571.98 1591.58 570.129 1586.63 572.569C1582.95 574.385 1581.02 578.124 1577.62 580.336C1574.23 582.548 1569.97 582.945 1565.86 583.149C1561.74 583.353 1557.47 583.377 1553.71 584.892C1549.95 586.407 1546.89 589.906 1547.64 593.488L1690.09 592.238Z" fill="#EBEBEB"/>
<path d="M641.565 547.222H559.32V853.94H641.565V547.222Z" fill="#EBEBEB"/>
<path d="M599.66 568.73H574.658V611.206H599.66V568.73Z" fill="#455A64"/>
<path d="M587.854 611.206C587.663 611.206 587.513 601.696 587.513 589.962C587.513 578.228 587.663 568.73 587.854 568.73C588.045 568.73 588.195 578.228 588.195 589.962C588.195 601.696 588.045 611.206 587.854 611.206Z" fill="#E0E0E0"/>
<path d="M599.646 583.482C595.489 583.784 591.315 583.884 587.145 583.782C582.98 583.884 578.811 583.783 574.658 583.482C578.812 583.195 582.98 583.099 587.145 583.193C591.315 583.099 595.488 583.195 599.646 583.482V583.482Z" fill="#E0E0E0"/>
<path d="M599.783 598.655C595.592 598.941 591.388 599.038 587.186 598.944C582.98 599.038 578.771 598.942 574.576 598.655C578.77 598.354 582.98 598.253 587.186 598.355C591.388 598.253 595.593 598.354 599.783 598.655V598.655Z" fill="#E0E0E0"/>
<path d="M599.66 624.215H574.658V666.69H599.66V624.215Z" fill="#455A64"/>
<path d="M587.854 666.69C587.663 666.69 587.513 657.181 587.513 645.459C587.513 633.737 587.663 624.215 587.854 624.215C588.045 624.215 588.195 633.725 588.195 645.459C588.195 657.193 588.045 666.69 587.854 666.69Z" fill="#E0E0E0"/>
<path d="M599.646 638.978C595.488 639.264 591.315 639.36 587.145 639.266C582.98 639.36 578.812 639.264 574.658 638.978C578.811 638.676 582.98 638.576 587.145 638.677C591.315 638.575 595.489 638.676 599.646 638.978Z" fill="#E0E0E0"/>
<path d="M599.783 654.161C595.593 654.463 591.388 654.563 587.186 654.462C582.98 654.563 578.77 654.463 574.576 654.161C578.771 653.875 582.98 653.779 587.186 653.873C591.388 653.779 595.592 653.875 599.783 654.161V654.161Z" fill="#E0E0E0"/>
<path d="M599.66 679.698H574.658V722.174H599.66V679.698Z" fill="#455A64"/>
<path d="M587.854 722.186C587.663 722.186 587.513 712.676 587.513 700.942C587.513 689.208 587.663 679.698 587.854 679.698C588.045 679.698 588.195 689.208 588.195 700.942C588.195 712.676 588.045 722.186 587.854 722.186Z" fill="#E0E0E0"/>
<path d="M599.646 694.463C595.488 694.75 591.315 694.846 587.145 694.751C582.98 694.846 578.812 694.749 574.658 694.463C578.811 694.161 582.98 694.061 587.145 694.162C591.315 694.061 595.489 694.161 599.646 694.463V694.463Z" fill="#E0E0E0"/>
<path d="M599.783 709.658C595.592 709.944 591.388 710.041 587.186 709.947C582.98 710.041 578.771 709.945 574.576 709.658C578.77 709.357 582.98 709.256 587.186 709.358C591.388 709.256 595.593 709.357 599.783 709.658V709.658Z" fill="#E0E0E0"/>
<path d="M715.311 678.038C715.816 674.804 710.649 672.147 706.75 671.87C704.892 671.937 703.032 671.796 701.215 671.449C697.412 670.247 695.898 665.943 692.177 664.561C689.45 663.527 686.205 664.452 683.52 665.643C680.834 666.833 678.162 668.348 675.163 668.516C672.546 668.66 669.71 667.807 667.42 668.937C665.716 669.766 664.816 671.51 663.248 672.543C661.609 673.428 659.716 673.879 657.795 673.842C655.883 673.803 653.978 674.076 652.179 674.647C651.287 674.957 650.531 675.51 650.023 676.227C649.515 676.943 649.281 677.784 649.357 678.627L715.311 678.038Z" fill="#EBEBEB"/>
<path d="M599.66 735.195H574.658V777.671H599.66V735.195Z" fill="#455A64"/>
<path d="M587.854 777.671C587.663 777.671 587.513 768.161 587.513 756.439C587.513 744.717 587.663 735.195 587.854 735.195C588.045 735.195 588.195 744.705 588.195 756.439C588.195 768.173 588.045 777.671 587.854 777.671Z" fill="#E0E0E0"/>
<path d="M599.646 749.947C595.489 750.248 591.315 750.349 587.145 750.247C582.98 750.349 578.811 750.248 574.658 749.947C578.812 749.66 582.98 749.564 587.145 749.658C591.315 749.564 595.488 749.66 599.646 749.947V749.947Z" fill="#E0E0E0"/>
<path d="M599.783 765.142C595.593 765.435 591.388 765.531 587.186 765.43C582.98 765.531 578.771 765.435 574.576 765.142C578.77 764.84 582.98 764.74 587.186 764.841C591.388 764.74 595.593 764.84 599.783 765.142V765.142Z" fill="#E0E0E0"/>
<path d="M676.547 547.222H616.619V853.94H676.547V547.222Z" fill="#DCDDDD"/>
<path d="M660.23 568.73H635.228V611.206H660.23V568.73Z" fill="#455A64"/>
<path d="M648.425 611.206C648.247 611.206 648.097 601.696 648.097 589.962C648.097 578.228 648.247 568.73 648.425 568.73C648.602 568.73 648.766 578.228 648.766 589.962C648.766 601.696 648.616 611.206 648.425 611.206Z" fill="#E0E0E0"/>
<path d="M660.23 583.482C656.072 583.783 651.899 583.884 647.729 583.782C643.558 583.884 639.385 583.784 635.228 583.482C639.386 583.195 643.559 583.099 647.729 583.193C651.898 583.099 656.071 583.196 660.23 583.482V583.482Z" fill="#E0E0E0"/>
<path d="M660.353 598.655C656.162 598.942 651.958 599.038 647.756 598.944C643.555 599.038 639.35 598.942 635.16 598.655C639.349 598.353 643.554 598.253 647.756 598.355C651.958 598.254 656.163 598.354 660.353 598.655V598.655Z" fill="#E0E0E0"/>
<path d="M660.23 624.671H635.228V667.146H660.23V624.671Z" fill="#455A64"/>
<path d="M648.425 667.183C648.247 667.183 648.097 657.673 648.097 645.951C648.097 634.229 648.247 624.707 648.425 624.707C648.602 624.707 648.766 634.217 648.766 645.951C648.766 657.685 648.616 667.183 648.425 667.183Z" fill="#E0E0E0"/>
<path d="M660.23 639.424C656.072 639.726 651.899 639.826 647.729 639.725C643.558 639.826 639.385 639.726 635.228 639.424C639.386 639.138 643.559 639.041 647.729 639.136C651.898 639.042 656.071 639.138 660.23 639.424V639.424Z" fill="#E0E0E0"/>
<path d="M660.353 654.619C656.163 654.92 651.958 655.02 647.756 654.919C643.554 655.021 639.349 654.92 635.16 654.619C639.35 654.332 643.555 654.236 647.756 654.33C651.958 654.236 656.162 654.332 660.353 654.619Z" fill="#E0E0E0"/>
<path d="M660.23 680.612H635.228V723.088H660.23V680.612Z" fill="#455A64"/>
<path d="M648.425 723.1C648.247 723.1 648.097 713.578 648.097 701.856C648.097 690.134 648.247 680.612 648.425 680.612C648.602 680.612 648.766 690.122 648.766 701.856C648.766 713.59 648.616 723.1 648.425 723.1Z" fill="#E0E0E0"/>
<path d="M660.23 695.375C656.071 695.661 651.898 695.758 647.729 695.664C643.559 695.758 639.386 695.662 635.228 695.375C639.385 695.073 643.558 694.973 647.729 695.074C651.899 694.973 656.072 695.074 660.23 695.375V695.375Z" fill="#E0E0E0"/>
<path d="M660.353 710.56C656.163 710.861 651.958 710.962 647.756 710.86C643.554 710.962 639.349 710.862 635.16 710.56C639.35 710.273 643.555 710.177 647.756 710.271C651.958 710.177 656.162 710.274 660.353 710.56V710.56Z" fill="#E0E0E0"/>
<path d="M660.23 736.554H635.228V779.029H660.23V736.554Z" fill="#455A64"/>
<path d="M648.425 778.991C648.247 778.991 648.097 769.482 648.097 757.748C648.097 746.014 648.247 736.504 648.425 736.504C648.602 736.504 648.766 746.014 648.766 757.748C648.766 769.482 648.616 778.991 648.425 778.991Z" fill="#E0E0E0"/>
<path d="M660.23 751.341C656.071 751.627 651.898 751.723 647.729 751.629C643.559 751.724 639.386 751.627 635.228 751.341C639.385 751.039 643.558 750.939 647.729 751.04C651.899 750.939 656.072 751.039 660.23 751.341V751.341Z" fill="#E0E0E0"/>
<path d="M660.353 766.512C656.162 766.798 651.958 766.894 647.756 766.8C643.555 766.895 639.35 766.798 635.16 766.512C639.349 766.21 643.554 766.11 647.756 766.211C651.958 766.11 656.163 766.21 660.353 766.512V766.512Z" fill="#E0E0E0"/>
<path d="M599.66 790.676H574.658V833.151H599.66V790.676Z" fill="#455A64"/>
<path d="M587.854 833.163C587.663 833.163 587.513 823.641 587.513 811.92C587.513 800.198 587.663 790.676 587.854 790.676C588.045 790.676 588.195 800.186 588.195 811.92C588.195 823.654 588.045 833.163 587.854 833.163Z" fill="#E0E0E0"/>
<path d="M599.646 805.44C595.488 805.727 591.315 805.823 587.145 805.729C582.98 805.823 578.812 805.727 574.658 805.44C578.811 805.139 582.98 805.038 587.145 805.14C591.315 805.038 595.489 805.139 599.646 805.44Z" fill="#E0E0E0"/>
<path d="M599.783 820.626C595.593 820.928 591.388 821.028 587.186 820.927C582.98 821.028 578.77 820.928 574.576 820.626C578.771 820.34 582.98 820.243 587.186 820.338C591.388 820.244 595.592 820.34 599.783 820.626V820.626Z" fill="#E0E0E0"/>
<path d="M660.23 792.506H635.228V834.981H660.23V792.506Z" fill="#455A64"/>
<path d="M648.425 834.981C648.247 834.981 648.097 825.472 648.097 813.738C648.097 802.004 648.247 792.506 648.425 792.506C648.602 792.506 648.766 802.004 648.766 813.738C648.766 825.472 648.616 834.981 648.425 834.981Z" fill="#E0E0E0"/>
<path d="M660.23 807.257C656.072 807.559 651.899 807.659 647.729 807.558C643.558 807.659 639.385 807.559 635.228 807.257C639.386 806.971 643.559 806.874 647.729 806.969C651.898 806.875 656.071 806.971 660.23 807.257Z" fill="#E0E0E0"/>
<path d="M660.353 822.453C656.162 822.739 651.958 822.836 647.756 822.742C643.555 822.836 639.35 822.74 635.16 822.453C639.349 822.151 643.554 822.051 647.756 822.153C651.958 822.051 656.163 822.152 660.353 822.453V822.453Z" fill="#E0E0E0"/>
<path d="M1353.42 590.492H1282.78V853.941H1353.42V590.492Z" fill="#EBEBEB"/>
<path d="M1330.51 608.956H1309.04V645.444H1330.51V608.956Z" fill="#455A64"/>
<path d="M1320.38 645.444C1320.22 645.444 1320.09 637.269 1320.09 627.194C1320.09 617.119 1320.22 608.956 1320.38 608.956C1320.54 608.956 1320.67 617.119 1320.67 627.194C1320.67 637.269 1320.54 645.444 1320.38 645.444Z" fill="#E0E0E0"/>
<path d="M1330.51 621.629C1323.35 621.966 1316.19 621.966 1309.04 621.629C1316.19 621.293 1323.35 621.293 1330.51 621.629V621.629Z" fill="#E0E0E0"/>
<path d="M1330.62 634.721C1323.41 635.058 1316.19 635.058 1308.98 634.721C1316.19 634.385 1323.41 634.385 1330.62 634.721V634.721Z" fill="#E0E0E0"/>
<path d="M1330.51 656.614H1309.04V693.103H1330.51V656.614Z" fill="#455A64"/>
<path d="M1320.38 693.103C1320.22 693.103 1320.09 684.939 1320.09 674.864C1320.09 664.79 1320.22 656.614 1320.38 656.614C1320.54 656.614 1320.67 664.778 1320.67 674.864C1320.67 684.951 1320.54 693.103 1320.38 693.103Z" fill="#E0E0E0"/>
<path d="M1330.51 669.3C1323.35 669.637 1316.19 669.637 1309.04 669.3C1316.19 668.964 1323.35 668.964 1330.51 669.3V669.3Z" fill="#E0E0E0"/>
<path d="M1330.62 682.343C1323.41 682.68 1316.19 682.68 1308.98 682.343C1316.19 682.007 1323.41 682.007 1330.62 682.343V682.343Z" fill="#E0E0E0"/>
<path d="M1330.51 704.285H1309.04V740.773H1330.51V704.285Z" fill="#455A64"/>
<path d="M1320.38 740.773C1320.22 740.773 1320.09 732.598 1320.09 722.523C1320.09 712.448 1320.22 704.285 1320.38 704.285C1320.54 704.285 1320.67 712.448 1320.67 722.523C1320.67 732.598 1320.54 740.773 1320.38 740.773Z" fill="#E0E0E0"/>
<path d="M1330.51 716.957C1323.35 717.293 1316.19 717.293 1309.04 716.957C1316.19 716.62 1323.35 716.62 1330.51 716.957V716.957Z" fill="#E0E0E0"/>
<path d="M1330.62 730.001C1323.41 730.337 1316.19 730.337 1308.98 730.001C1316.19 729.664 1323.41 729.664 1330.62 730.001V730.001Z" fill="#E0E0E0"/>
<path d="M1330.51 751.941H1309.04V788.43H1330.51V751.941Z" fill="#455A64"/>
<path d="M1320.38 788.43C1320.22 788.43 1320.09 780.266 1320.09 770.192C1320.09 760.117 1320.22 751.941 1320.38 751.941C1320.54 751.941 1320.67 760.105 1320.67 770.192C1320.67 780.278 1320.54 788.43 1320.38 788.43Z" fill="#E0E0E0"/>
<path d="M1330.51 764.566C1323.35 764.903 1316.19 764.903 1309.04 764.566C1316.19 764.229 1323.35 764.229 1330.51 764.566V764.566Z" fill="#E0E0E0"/>
<path d="M1330.62 777.67C1323.41 778.006 1316.19 778.006 1308.98 777.67C1316.19 777.333 1323.41 777.333 1330.62 777.67Z" fill="#E0E0E0"/>
<path d="M1396.56 590.492H1345.08V853.941H1396.56V590.492Z" fill="#DCDDDD"/>
<path d="M1382.54 608.956H1361.07V645.444H1382.54V608.956Z" fill="#455A64"/>
<path d="M1372.41 645.444C1372.25 645.444 1372.13 637.269 1372.13 627.194C1372.13 617.119 1372.25 608.956 1372.41 608.956C1372.58 608.956 1372.7 617.119 1372.7 627.194C1372.7 637.269 1372.56 645.444 1372.41 645.444Z" fill="#E0E0E0"/>
<path d="M1382.54 621.629C1375.39 621.966 1368.22 621.966 1361.07 621.629C1368.22 621.293 1375.39 621.293 1382.54 621.629V621.629Z" fill="#E0E0E0"/>
<path d="M1382.65 634.721C1375.44 635.058 1368.21 635.058 1361 634.721C1368.21 634.385 1375.44 634.385 1382.65 634.721Z" fill="#E0E0E0"/>
<path d="M1382.54 657.013H1361.07V693.501H1382.54V657.013Z" fill="#455A64"/>
<path d="M1372.41 693.501C1372.25 693.501 1372.13 685.326 1372.13 675.251C1372.13 665.176 1372.25 657.013 1372.41 657.013C1372.58 657.013 1372.7 665.176 1372.7 675.251C1372.7 685.326 1372.56 693.501 1372.41 693.501Z" fill="#E0E0E0"/>
<path d="M1382.54 669.684C1375.39 670.021 1368.22 670.021 1361.07 669.684C1368.22 669.347 1375.39 669.347 1382.54 669.684V669.684Z" fill="#E0E0E0"/>
<path d="M1382.65 682.74C1375.44 683.077 1368.21 683.077 1361 682.74C1368.21 682.387 1375.44 682.387 1382.65 682.74V682.74Z" fill="#E0E0E0"/>
<path d="M1382.54 705.065H1361.07V741.554H1382.54V705.065Z" fill="#455A64"/>
<path d="M1372.41 741.554C1372.25 741.554 1372.13 733.378 1372.13 723.304C1372.13 713.229 1372.25 705.065 1372.41 705.065C1372.58 705.065 1372.7 713.229 1372.7 723.304C1372.7 733.378 1372.56 741.554 1372.41 741.554Z" fill="#E0E0E0"/>
<path d="M1382.54 717.738C1375.39 718.074 1368.22 718.074 1361.07 717.738C1368.22 717.401 1375.39 717.401 1382.54 717.738V717.738Z" fill="#E0E0E0"/>
<path d="M1382.65 730.782C1375.44 731.134 1368.21 731.134 1361 730.782C1368.21 730.445 1375.44 730.445 1382.65 730.782V730.782Z" fill="#E0E0E0"/>
<path d="M1382.54 753.119H1361.07V789.607H1382.54V753.119Z" fill="#455A64"/>
<path d="M1372.41 789.607C1372.25 789.607 1372.13 781.432 1372.13 771.357C1372.13 761.282 1372.25 753.119 1372.41 753.119C1372.58 753.119 1372.7 761.282 1372.7 771.357C1372.7 781.432 1372.56 789.607 1372.41 789.607Z" fill="#E0E0E0"/>
<path d="M1382.54 765.767C1375.39 766.104 1368.22 766.104 1361.07 765.767C1368.22 765.43 1375.39 765.43 1382.54 765.767V765.767Z" fill="#E0E0E0"/>
<path d="M1382.65 778.835C1375.44 779.171 1368.21 779.171 1361 778.835C1368.21 778.498 1375.44 778.498 1382.65 778.835V778.835Z" fill="#E0E0E0"/>
<path d="M1330.51 799.6H1309.04V836.088H1330.51V799.6Z" fill="#455A64"/>
<path d="M1320.38 836.088C1320.22 836.088 1320.09 827.925 1320.09 817.85C1320.09 807.775 1320.22 799.6 1320.38 799.6C1320.54 799.6 1320.67 807.775 1320.67 817.85C1320.67 827.925 1320.54 836.088 1320.38 836.088Z" fill="#E0E0E0"/>
<path d="M1330.51 812.281C1323.35 812.617 1316.19 812.617 1309.04 812.281C1316.19 811.944 1323.35 811.944 1330.51 812.281V812.281Z" fill="#E0E0E0"/>
<path d="M1330.62 825.326C1323.41 825.662 1316.19 825.662 1308.98 825.326C1316.19 824.989 1323.41 824.989 1330.62 825.326V825.326Z" fill="#E0E0E0"/>
<path d="M1382.54 801.161H1361.07V837.649H1382.54V801.161Z" fill="#455A64"/>
<path d="M1372.41 837.649C1372.25 837.649 1372.13 829.486 1372.13 819.411C1372.13 809.336 1372.25 801.161 1372.41 801.161C1372.58 801.161 1372.7 809.336 1372.7 819.411C1372.7 829.486 1372.56 837.649 1372.41 837.649Z" fill="#E0E0E0"/>
<path d="M1382.54 813.856C1375.39 814.193 1368.22 814.193 1361.07 813.856C1368.22 813.519 1375.39 813.519 1382.54 813.856V813.856Z" fill="#E0E0E0"/>
<path d="M1382.65 826.889C1375.44 827.226 1368.21 827.226 1361 826.889C1368.21 826.553 1375.44 826.553 1382.65 826.889Z" fill="#E0E0E0"/>
<path d="M418.542 471.824C419.496 465.752 409.776 460.751 402.469 460.234C398.979 459.982 395.366 460.45 392.067 459.441C384.91 457.24 382.061 449.101 375.081 446.504C369.86 444.557 363.861 446.288 358.804 448.536C353.746 450.784 348.743 453.598 343.099 453.922C338.177 454.199 332.847 452.588 328.553 454.704C325.349 456.279 323.659 459.513 320.714 461.46C317.769 463.408 314.048 463.733 310.476 463.865C306.904 463.997 303.169 464.069 299.911 465.38C296.653 466.69 293.953 469.744 294.621 472.858L418.542 471.824Z" fill="#F5F5F5"/>
<path d="M1522.5 342.559C1523.25 337.75 1515.68 333.867 1509.86 333.458C1507.14 333.254 1504.29 333.627 1501.68 332.833C1496.05 331.102 1493.82 324.694 1488.32 322.662C1484.23 321.135 1479.5 322.494 1475.54 324.261C1471.57 326.028 1467.63 328.241 1463.19 328.493C1459.33 328.709 1455.13 327.447 1451.75 329.106C1449.23 330.308 1447.92 332.905 1445.59 334.42C1443.25 335.935 1440.35 336.211 1437.54 336.344C1434.71 336.278 1431.9 336.686 1429.24 337.546C1426.68 338.58 1424.55 340.972 1425.08 343.413L1522.5 342.559Z" fill="#F5F5F5"/>
<path d="M1644.1 534.839C1644.1 534.839 1643.4 534.682 1642.13 534.454C1640.34 534.142 1638.49 534.101 1636.68 534.334C1634.02 534.661 1631.52 535.626 1629.44 537.123C1626.89 538.971 1625.1 541.505 1624.34 544.337V544.421L1624.03 545.479L1623.57 544.469C1622.32 541.803 1620.19 539.529 1617.46 537.941C1615.22 536.646 1612.64 535.877 1609.97 535.704C1607.5 535.588 1605.02 535.865 1602.65 536.522C1603.22 536.193 1603.85 535.953 1604.51 535.813C1606.27 535.323 1608.12 535.115 1609.96 535.199C1612.79 535.269 1615.55 536.008 1617.95 537.339C1620.85 538.97 1623.11 541.351 1624.41 544.156H1623.65V544.072C1624.47 541.106 1626.39 538.466 1629.1 536.57C1630.93 535.291 1633.08 534.407 1635.37 533.99C1637.66 533.572 1640.03 533.633 1642.28 534.166C1642.92 534.31 1643.53 534.537 1644.1 534.839V534.839Z" fill="#E0E0E0"/>
<path d="M1574.3 673.7H1611.53V626.259H1574.3V673.7Z" fill="#0F2726"/>
<path d="M1540.8 673.7H1578.03V626.259H1540.8V673.7Z" fill="#455A64"/>
<path d="M1549.71 664.119C1549.71 664.119 1549.71 663.963 1549.71 663.638C1549.71 663.314 1549.71 662.785 1549.71 662.172C1549.71 660.837 1549.71 658.962 1549.71 656.617C1549.71 651.808 1549.64 645.003 1549.58 637.093V636.864H1566.72C1566.72 636.864 1567.24 637.309 1566.99 637.105V644.655C1566.99 647.059 1566.99 649.464 1566.99 651.784C1566.99 656.341 1566.99 660.501 1566.99 664.107V664.3H1566.8L1554.38 664.203H1551.04H1550.18C1549.99 664.203 1549.9 664.203 1549.9 664.203H1550.22H1551.12H1554.52L1566.79 664.119L1566.58 664.288C1566.58 660.681 1566.58 656.521 1566.58 651.965C1566.58 649.68 1566.58 647.3 1566.58 644.835V637.129L1566.84 637.357H1549.71L1549.97 637.141C1549.97 644.991 1549.87 651.712 1549.84 656.521C1549.84 658.926 1549.84 660.777 1549.84 662.124C1549.84 662.761 1549.84 663.254 1549.84 663.638C1549.81 663.802 1549.77 663.962 1549.71 664.119V664.119Z" fill="#263238"/>
<path d="M1553.09 652.06C1553.09 652.06 1553.5 652.06 1553.7 652.445C1553.76 652.573 1553.79 652.712 1553.78 652.851C1553.76 652.99 1553.71 653.123 1553.62 653.239C1553.49 653.379 1553.31 653.48 1553.12 653.527C1552.92 653.575 1552.71 653.566 1552.52 653.503C1552.32 653.447 1552.15 653.338 1552.03 653.191C1551.91 653.044 1551.85 652.867 1551.85 652.686C1551.87 652.548 1551.92 652.416 1552.01 652.301C1552.1 652.186 1552.21 652.091 1552.35 652.024C1552.83 651.796 1553.14 652.024 1553.09 652.024C1553.03 652.024 1552.82 652.024 1552.56 652.253C1552.48 652.299 1552.42 652.363 1552.38 652.438C1552.35 652.513 1552.34 652.595 1552.35 652.675C1552.37 652.755 1552.4 652.831 1552.47 652.892C1552.53 652.953 1552.6 652.998 1552.69 653.022C1552.78 653.052 1552.87 653.06 1552.96 653.046C1553.05 653.032 1553.13 652.996 1553.2 652.942C1553.27 652.889 1553.32 652.819 1553.34 652.742C1553.37 652.665 1553.37 652.583 1553.35 652.505C1553.29 652.241 1553.06 652.133 1553.09 652.06Z" fill="#263238"/>
<path d="M1502.5 847.607H1656.86V664.132H1502.5V847.607Z" fill="#455A64"/>
<path d="M1595.03 847.595L1677.82 847.679V664.119H1595.03V847.595Z" fill="#0F2726"/>
<path d="M1513.81 788.575H1542.04V763.677H1513.81V788.575Z" fill="#EBEBEB"/>
<path d="M1526.84 791.017C1526.71 791.017 1526.59 784.585 1526.59 776.59C1526.59 768.595 1526.71 762.163 1526.84 762.163C1526.98 762.163 1527.12 768.595 1527.12 776.59C1527.12 784.585 1527 791.017 1526.84 791.017Z" fill="#455A64"/>
<path d="M1508.51 772.022C1508.51 771.889 1516.69 771.781 1526.85 771.781C1537 771.781 1545.18 771.889 1545.18 772.022C1545.18 772.154 1537 772.25 1526.85 772.25C1516.69 772.25 1508.51 772.154 1508.51 772.022Z" fill="#455A64"/>
<path d="M1554.08 788.575H1582.31V763.677H1554.08V788.575Z" fill="#EBEBEB"/>
<path d="M1567.11 791.017C1566.96 791.017 1566.84 784.585 1566.84 776.59C1566.84 768.595 1566.96 762.163 1567.11 762.163C1567.26 762.163 1567.39 768.595 1567.39 776.59C1567.39 784.585 1567.26 791.017 1567.11 791.017Z" fill="#455A64"/>
<path d="M1548.78 772.022C1548.78 771.889 1556.96 771.781 1567.12 771.781C1577.27 771.781 1585.45 771.889 1585.45 772.022C1585.45 772.154 1577.27 772.25 1567.12 772.25C1556.96 772.25 1548.78 772.154 1548.78 772.022Z" fill="#455A64"/>
<path d="M1513.81 749.237H1542.04V724.339H1513.81V749.237Z" fill="#EBEBEB"/>
<path d="M1526.84 751.739C1526.71 751.739 1526.59 745.295 1526.59 737.312C1526.59 729.329 1526.71 722.885 1526.84 722.885C1526.98 722.885 1527.12 729.317 1527.12 737.312C1527.12 745.307 1527 751.739 1526.84 751.739Z" fill="#455A64"/>
<path d="M1508.51 732.683C1508.51 732.551 1516.69 732.455 1526.85 732.455C1537 732.455 1545.18 732.551 1545.18 732.683C1545.18 732.816 1537 732.924 1526.85 732.924C1516.69 732.924 1508.51 732.816 1508.51 732.683Z" fill="#455A64"/>
<path d="M1554.08 749.237H1582.31V724.339H1554.08V749.237Z" fill="#EBEBEB"/>
<path d="M1567.11 751.739C1566.96 751.739 1566.84 745.295 1566.84 737.312C1566.84 729.329 1566.96 722.885 1567.11 722.885C1567.26 722.885 1567.39 729.317 1567.39 737.312C1567.39 745.307 1567.26 751.739 1567.11 751.739Z" fill="#455A64"/>
<path d="M1548.78 732.683C1548.78 732.551 1556.96 732.455 1567.12 732.455C1577.27 732.455 1585.45 732.551 1585.45 732.683C1585.45 732.816 1577.27 732.924 1567.12 732.924C1556.96 732.924 1548.78 732.816 1548.78 732.683Z" fill="#455A64"/>
<path d="M1513.81 709.805H1542.04V684.906H1513.81V709.805Z" fill="#EBEBEB"/>
<path d="M1526.84 712.305C1526.71 712.305 1526.59 705.873 1526.59 697.938C1526.59 690.003 1526.71 683.511 1526.84 683.511C1526.98 683.511 1527.12 689.943 1527.12 697.938C1527.12 705.933 1527 712.305 1526.84 712.305Z" fill="#455A64"/>
<path d="M1508.51 693.262C1508.51 693.13 1516.69 693.021 1526.85 693.021C1537 693.021 1545.18 693.13 1545.18 693.262C1545.18 693.394 1537 693.502 1526.85 693.502C1516.69 693.502 1508.51 693.394 1508.51 693.262Z" fill="#455A64"/>
<path d="M1554.08 709.805H1582.31V684.906H1554.08V709.805Z" fill="#EBEBEB"/>
<path d="M1567.11 712.305C1566.96 712.305 1566.84 705.873 1566.84 697.938C1566.84 690.003 1566.96 683.511 1567.11 683.511C1567.26 683.511 1567.39 689.943 1567.39 697.938C1567.39 705.933 1567.26 712.305 1567.11 712.305Z" fill="#455A64"/>
<path d="M1548.78 693.262C1548.78 693.13 1556.96 693.021 1567.12 693.021C1577.27 693.021 1585.45 693.13 1585.45 693.262C1585.45 693.394 1577.27 693.502 1567.12 693.502C1556.96 693.502 1548.78 693.394 1548.78 693.262Z" fill="#455A64"/>
<g opacity="0.7">
<path opacity="0.7" d="M1623.4 709.803H1651.63V684.904H1623.4V709.803Z" fill="#455A64"/>
</g>
<path d="M1637.5 712.305C1637.36 712.305 1637.24 705.873 1637.24 697.938C1637.24 690.003 1637.36 683.511 1637.5 683.511C1637.64 683.511 1637.77 689.943 1637.77 697.938C1637.77 705.933 1637.65 712.305 1637.5 712.305Z" fill="#263238"/>
<path d="M1618.09 693.262C1618.09 693.13 1626.27 693.021 1636.42 693.021C1646.58 693.021 1654.76 693.13 1654.76 693.262C1654.76 693.394 1646.58 693.502 1636.42 693.502C1626.27 693.502 1618.09 693.394 1618.09 693.262Z" fill="#263238"/>
<g opacity="0.7">
<path opacity="0.7" d="M1623.4 749.621H1651.63V724.722H1623.4V749.621Z" fill="#455A64"/>
</g>
<path d="M1637.5 752.122C1637.36 752.122 1637.24 745.69 1637.24 737.695C1637.24 729.7 1637.36 723.268 1637.5 723.268C1637.64 723.268 1637.77 729.7 1637.77 737.695C1637.77 745.69 1637.65 752.122 1637.5 752.122Z" fill="#263238"/>
<path d="M1618.09 733.067C1618.09 732.947 1626.27 732.839 1636.42 732.839C1646.58 732.839 1654.76 732.947 1654.76 733.067C1654.76 733.188 1646.58 733.308 1636.42 733.308C1626.27 733.308 1618.09 733.2 1618.09 733.067Z" fill="#263238"/>
<g opacity="0.7">
<path opacity="0.7" d="M1623.4 789.427H1651.63V764.528H1623.4V789.427Z" fill="#455A64"/>
</g>
<path d="M1637.5 791.929C1637.36 791.929 1637.24 785.497 1637.24 777.562C1637.24 769.627 1637.36 763.195 1637.5 763.195C1637.64 763.195 1637.77 769.627 1637.77 777.562C1637.77 785.497 1637.65 791.929 1637.5 791.929Z" fill="#263238"/>
<path d="M1618.09 772.887C1618.09 772.755 1626.27 772.646 1636.42 772.646C1646.58 772.646 1654.76 772.755 1654.76 772.887C1654.76 773.019 1646.58 773.127 1636.42 773.127C1626.27 773.127 1618.09 772.983 1618.09 772.887Z" fill="#263238"/>
<path d="M1534.86 847.522C1534.85 847.446 1534.85 847.37 1534.86 847.294C1534.86 847.125 1534.86 846.909 1534.86 846.633C1534.86 846.031 1534.86 845.178 1534.86 844.096C1534.86 841.848 1534.86 838.625 1534.79 834.622C1534.79 826.519 1534.79 815.218 1534.7 802.269V802.041H1564.14V802.269C1564.14 815.326 1564.08 826.735 1564.06 834.911C1564.06 838.962 1564.06 842.208 1563.98 844.529C1563.98 845.623 1563.98 846.488 1563.98 847.101V847.763C1563.99 847.838 1563.99 847.915 1563.98 847.991C1563.98 847.915 1563.98 847.839 1563.98 847.763V847.101C1563.98 846.488 1563.98 845.623 1563.98 844.529C1563.98 842.256 1563.98 839.01 1563.9 834.911C1563.9 826.735 1563.9 815.326 1563.8 802.269L1564.06 802.498H1534.86L1535.12 802.269C1535.12 815.218 1535.12 826.519 1535.03 834.622C1535.03 838.625 1535.03 841.836 1535.03 844.096C1535.03 845.178 1535.03 846.031 1535.03 846.633C1535.03 846.909 1535.03 847.125 1535.03 847.294C1535.03 847.462 1534.86 847.522 1534.86 847.522Z" fill="#263238"/>
<path d="M1550.29 825.82H1560.15V804.997H1550.29V825.82Z" fill="#E0E0E0"/>
<path d="M1560.18 825.881H1550.27V804.974H1560.18V825.881ZM1550.32 825.881H1560.12V805.01H1550.32V825.881Z" fill="#263238"/>
<path d="M1538.5 825.82H1548.36V804.997H1538.5V825.82Z" fill="#E0E0E0"/>
<path d="M1548.43 825.881H1538.47V804.974H1548.43V825.881ZM1538.57 825.881H1548.37V805.01H1538.57V825.881Z" fill="#263238"/>
<path d="M1538.3 827.961C1538.3 828.033 1537.82 828.033 1537.59 828.526C1537.52 828.656 1537.48 828.797 1537.48 828.94C1537.48 829.084 1537.52 829.225 1537.59 829.355C1537.68 829.5 1537.82 829.618 1537.98 829.693C1538.15 829.768 1538.34 829.797 1538.53 829.776C1538.71 829.732 1538.88 829.641 1539.01 829.515C1539.14 829.39 1539.22 829.234 1539.25 829.067C1539.28 828.919 1539.26 828.767 1539.2 828.628C1539.13 828.49 1539.02 828.371 1538.88 828.285C1538.61 828.111 1538.29 828 1537.96 827.961C1537.96 827.961 1538.42 827.648 1539.11 828.021C1539.31 828.138 1539.47 828.298 1539.58 828.485C1539.68 828.673 1539.73 828.882 1539.71 829.091C1539.7 829.357 1539.58 829.61 1539.38 829.81C1539.18 830.011 1538.91 830.147 1538.61 830.197C1538.31 830.246 1538.01 830.206 1537.74 830.084C1537.47 829.963 1537.25 829.765 1537.12 829.524C1537.03 829.331 1536.99 829.121 1537 828.912C1537.02 828.703 1537.09 828.5 1537.22 828.321C1537.29 828.2 1537.4 828.096 1537.53 828.016C1537.65 827.937 1537.8 827.885 1537.96 827.864C1538.19 827.888 1538.3 827.937 1538.3 827.961Z" fill="#263238"/>
<path d="M1507.95 802.306C1507.94 802.209 1507.94 802.113 1507.95 802.017C1507.95 801.765 1507.95 801.476 1507.95 801.139C1507.95 800.298 1507.95 799.18 1507.95 797.833V797.773H1524.42C1524.42 797.773 1524.32 797.677 1524.53 797.869V802.426H1524.42H1512.6H1509.16H1512.61H1524.36L1524.27 802.522V798.062C1524.48 798.242 1524.33 798.062 1524.38 798.158H1507.91L1507.98 798.098C1507.98 799.432 1507.98 800.502 1507.98 801.368C1507.98 801.716 1507.98 802.005 1507.98 802.257C1507.98 802.51 1507.95 802.306 1507.95 802.306Z" fill="#263238"/>
<path d="M1572.04 793.047C1572.03 792.947 1572.03 792.847 1572.04 792.747C1572.04 792.506 1572.04 792.218 1572.04 791.881C1572.04 791.027 1572.04 789.921 1572.04 788.563H1572.1H1588.57C1588.57 788.563 1588.46 788.467 1588.68 788.647V793.179H1588.57H1576.75H1573.32H1576.77H1588.52L1588.41 793.276V788.611L1588.52 788.707H1572.05V788.647C1572.05 789.993 1572.05 791.087 1572.05 791.929C1572.05 792.266 1572.05 792.566 1572.05 792.807C1572.05 793.047 1572.04 793.047 1572.04 793.047Z" fill="#263238"/>
<path d="M1582.31 756.632C1582.31 756.536 1582.31 756.44 1582.31 756.344C1582.31 756.091 1582.31 755.815 1582.31 755.478C1582.31 754.628 1582.31 753.522 1582.31 752.16V752.1H1582.38H1598.85L1598.96 752.196V756.728H1598.85H1587.03H1583.6H1587.05H1598.8L1598.7 756.812C1598.7 756.103 1598.7 755.37 1598.7 754.624V752.376L1598.81 752.472H1582.34C1582.34 753.819 1582.34 754.913 1582.34 755.754C1582.34 756.091 1582.34 756.38 1582.34 756.632C1582.34 756.885 1582.31 756.632 1582.31 756.632Z" fill="#263238"/>
<path d="M1523.09 717.451C1523.09 717.451 1523.09 717.355 1523.09 717.162C1523.09 716.97 1523.09 716.621 1523.09 716.285C1523.09 715.443 1523.09 714.337 1523.09 712.978V712.87H1523.18H1539.64L1539.75 712.966V717.523H1539.64H1527.83H1524.39H1527.85H1539.6L1539.49 717.619V712.99L1539.6 713.087H1523.14H1523.2C1523.2 714.421 1523.2 715.491 1523.2 716.357C1523.2 716.705 1523.2 716.994 1523.2 717.246C1523.2 717.499 1523.09 717.451 1523.09 717.451Z" fill="#263238"/>
<path d="M1569.96 675.6C1569.96 675.6 1569.96 675.503 1569.96 675.311C1569.96 675.119 1569.96 674.782 1569.96 674.445C1569.96 673.596 1569.96 672.49 1569.96 671.127V671.067H1586.44C1586.44 671.067 1586.33 670.971 1586.54 671.163V675.696H1586.44H1574.61H1571.19H1574.65H1586.4L1586.29 675.78V671.344C1586.5 671.536 1586.29 671.344 1586.4 671.44H1569.92H1569.99C1569.99 672.786 1569.99 673.88 1569.99 674.722C1569.99 675.059 1569.99 675.347 1569.99 675.6C1569.99 675.852 1569.96 675.6 1569.96 675.6Z" fill="#263238"/>
<path d="M1513.1 721.779C1513.1 721.779 1513.1 721.682 1513.1 721.49C1513.1 721.298 1513.1 720.961 1513.1 720.624C1513.1 719.775 1513.1 718.669 1513.1 717.306V717.246H1513.17H1529.65L1529.76 717.342V719.59C1529.76 720.336 1529.76 721.069 1529.76 721.779V721.875H1529.67H1517.85H1514.41H1517.87H1529.63L1529.52 721.959V717.523L1529.63 717.619H1513.14V717.559C1513.14 718.905 1513.14 719.963 1513.14 720.841C1513.14 721.177 1513.14 721.466 1513.14 721.718C1513.14 721.971 1513.1 721.779 1513.1 721.779Z" fill="#263238"/>
<path d="M1589.32 761.02C1589.32 761.02 1589.32 760.924 1589.32 760.732C1589.32 760.539 1589.32 760.191 1589.32 759.854C1589.32 759.001 1589.32 757.895 1589.32 756.548V756.488H1605.81C1605.81 756.488 1605.7 756.392 1605.9 756.584V761.129H1605.81H1593.97H1590.55H1594.01H1605.76L1605.65 761.225V756.764L1605.76 756.861H1589.28H1589.35C1589.35 758.195 1589.35 759.265 1589.35 760.131C1589.35 760.479 1589.35 760.768 1589.35 761.02C1589.35 761.273 1589.32 761.02 1589.32 761.02Z" fill="#263238"/>
<path d="M1582.31 680.096C1582.31 680 1582.31 679.904 1582.31 679.808C1582.31 679.555 1582.31 679.279 1582.31 678.942C1582.31 678.084 1582.31 676.978 1582.31 675.624V675.6H1582.38H1598.85C1598.85 675.6 1598.74 675.516 1598.96 675.696V680.228H1598.85H1587.03H1583.6H1587.05H1598.8L1598.7 680.313C1598.7 679.603 1598.7 678.87 1598.7 678.124V675.876L1598.81 675.972H1582.34C1582.34 677.319 1582.34 678.413 1582.34 679.255C1582.34 679.591 1582.34 679.88 1582.34 680.132C1582.34 680.385 1582.31 680.096 1582.31 680.096Z" fill="#263238"/>
<path d="M1502.61 806.779C1502.6 806.682 1502.6 806.586 1502.61 806.49C1502.61 806.25 1502.61 805.961 1502.61 805.624C1502.61 804.775 1502.61 803.669 1502.61 802.306V802.246H1519.07L1519.18 802.342V806.875H1519.07H1507.25H1503.82H1507.27H1519.02L1518.92 806.959V802.523C1519.13 802.715 1518.92 802.583 1519.02 802.619H1502.55L1502.62 802.559C1502.62 803.905 1502.62 804.999 1502.62 805.841C1502.62 806.177 1502.62 806.466 1502.62 806.718C1502.62 806.971 1502.61 806.779 1502.61 806.779Z" fill="#263238"/>
<path d="M243.456 848.027H433.645L433.645 578.158H243.456L243.456 848.027Z" fill="#455A64"/>
<path d="M357.479 848.015L459.478 848.147V578.146H357.479V848.015Z" fill="#0F2726"/>
<path d="M257.402 775.314H292.192V744.633H257.402V775.314Z" fill="#EBEBEB"/>
<path d="M273.475 778.394C273.284 778.394 273.147 770.459 273.147 760.684C273.147 750.91 273.284 742.987 273.475 742.987C273.666 742.987 273.803 750.91 273.803 760.684C273.803 770.459 273.653 778.394 273.475 778.394Z" fill="#455A64"/>
<path d="M250.873 754.948C250.873 754.78 260.988 754.647 273.475 754.647C285.963 754.647 296.065 754.78 296.065 754.948C296.065 755.116 285.949 755.237 273.475 755.237C261.002 755.237 250.873 755.08 250.873 754.948Z" fill="#455A64"/>
<path d="M307.011 775.314H341.801V744.633H307.011V775.314Z" fill="#EBEBEB"/>
<path d="M323.083 778.394C322.905 778.394 322.755 770.459 322.755 760.684C322.755 750.91 322.905 742.987 323.083 742.987C323.26 742.987 323.41 750.91 323.41 760.684C323.41 770.459 323.246 778.394 323.083 778.394Z" fill="#455A64"/>
<path d="M300.493 754.948C300.493 754.78 310.609 754.647 323.082 754.647C335.556 754.647 345.672 754.78 345.672 754.948C345.672 755.116 335.556 755.237 323.082 755.237C310.609 755.237 300.493 755.08 300.493 754.948Z" fill="#455A64"/>
<path d="M257.402 726.852H292.192V696.17H257.402V726.852Z" fill="#EBEBEB"/>
<path d="M273.475 729.929C273.284 729.929 273.147 721.994 273.147 712.22C273.147 702.445 273.284 694.522 273.475 694.522C273.666 694.522 273.803 702.445 273.803 712.22C273.803 721.994 273.653 729.929 273.475 729.929Z" fill="#455A64"/>
<path d="M250.873 706.461C250.873 706.292 260.988 706.16 273.475 706.16C285.963 706.16 296.065 706.292 296.065 706.461C296.065 706.629 285.949 706.749 273.475 706.749C261.002 706.749 250.873 706.617 250.873 706.461Z" fill="#455A64"/>
<path d="M307.011 726.852H341.801V696.17H307.011V726.852Z" fill="#EBEBEB"/>
<path d="M323.083 729.929C322.905 729.929 322.755 721.994 322.755 712.22C322.755 702.445 322.905 694.522 323.083 694.522C323.26 694.522 323.41 702.445 323.41 712.22C323.41 721.994 323.246 729.929 323.083 729.929Z" fill="#455A64"/>
<path d="M300.493 706.461C300.493 706.292 310.609 706.16 323.082 706.16C335.556 706.16 345.672 706.292 345.672 706.461C345.672 706.629 335.556 706.749 323.082 706.749C310.609 706.749 300.493 706.617 300.493 706.461Z" fill="#455A64"/>
<path d="M257.402 678.269H292.192V647.587H257.402V678.269Z" fill="#EBEBEB"/>
<path d="M273.475 681.348C273.284 681.348 273.147 673.425 273.147 663.651C273.147 653.876 273.284 645.941 273.475 645.941C273.666 645.941 273.803 653.864 273.803 663.651C273.803 673.437 273.653 681.348 273.475 681.348Z" fill="#455A64"/>
<path d="M250.873 657.88C250.873 657.724 260.988 657.592 273.475 657.592C285.963 657.592 296.065 657.724 296.065 657.88C296.065 658.037 285.949 658.169 273.475 658.169C261.002 658.169 250.873 658.049 250.873 657.88Z" fill="#455A64"/>
<path d="M307.011 678.269H341.801V647.587H307.011V678.269Z" fill="#EBEBEB"/>
<path d="M323.083 681.348C322.905 681.348 322.755 673.425 322.755 663.651C322.755 653.876 322.905 645.941 323.083 645.941C323.26 645.941 323.41 653.864 323.41 663.651C323.41 673.437 323.246 681.348 323.083 681.348Z" fill="#455A64"/>
<path d="M300.493 657.88C300.493 657.724 310.609 657.592 323.082 657.592C335.556 657.592 345.672 657.724 345.672 657.88C345.672 658.037 335.556 658.169 323.082 658.169C310.609 658.169 300.493 658.049 300.493 657.88Z" fill="#455A64"/>
<g opacity="0.7">
<path opacity="0.7" d="M392.422 678.271H427.212V647.589H392.422V678.271Z" fill="#455A64"/>
</g>
<path d="M409.815 681.348C409.637 681.348 409.487 673.425 409.487 663.651C409.487 653.876 409.637 645.941 409.815 645.941C409.992 645.941 410.143 653.864 410.143 663.651C410.143 673.437 409.992 681.348 409.815 681.348Z" fill="#263238"/>
<path d="M385.957 657.88C385.957 657.724 396.072 657.592 408.546 657.592C421.02 657.592 431.149 657.724 431.149 657.88C431.149 658.037 421.033 658.169 408.546 658.169C396.058 658.169 385.957 658.049 385.957 657.88Z" fill="#263238"/>
<path d="M257.402 629.001H292.192V598.32H257.402V629.001Z" fill="#EBEBEB"/>
<path d="M273.475 632.066C273.284 632.066 273.147 624.144 273.147 614.369C273.147 604.595 273.284 596.66 273.475 596.66C273.666 596.66 273.803 604.583 273.803 614.369C273.803 624.156 273.653 632.066 273.475 632.066Z" fill="#455A64"/>
<path d="M250.873 608.599C250.873 608.443 260.988 608.311 273.475 608.311C285.963 608.311 296.065 608.443 296.065 608.599C296.065 608.755 285.949 608.888 273.475 608.888C261.002 608.888 250.873 608.755 250.873 608.599Z" fill="#455A64"/>
<path d="M307.011 629.001H341.801V598.32H307.011V629.001Z" fill="#EBEBEB"/>
<path d="M323.083 632.066C322.905 632.066 322.755 624.144 322.755 614.369C322.755 604.595 322.905 596.66 323.083 596.66C323.26 596.66 323.41 604.583 323.41 614.369C323.41 624.156 323.246 632.066 323.083 632.066Z" fill="#455A64"/>
<path d="M300.493 608.599C300.493 608.443 310.609 608.311 323.082 608.311C335.556 608.311 345.672 608.443 345.672 608.599C345.672 608.755 335.556 608.888 323.082 608.888C310.609 608.888 300.493 608.755 300.493 608.599Z" fill="#455A64"/>
<g opacity="0.7">
<path opacity="0.7" d="M392.422 628.999H427.212V598.318H392.422V628.999Z" fill="#455A64"/>
</g>
<path d="M409.815 632.066C409.637 632.066 409.487 624.144 409.487 614.369C409.487 604.595 409.637 596.66 409.815 596.66C409.992 596.66 410.143 604.583 410.143 614.369C410.143 624.156 409.992 632.066 409.815 632.066Z" fill="#263238"/>
<path d="M385.957 608.599C385.957 608.443 396.072 608.311 408.546 608.311C421.02 608.311 431.149 608.443 431.149 608.599C431.149 608.755 421.033 608.888 408.546 608.888C396.058 608.888 385.957 608.755 385.957 608.599Z" fill="#263238"/>
<g opacity="0.7">
<path opacity="0.7" d="M392.422 727.322H427.212V696.641H392.422V727.322Z" fill="#455A64"/>
</g>
<path d="M409.815 730.409C409.637 730.409 409.487 722.475 409.487 712.7C409.487 702.926 409.637 694.991 409.815 694.991C409.992 694.991 410.143 702.926 410.143 712.7C410.143 722.475 409.992 730.409 409.815 730.409Z" fill="#263238"/>
<path d="M385.957 706.931C385.957 706.775 396.072 706.643 408.546 706.643C421.02 706.643 431.149 706.775 431.149 706.931C431.149 707.087 421.033 707.232 408.546 707.232C396.058 707.232 385.957 707.099 385.957 706.931Z" fill="#263238"/>
<g opacity="0.7">
<path opacity="0.7" d="M392.422 776.385H427.212V745.703H392.422V776.385Z" fill="#455A64"/>
</g>
<path d="M409.815 779.463C409.637 779.463 409.487 771.528 409.487 761.754C409.487 751.979 409.637 744.057 409.815 744.057C409.992 744.057 410.143 751.979 410.143 761.754C410.143 771.528 409.992 779.463 409.815 779.463Z" fill="#263238"/>
<path d="M385.957 755.995C385.957 755.827 396.072 755.694 408.546 755.694C421.02 755.694 431.149 755.827 431.149 755.995C431.149 756.163 421.033 756.283 408.546 756.283C396.058 756.283 385.957 756.151 385.957 755.995Z" fill="#263238"/>
<path d="M283.345 847.99C283.325 847.899 283.325 847.805 283.345 847.714V846.908C283.345 846.151 283.345 845.105 283.345 843.77C283.345 841.005 283.345 837.038 283.25 832.096C283.25 822.118 283.25 808.196 283.141 792.242V791.953H319.308V792.218C319.308 808.292 319.226 822.346 319.199 832.421C319.199 837.422 319.199 841.426 319.103 844.215C319.103 845.574 319.103 846.619 319.103 847.389C319.103 847.726 319.103 847.99 319.103 848.206C319.103 848.423 319.103 848.483 319.103 848.483C319.087 848.391 319.087 848.298 319.103 848.206V847.389C319.103 846.632 319.103 845.574 319.103 844.215C319.103 841.426 319.103 837.422 319.008 832.421C319.008 822.346 319.008 808.292 318.899 792.218L319.226 792.494H283.345L283.713 792.218C283.713 808.171 283.631 822.094 283.604 832.072C283.604 837.013 283.522 840.981 283.509 843.746C283.509 845.081 283.509 846.151 283.509 846.884V847.689C283.359 847.894 283.345 847.99 283.345 847.99Z" fill="#263238"/>
<path d="M302.362 821.192H314.509V795.548H302.362V821.192Z" fill="#E0E0E0"/>
<path d="M314.536 821.229H302.267V795.524H314.536V821.229ZM302.389 821.168H314.468V795.573H302.389V821.168Z" fill="#263238"/>
<path d="M287.828 821.192H299.975V795.548H287.828V821.192Z" fill="#E0E0E0"/>
<path d="M300.071 821.229H287.802V795.524H300.071V821.229ZM287.802 821.168H299.894V795.573H287.802V821.168Z" fill="#263238"/>
<path d="M287.571 823.85C287.571 823.946 286.985 823.934 286.698 824.547C286.613 824.707 286.569 824.881 286.569 825.058C286.569 825.234 286.613 825.409 286.698 825.569C286.808 825.749 286.978 825.896 287.185 825.988C287.393 826.081 287.627 826.115 287.857 826.086C288.082 826.032 288.285 825.921 288.44 825.768C288.595 825.614 288.695 825.424 288.73 825.22C288.76 825.048 288.739 824.871 288.667 824.709C288.595 824.546 288.476 824.403 288.321 824.294C287.748 823.862 287.189 823.97 287.175 823.886C287.162 823.801 287.748 823.513 288.539 823.958C288.786 824.099 288.985 824.296 289.115 824.529C289.244 824.762 289.3 825.022 289.275 825.28C289.237 825.605 289.085 825.912 288.841 826.157C288.597 826.403 288.272 826.575 287.912 826.651C287.567 826.694 287.215 826.643 286.903 826.506C286.592 826.368 286.335 826.151 286.167 825.881C286.05 825.647 286.001 825.39 286.022 825.135C286.043 824.879 286.135 824.632 286.289 824.415C286.379 824.265 286.507 824.136 286.663 824.038C286.819 823.94 286.999 823.875 287.189 823.85C287.448 823.753 287.584 823.813 287.571 823.85Z" fill="#263238"/>
<path d="M508.065 848.027H596.69V630.829H508.065V848.027Z" fill="#FF6B6B"/>
<g opacity="0.4">
<path opacity="0.4" d="M552.383 848.026H596.703V630.828H552.383V848.026Z" fill="black"/>
</g>
<path d="M460.474 848.027H534.349V630.829H460.474V848.027Z" fill="#FF6B6B"/>
<path d="M540.579 648.368H515.7V699.392H540.579V648.368Z" fill="#FAFAFA"/>
<path d="M515.697 699.391C515.691 699.315 515.691 699.239 515.697 699.163C515.697 698.983 515.697 698.742 515.697 698.442C515.697 697.78 515.697 696.843 515.697 695.64C515.697 693.152 515.697 689.629 515.615 685.072C515.615 675.983 515.615 663.204 515.506 648.368V648.151H540.631L540.904 648.392V650.231C540.904 650.844 540.904 651.434 540.904 652.071V662.891C540.904 667.592 540.904 672.112 540.904 676.428C540.904 685.06 540.904 692.839 540.904 699.403V699.572H540.713L522.445 699.475H517.524H516.256H517.619H522.595L540.74 699.379L540.549 699.548C540.549 692.983 540.549 685.205 540.549 676.573C540.549 672.256 540.549 667.736 540.549 663.035V648.608L540.808 648.837H515.697L515.956 648.608C515.956 663.384 515.861 676.104 515.834 685.157C515.834 689.677 515.834 693.284 515.765 695.773C515.765 696.975 515.765 697.961 515.765 698.634C515.765 698.934 515.765 699.187 515.765 699.367C515.743 699.376 515.72 699.384 515.697 699.391V699.391Z" fill="#263238"/>
<path d="M515.303 658.769C515.303 658.637 521.042 658.541 528.117 658.541C535.193 658.541 540.918 658.637 540.918 658.769C540.918 658.902 535.193 659.01 528.117 659.01C521.042 659.01 515.303 658.938 515.303 658.769Z" fill="#263238"/>
<path d="M527.873 699.007C527.723 699.007 527.614 690.038 527.614 678.978C527.614 667.917 527.723 658.948 527.873 658.948C528.023 658.948 528.146 667.917 528.146 678.978C528.146 690.038 528.023 699.007 527.873 699.007Z" fill="#263238"/>
<path d="M495.698 648.368H470.819V699.392H495.698V648.368Z" fill="#FAFAFA"/>
<path d="M470.82 699.391C470.82 699.391 470.82 699.319 470.82 699.163C470.82 699.007 470.82 698.742 470.82 698.441C470.82 697.78 470.82 696.843 470.82 695.64C470.82 693.152 470.82 689.629 470.752 685.072C470.752 675.983 470.67 663.204 470.629 648.368V648.151H495.7C496.245 648.62 495.85 648.284 495.972 648.392V655.726C495.972 658.13 495.972 660.535 495.972 662.879C495.972 667.58 495.972 672.1 495.972 676.416C495.972 685.048 495.972 692.827 495.972 699.391V699.56H495.782L477.527 699.463H472.592H471.325H472.688H477.65L495.795 699.367L495.604 699.536C495.604 692.971 495.604 685.193 495.604 676.561C495.604 672.244 495.604 667.724 495.604 663.023V648.596C495.713 648.704 495.345 648.356 495.863 648.825H470.82L471.079 648.596C471.079 663.372 470.984 676.092 470.957 685.145C470.957 689.665 470.957 693.272 470.957 695.76C470.957 696.963 470.957 697.949 470.957 698.622C470.957 698.922 470.957 699.175 470.957 699.355C470.912 699.369 470.866 699.381 470.82 699.391V699.391Z" fill="#263238"/>
<path d="M470.479 658.769C470.479 658.637 476.218 658.541 483.294 658.541C490.369 658.541 496.108 658.637 496.108 658.769C496.108 658.902 490.369 659.01 483.294 659.01C476.218 659.01 470.479 658.938 470.479 658.769Z" fill="#263238"/>
<path d="M482.993 699.007C482.857 699.007 482.734 690.038 482.734 678.978C482.734 667.917 482.857 658.948 482.993 658.948C483.13 658.948 483.266 667.917 483.266 678.978C483.266 690.038 483.143 699.007 482.993 699.007Z" fill="#263238"/>
<path d="M540.579 712.305H515.7V763.328H540.579V712.305Z" fill="#FAFAFA"/>
<path d="M515.697 763.364C515.69 763.288 515.69 763.212 515.697 763.136C515.697 762.955 515.697 762.715 515.697 762.414C515.697 761.753 515.697 760.815 515.697 759.613C515.697 757.124 515.697 753.542 515.615 749.045C515.615 739.956 515.615 727.188 515.506 712.352V712.124H540.631C541.163 712.593 540.781 712.268 540.904 712.376V714.204C540.904 714.817 540.904 715.406 540.904 716.055V726.876C540.904 731.564 540.904 736.097 540.904 740.413C540.904 749.033 540.904 756.812 540.904 763.376V763.544H540.713L522.282 763.364H517.36H516.093H515.67H516.133H517.497H522.473L540.618 763.268L540.427 763.436C540.427 756.872 540.427 749.093 540.427 740.473C540.427 736.157 540.427 731.625 540.427 726.936V712.509C540.536 712.605 540.154 712.256 540.686 712.725H515.697L515.956 712.509C515.956 727.284 515.861 740.004 515.834 749.057C515.834 753.578 515.834 757.172 515.765 759.673C515.765 760.899 515.765 761.849 515.765 762.522C515.765 762.835 515.765 763.075 515.765 763.268C515.745 763.301 515.722 763.333 515.697 763.364V763.364Z" fill="#263238"/>
<path d="M515.303 722.74C515.303 722.608 521.042 722.5 528.117 722.5C535.193 722.5 540.918 722.608 540.918 722.74C540.918 722.873 535.193 722.969 528.117 722.969C521.042 722.969 515.303 722.861 515.303 722.74Z" fill="#263238"/>
<path d="M527.873 762.932C527.723 762.932 527.614 753.963 527.614 742.914C527.614 731.866 527.723 722.885 527.873 722.885C528.023 722.885 528.146 731.842 528.146 742.914C528.146 753.987 528.023 762.932 527.873 762.932Z" fill="#263238"/>
<path d="M495.698 712.305H470.819V763.328H495.698V712.305Z" fill="#FAFAFA"/>
<path d="M470.82 763.364C470.82 763.364 470.82 763.292 470.82 763.135C470.82 762.979 470.82 762.715 470.82 762.414C470.82 761.753 470.82 760.815 470.82 759.613C470.82 757.124 470.82 753.542 470.752 749.045C470.752 739.956 470.67 727.188 470.629 712.352V712.124H495.7C496.245 712.593 495.85 712.268 495.972 712.376V719.71C495.972 722.115 495.972 724.519 495.972 726.864C495.972 731.552 495.972 736.085 495.972 740.401C495.972 749.021 495.972 756.8 495.972 763.364V763.532H495.782L477.446 763.364H472.511H471.243H470.82H471.284H472.647H477.609L495.754 763.268L495.563 763.436C495.563 756.872 495.563 749.093 495.563 740.473C495.563 736.157 495.563 731.625 495.563 726.936V712.509C495.672 712.605 495.304 712.256 495.822 712.725H470.82L471.079 712.509C471.079 727.284 470.984 740.004 470.957 749.057C470.957 753.578 470.957 757.172 470.957 759.673C470.957 760.875 470.957 761.849 470.957 762.522C470.957 762.835 470.957 763.075 470.957 763.268C470.914 763.303 470.868 763.335 470.82 763.364V763.364Z" fill="#263238"/>
<path d="M470.479 722.74C470.479 722.608 476.218 722.5 483.294 722.5C490.369 722.5 496.108 722.608 496.108 722.74C496.108 722.873 490.369 722.969 483.294 722.969C476.218 722.969 470.479 722.861 470.479 722.74Z" fill="#263238"/>
<path d="M482.993 762.932C482.857 762.932 482.734 753.963 482.734 742.914C482.734 731.866 482.857 722.885 482.993 722.885C483.13 722.885 483.266 731.842 483.266 742.914C483.266 753.987 483.143 762.932 482.993 762.932Z" fill="#263238"/>
<path d="M540.579 775.747H515.7V826.771H540.579V775.747Z" fill="#FAFAFA"/>
<path d="M515.697 826.771C515.691 826.691 515.691 826.611 515.697 826.531C515.697 826.351 515.697 826.122 515.697 825.822C515.697 825.16 515.697 824.223 515.697 823.008C515.697 820.532 515.697 816.997 515.615 812.453C515.615 803.352 515.615 790.584 515.506 775.748V775.52H540.631C541.163 775.988 540.781 775.664 540.904 775.772V777.599C540.904 778.225 540.904 778.802 540.904 779.451V790.271C540.904 794.96 540.904 799.492 540.904 803.809C540.904 812.429 540.904 820.219 540.904 826.784V826.952H540.713L522.282 826.844H517.36H516.093H515.67H516.133H517.497H522.473L540.618 826.759L540.427 826.928C540.427 820.363 540.427 812.573 540.427 803.953C540.427 799.637 540.427 795.104 540.427 790.415V775.772C540.536 775.868 540.154 775.52 540.686 775.988H515.697L515.956 775.772C515.956 790.548 515.861 803.267 515.834 812.32C515.834 816.841 515.834 820.436 515.765 822.936C515.765 824.163 515.765 825.112 515.765 825.786C515.765 826.098 515.765 826.339 515.765 826.531C515.754 826.613 515.731 826.694 515.697 826.771V826.771Z" fill="#263238"/>
<path d="M515.303 786.206C515.303 786.074 521.042 785.966 528.117 785.966C535.193 785.966 540.918 786.074 540.918 786.206C540.918 786.339 535.193 786.435 528.117 786.435C521.042 786.435 515.303 786.315 515.303 786.206Z" fill="#263238"/>
<path d="M527.873 826.374C527.723 826.374 527.614 817.417 527.614 806.357C527.614 795.296 527.723 786.327 527.873 786.327C528.023 786.327 528.146 795.296 528.146 806.357C528.146 817.417 528.023 826.374 527.873 826.374Z" fill="#263238"/>
<path d="M588.034 649.355H563.154V700.379H588.034V649.355Z" fill="#FAFAFA"/>
<path d="M563.18 700.378C563.174 700.302 563.174 700.226 563.18 700.15C563.18 699.957 563.18 699.729 563.18 699.429C563.18 698.767 563.18 697.83 563.18 696.627C563.18 694.139 563.18 690.556 563.112 686.059C563.112 676.97 563.044 664.191 562.989 649.355V649.15H588.128C588.659 649.607 588.264 649.283 588.387 649.391V663.878C588.387 668.579 588.387 673.099 588.387 677.415C588.387 686.047 588.387 693.826 588.387 700.39V700.559H588.196L569.928 700.462H565.007H563.739H563.18C563.334 700.45 563.489 700.45 563.644 700.462H564.939H569.915L588.06 700.366L587.869 700.535C587.869 693.97 587.869 686.192 587.869 677.56C587.869 673.243 587.869 668.723 587.869 664.022C587.869 661.618 587.869 659.297 587.869 656.809V649.475C587.991 649.583 587.61 649.235 588.141 649.703H563.18L563.439 649.475C563.439 664.251 563.344 676.97 563.316 686.023C563.316 690.544 563.316 694.151 563.248 696.639C563.248 697.842 563.248 698.827 563.248 699.489C563.248 699.801 563.248 700.054 563.248 700.234C563.227 700.283 563.205 700.331 563.18 700.378V700.378Z" fill="#263238"/>
<path d="M562.757 659.788C562.757 659.656 568.497 659.56 575.558 659.56C582.62 659.56 588.373 659.656 588.373 659.788C588.373 659.92 582.634 660.028 575.558 660.028C568.483 660.028 562.757 659.968 562.757 659.788Z" fill="#263238"/>
<path d="M575.327 699.994C575.177 699.994 575.054 691.025 575.054 679.964C575.054 668.903 575.177 659.935 575.327 659.935C575.477 659.935 575.586 668.903 575.586 679.964C575.586 691.025 575.45 699.994 575.327 699.994Z" fill="#263238"/>
<path d="M588.034 713.29H563.154V764.314H588.034V713.29Z" fill="#FAFAFA"/>
<path d="M563.18 764.302C563.173 764.226 563.173 764.15 563.18 764.074C563.18 763.894 563.18 763.653 563.18 763.353C563.18 762.691 563.18 761.754 563.18 760.551C563.18 758.063 563.18 754.54 563.112 749.984C563.112 740.895 563.044 728.127 562.989 713.291V713.062H588.128C588.659 713.531 588.264 713.207 588.387 713.303V727.814C588.387 732.503 588.387 737.023 588.387 741.339C588.387 749.972 588.387 757.75 588.387 764.314V764.483H588.196L569.928 764.399H565.007H563.739C563.599 764.41 563.457 764.41 563.316 764.399H563.78H565.075H570.051L588.196 764.302L588.005 764.471C588.005 757.906 588.005 750.128 588.005 741.496C588.005 737.18 588.005 732.659 588.005 727.97C588.005 725.626 588.005 723.234 588.005 720.817V713.459C588.128 713.567 587.746 713.219 588.278 713.688H563.18L563.439 713.471C563.439 728.247 563.344 740.967 563.316 750.02C563.316 754.528 563.316 758.135 563.248 760.636C563.248 761.862 563.248 762.812 563.248 763.485C563.248 763.797 563.248 764.038 563.248 764.23C563.226 764.255 563.203 764.279 563.18 764.302Z" fill="#263238"/>
<path d="M562.757 723.691C562.757 723.558 568.497 723.45 575.558 723.45C582.62 723.45 588.373 723.558 588.373 723.691C588.373 723.823 582.634 723.919 575.558 723.919C568.483 723.919 562.757 723.847 562.757 723.691Z" fill="#263238"/>
<path d="M575.327 763.916C575.177 763.916 575.054 754.947 575.054 743.887C575.054 732.826 575.177 723.869 575.327 723.869C575.477 723.869 575.586 732.826 575.586 743.887C575.586 754.947 575.45 763.916 575.327 763.916Z" fill="#263238"/>
<path d="M588.034 776.732H563.154V827.756H588.034V776.732Z" fill="#FAFAFA"/>
<path d="M563.18 827.757C563.174 827.677 563.174 827.596 563.18 827.516C563.18 827.336 563.18 827.096 563.18 826.807C563.18 826.15 563.18 825.212 563.18 823.994C563.18 821.517 563.18 817.922 563.112 813.438C563.112 804.337 563.044 791.569 562.989 776.733V776.505H588.128C588.659 776.974 588.264 776.649 588.387 776.757V791.244C588.387 795.933 588.387 800.466 588.387 804.782C588.387 813.402 588.387 821.193 588.387 827.757V827.925H588.196L569.928 827.829H565.007H563.739H563.18H563.644H564.939H569.915L588.06 827.745L587.869 827.913C587.869 821.349 587.869 813.558 587.869 804.938C587.869 800.622 587.869 796.09 587.869 791.401C587.869 789.056 587.869 786.664 587.869 784.247V776.914C587.991 777.01 587.61 776.661 588.141 777.13H563.18L563.439 776.914C563.439 791.689 563.344 804.409 563.316 813.462C563.316 817.983 563.316 821.577 563.248 824.078C563.248 825.304 563.248 826.254 563.248 826.927C563.248 827.24 563.248 827.48 563.248 827.673C563.248 827.865 563.18 827.745 563.18 827.757Z" fill="#263238"/>
<path d="M562.757 787.169C562.757 787.037 568.497 786.929 575.558 786.929C582.62 786.929 588.373 787.037 588.373 787.169C588.373 787.301 582.634 787.398 575.558 787.398C568.483 787.398 562.757 787.301 562.757 787.169Z" fill="#263238"/>
<path d="M575.327 827.36C575.177 827.36 575.054 818.404 575.054 807.343C575.054 796.282 575.177 787.313 575.327 787.313C575.477 787.313 575.586 796.282 575.586 807.343C575.586 818.404 575.45 827.36 575.327 827.36Z" fill="#263238"/>
<path d="M495.698 775.747H470.819V826.771H495.698V775.747Z" fill="#FAFAFA"/>
<path d="M470.82 826.771C470.82 826.771 470.82 826.687 470.82 826.531C470.82 826.375 470.82 826.122 470.82 825.822C470.82 825.16 470.82 824.223 470.82 823.008C470.82 820.532 470.82 816.997 470.752 812.453C470.752 803.352 470.67 790.584 470.629 775.748V775.52H495.7C496.245 775.988 495.85 775.664 495.972 775.772V783.106C495.972 785.51 495.972 787.915 495.972 790.259C495.972 794.948 495.972 799.48 495.972 803.796C495.972 812.417 495.972 820.207 495.972 826.771V826.94H495.782L477.527 826.844H472.592H471.325H470.902H471.366H472.729H477.691L495.836 826.759L495.645 826.928C495.645 820.363 495.645 812.573 495.645 803.953C495.645 799.637 495.645 795.104 495.645 790.415V775.772C495.754 775.868 495.386 775.52 495.904 775.988H470.82L471.079 775.772C471.079 790.548 470.984 803.267 470.957 812.32C470.957 816.841 470.957 820.436 470.957 822.936C470.957 824.139 470.957 825.112 470.957 825.786C470.957 826.098 470.957 826.339 470.957 826.531C470.92 826.615 470.875 826.696 470.82 826.771V826.771Z" fill="#263238"/>
<path d="M470.479 786.206C470.479 786.074 476.218 785.966 483.294 785.966C490.369 785.966 496.108 786.074 496.108 786.206C496.108 786.339 490.369 786.435 483.294 786.435C476.218 786.435 470.479 786.315 470.479 786.206Z" fill="#263238"/>
<path d="M482.993 826.374C482.857 826.374 482.734 817.417 482.734 806.357C482.734 795.296 482.857 786.327 482.993 786.327C483.13 786.327 483.266 795.296 483.266 806.357C483.266 817.417 483.143 826.374 482.993 826.374Z" fill="#263238"/>
<path d="M1465.6 523.383H1378.56V848.026H1465.6V523.383Z" fill="#FF6B6B"/>
<path d="M1421.15 539.591H1394.69V584.555H1421.15V539.591Z" fill="#455A64"/>
<path d="M1408.67 584.555C1408.47 584.555 1408.31 574.492 1408.31 562.073C1408.31 549.654 1408.47 539.591 1408.67 539.591C1408.86 539.591 1409.02 549.654 1409.02 562.073C1409.02 574.492 1408.86 584.555 1408.67 584.555Z" fill="#263238"/>
<path d="M1421.15 555.206C1416.75 555.523 1412.33 555.627 1407.91 555.519C1403.5 555.627 1399.09 555.523 1394.69 555.206C1403.5 554.789 1412.34 554.789 1421.15 555.206V555.206Z" fill="#263238"/>
<path d="M1421.29 571.294C1416.85 571.604 1412.4 571.708 1407.95 571.607C1403.5 571.708 1399.05 571.604 1394.61 571.294C1403.49 570.877 1412.4 570.877 1421.29 571.294V571.294Z" fill="#263238"/>
<path d="M1421.26 598.908H1394.8V643.872H1421.26V598.908Z" fill="#455A64"/>
<path d="M1408.77 643.872C1408.57 643.872 1408.42 633.81 1408.42 621.39C1408.42 608.971 1408.57 598.908 1408.77 598.908C1408.98 598.908 1409.13 608.971 1409.13 621.39C1409.13 633.81 1408.96 643.872 1408.77 643.872Z" fill="#263238"/>
<path d="M1421.25 614.538C1412.44 614.955 1403.61 614.955 1394.8 614.538C1403.61 614.121 1412.44 614.121 1421.25 614.538V614.538Z" fill="#263238"/>
<path d="M1421.4 630.612C1412.51 631.029 1403.6 631.029 1394.72 630.612C1403.6 630.196 1412.51 630.196 1421.4 630.612Z" fill="#263238"/>
<path d="M1421.26 657.721H1394.8V702.685H1421.26V657.721Z" fill="#455A64"/>
<path d="M1408.77 702.685C1408.57 702.685 1408.42 692.622 1408.42 680.203C1408.42 667.784 1408.57 657.721 1408.77 657.721C1408.98 657.721 1409.13 667.784 1409.13 680.203C1409.13 692.622 1408.96 702.685 1408.77 702.685Z" fill="#263238"/>
<path d="M1421.25 673.34C1412.44 673.757 1403.61 673.757 1394.8 673.34C1403.61 672.923 1412.44 672.923 1421.25 673.34V673.34Z" fill="#263238"/>
<path d="M1421.4 689.426C1412.51 689.843 1403.6 689.843 1394.72 689.426C1403.6 689.009 1412.51 689.009 1421.4 689.426V689.426Z" fill="#263238"/>
<path d="M1421.26 718.232H1394.8V763.197H1421.26V718.232Z" fill="#455A64"/>
<path d="M1408.77 763.197C1408.57 763.197 1408.42 753.122 1408.42 740.715C1408.42 728.307 1408.57 718.232 1408.77 718.232C1408.98 718.232 1409.13 728.295 1409.13 740.715C1409.13 753.134 1408.96 763.197 1408.77 763.197Z" fill="#263238"/>
<path d="M1421.25 733.85C1412.44 734.267 1403.61 734.267 1394.8 733.85C1403.61 733.433 1412.44 733.433 1421.25 733.85V733.85Z" fill="#263238"/>
<path d="M1421.4 749.935C1412.51 750.335 1403.6 750.335 1394.72 749.935C1403.6 749.518 1412.51 749.518 1421.4 749.935V749.935Z" fill="#263238"/>
<path d="M1502.65 523.383H1439.21V848.026H1502.65V523.383Z" fill="#FF6B6B"/>
<g opacity="0.3">
<path opacity="0.3" d="M1502.65 523.383H1439.21V848.026H1502.65V523.383Z" fill="black"/>
</g>
<path d="M1483.68 539.591H1457.22V584.555H1483.68V539.591Z" fill="#455A64"/>
<path d="M1471.2 584.555C1470.99 584.555 1470.84 574.492 1470.84 562.073C1470.84 549.654 1470.99 539.591 1471.2 539.591C1471.4 539.591 1471.55 549.654 1471.55 562.073C1471.55 574.492 1471.39 584.555 1471.2 584.555Z" fill="#263238"/>
<path d="M1483.67 555.206C1479.27 555.523 1474.86 555.627 1470.45 555.519C1466.04 555.627 1461.62 555.523 1457.22 555.206C1466.03 554.789 1474.86 554.789 1483.67 555.206V555.206Z" fill="#263238"/>
<path d="M1483.82 571.294C1479.38 571.603 1474.92 571.708 1470.47 571.607C1466.02 571.708 1461.57 571.604 1457.14 571.294C1466.03 570.877 1474.93 570.877 1483.82 571.294V571.294Z" fill="#263238"/>
<path d="M1483.78 600.603H1457.32V645.567H1483.78V600.603Z" fill="#455A64"/>
<path d="M1471.29 645.544C1471.1 645.544 1470.94 635.481 1470.94 623.062C1470.94 610.643 1471.1 600.58 1471.29 600.58C1471.48 600.58 1471.65 610.643 1471.65 623.062C1471.65 635.481 1471.5 645.544 1471.29 645.544Z" fill="#263238"/>
<path d="M1483.78 616.232C1474.97 616.648 1466.13 616.648 1457.32 616.232C1466.13 615.815 1474.97 615.815 1483.78 616.232Z" fill="#263238"/>
<path d="M1483.91 632.32C1475.03 632.737 1466.12 632.737 1457.24 632.32C1466.12 631.904 1475.03 631.904 1483.91 632.32V632.32Z" fill="#263238"/>
<path d="M1483.78 657.721H1457.32V702.685H1483.78V657.721Z" fill="#455A64"/>
<path d="M1471.29 702.685C1471.1 702.685 1470.94 692.622 1470.94 680.203C1470.94 667.784 1471.1 657.721 1471.29 657.721C1471.48 657.721 1471.65 667.784 1471.65 680.203C1471.65 692.622 1471.5 702.685 1471.29 702.685Z" fill="#263238"/>
<path d="M1483.78 673.34C1474.97 673.757 1466.13 673.757 1457.32 673.34C1466.13 672.923 1474.97 672.923 1483.78 673.34Z" fill="#263238"/>
<path d="M1483.91 689.426C1475.03 689.843 1466.12 689.843 1457.24 689.426C1466.12 689.009 1475.03 689.009 1483.91 689.426V689.426Z" fill="#263238"/>
<path d="M1484.86 719.205H1458.4V764.169H1484.86V719.205Z" fill="#455A64"/>
<path d="M1472.37 764.169C1472.18 764.169 1472.03 754.094 1472.03 741.687C1472.03 729.28 1472.18 719.205 1472.37 719.205C1472.56 719.205 1472.72 729.268 1472.72 741.687C1472.72 754.106 1472.57 764.169 1472.37 764.169Z" fill="#263238"/>
<path d="M1484.86 734.824C1476.04 735.241 1467.21 735.241 1458.4 734.824C1467.21 734.408 1476.04 734.408 1484.86 734.824V734.824Z" fill="#263238"/>
<path d="M1484.99 750.908C1476.11 751.325 1467.21 751.325 1458.33 750.908C1467.21 750.492 1476.11 750.492 1484.99 750.908V750.908Z" fill="#263238"/>
<path d="M1421.26 780.159H1394.8V825.123H1421.26V780.159Z" fill="#455A64"/>
<path d="M1408.77 825.123C1408.57 825.123 1408.42 815.061 1408.42 802.641C1408.42 790.222 1408.57 780.159 1408.77 780.159C1408.98 780.159 1409.13 790.222 1409.13 802.641C1409.13 815.061 1408.96 825.123 1408.77 825.123Z" fill="#263238"/>
<path d="M1421.25 795.825C1412.44 796.226 1403.61 796.226 1394.8 795.825C1403.61 795.408 1412.44 795.408 1421.25 795.825Z" fill="#263238"/>
<path d="M1421.4 811.863C1412.51 812.28 1403.6 812.28 1394.72 811.863C1403.6 811.447 1412.51 811.447 1421.4 811.863V811.863Z" fill="#263238"/>
<path d="M1483.78 782.095H1457.32V827.059H1483.78V782.095Z" fill="#455A64"/>
<path d="M1471.29 827.083C1471.1 827.083 1470.94 817.02 1470.94 804.613C1470.94 792.206 1471.1 782.131 1471.29 782.131C1471.48 782.131 1471.65 792.194 1471.65 804.613C1471.65 817.032 1471.5 827.083 1471.29 827.083Z" fill="#263238"/>
<path d="M1483.78 797.714C1474.97 798.131 1466.13 798.131 1457.32 797.714C1466.13 797.297 1474.97 797.297 1483.78 797.714V797.714Z" fill="#263238"/>
<path d="M1483.91 813.787C1475.03 814.204 1466.12 814.204 1457.24 813.787C1466.12 813.37 1475.03 813.37 1483.91 813.787V813.787Z" fill="#263238"/>
<path d="M1358.99 848.143H188.465V854.762H1358.99V848.143Z" fill="#DCDDDD"/>
<path d="M1740 848.143H1355.06V854.762H1740V848.143Z" fill="#DCDDDD"/>
<path d="M560.672 854.951C560.181 852.824 560.181 850.633 560.672 848.507C561.145 850.634 561.145 852.823 560.672 854.951V854.951Z" fill="#263238"/>
<path d="M602.73 854.951C602.257 852.823 602.257 850.635 602.73 848.507C603.203 850.635 603.203 852.823 602.73 854.951Z" fill="#263238"/>
<path d="M644.785 854.951C644.312 852.823 644.312 850.635 644.785 848.507C645.259 850.635 645.259 852.823 644.785 854.951Z" fill="#263238"/>
<path d="M686.855 854.951C686.382 852.823 686.382 850.635 686.855 848.507C687.328 850.635 687.328 852.823 686.855 854.951V854.951Z" fill="#263238"/>
<path d="M728.913 854.951C728.439 852.823 728.439 850.635 728.913 848.507C729.386 850.635 729.386 852.823 728.913 854.951Z" fill="#263238"/>
<path d="M770.94 854.951C770.467 852.823 770.467 850.635 770.94 848.507C771.414 850.635 771.414 852.823 770.94 854.951Z" fill="#263238"/>
<path d="M813.039 854.951C812.566 852.823 812.566 850.635 813.039 848.507C813.512 850.635 813.512 852.823 813.039 854.951V854.951Z" fill="#263238"/>
<path d="M855.109 854.951C854.617 852.825 854.617 850.633 855.109 848.507C855.582 850.635 855.582 852.823 855.109 854.951V854.951Z" fill="#263238"/>
<path d="M897.166 854.191C896.692 852.063 896.692 849.875 897.166 847.747C897.639 849.875 897.639 852.063 897.166 854.191V854.191Z" fill="#263238"/>
<path d="M267.709 854.95C267.235 852.822 267.235 850.634 267.709 848.506C268.182 850.634 268.182 852.822 267.709 854.95Z" fill="#263238"/>
<path d="M309.778 854.95C309.305 852.822 309.305 850.634 309.778 848.506C310.251 850.634 310.251 852.822 309.778 854.95V854.95Z" fill="#263238"/>
<path d="M351.835 854.95C351.362 852.822 351.362 850.634 351.835 848.506C352.308 850.634 352.308 852.822 351.835 854.95Z" fill="#263238"/>
<path d="M393.864 854.95C393.39 852.822 393.39 850.634 393.864 848.506C394.337 850.634 394.337 852.822 393.864 854.95Z" fill="#263238"/>
<path d="M435.962 854.95C435.489 852.822 435.489 850.634 435.962 848.506C436.435 850.634 436.435 852.822 435.962 854.95V854.95Z" fill="#263238"/>
<path d="M478.032 854.95C477.541 852.824 477.541 850.632 478.032 848.506C478.505 850.634 478.505 852.822 478.032 854.95V854.95Z" fill="#263238"/>
<path d="M520.089 854.191C519.616 852.063 519.616 849.875 520.089 847.747C520.562 849.875 520.562 852.063 520.089 854.191V854.191Z" fill="#263238"/>
<path d="M937.76 854.95C937.269 852.824 937.269 850.632 937.76 848.506C938.233 850.634 938.233 852.822 937.76 854.95V854.95Z" fill="#263238"/>
<path d="M979.817 854.95C979.344 852.822 979.344 850.634 979.817 848.506C980.291 850.634 980.291 852.822 979.817 854.95Z" fill="#263238"/>
<path d="M1021.87 854.95C1021.4 852.822 1021.4 850.634 1021.87 848.506C1022.35 850.634 1022.35 852.822 1021.87 854.95Z" fill="#263238"/>
<path d="M1063.94 854.95C1063.47 852.822 1063.47 850.634 1063.94 848.506C1064.42 850.634 1064.42 852.822 1063.94 854.95V854.95Z" fill="#263238"/>
<path d="M1106 854.95C1105.53 852.822 1105.53 850.634 1106 848.506C1106.47 850.634 1106.47 852.822 1106 854.95Z" fill="#263238"/>
<path d="M1148.03 854.95C1147.55 852.822 1147.55 850.634 1148.03 848.506C1148.5 850.634 1148.5 852.822 1148.03 854.95Z" fill="#263238"/>
<path d="M1190.13 854.95C1189.65 852.822 1189.65 850.634 1190.13 848.506C1190.6 850.634 1190.6 852.822 1190.13 854.95V854.95Z" fill="#263238"/>
<path d="M1232.2 854.95C1231.71 852.824 1231.71 850.632 1232.2 848.506C1232.67 850.634 1232.67 852.822 1232.2 854.95V854.95Z" fill="#263238"/>
<path d="M1274.25 854.191C1273.78 852.063 1273.78 849.875 1274.25 847.747C1274.73 849.875 1274.73 852.063 1274.25 854.191V854.191Z" fill="#263238"/>
<path d="M1358.99 854.762C1358.99 854.762 1358.99 854.633 1358.99 854.386C1358.99 854.139 1358.99 853.739 1358.99 853.21C1358.99 852.152 1358.99 850.588 1358.99 848.448V848.354H1359.1C1381.81 848.225 1456.63 848.143 1545.26 848.143L1682.96 848.225L1724.7 848.319L1736.04 848.378H1724.7L1682.96 848.472L1545.26 848.566C1456.63 848.566 1381.81 848.472 1359.1 848.342L1359.23 848.26C1359.23 850.4 1359.23 851.964 1359.23 853.022C1359.23 853.528 1359.23 853.904 1359.23 854.198C1359.18 854.393 1359.1 854.582 1358.99 854.762Z" fill="#263238"/>
<path d="M1397.52 848.099C1398 850.202 1398 852.367 1397.52 854.471C1397.05 852.367 1397.05 850.202 1397.52 848.099Z" fill="#263238"/>
<path d="M1316.14 848.099C1316.61 850.202 1316.61 852.367 1316.14 854.471C1315.66 852.367 1315.66 850.202 1316.14 848.099Z" fill="#263238"/>
<path d="M1440.6 848.099C1441.08 850.202 1441.08 852.367 1440.6 854.471C1440.13 852.367 1440.13 850.202 1440.6 848.099V848.099Z" fill="#263238"/>
<path d="M1483.68 848.099C1484.16 850.202 1484.16 852.367 1483.68 854.471C1483.21 852.367 1483.21 850.202 1483.68 848.099Z" fill="#263238"/>
<path d="M1526.76 848.099C1527.24 850.202 1527.24 852.367 1526.76 854.471C1526.29 852.367 1526.29 850.202 1526.76 848.099V848.099Z" fill="#263238"/>
<path d="M1569.84 848.099C1570.32 850.202 1570.32 852.367 1569.84 854.471C1569.35 852.369 1569.35 850.201 1569.84 848.099V848.099Z" fill="#263238"/>
<path d="M1612.91 848.099C1613.38 850.202 1613.38 852.367 1612.91 854.471C1612.43 852.367 1612.43 850.202 1612.91 848.099Z" fill="#263238"/>
<path d="M1655.99 848.099C1656.46 850.202 1656.46 852.367 1655.99 854.471C1655.51 852.367 1655.51 850.202 1655.99 848.099V848.099Z" fill="#263238"/>
<path d="M785.768 898.027L660.316 941.581H695.842L803.154 898.027H785.768Z" fill="#F5F5F5"/>
<path d="M823.223 898.926L729.199 941.579H765.459L845.663 898.701L823.223 898.926Z" fill="#F5F5F5"/>
<path d="M864.723 898.701L800.288 941.579H833.847L885.233 898.701H864.723Z" fill="#F5F5F5"/>
<path d="M906.016 898.701L869.792 941.579H906.016L926.251 898.701H906.016Z" fill="#F5F5F5"/>
<path d="M946.762 898.701L940.624 941.579H974.992L967.273 898.701H946.762Z" fill="#F5F5F5"/>
<path d="M987.765 898.701L1010.94 941.579H1045.56L1009.08 898.701H987.765Z" fill="#F5F5F5"/>
<path d="M1032.2 899.034L1082.8 941.912H1118.77L1051.92 899.034H1032.2Z" fill="#F5F5F5"/>
<path d="M1069.79 898.701L1151.55 941.579H1186.18L1090.83 898.701H1069.79Z" fill="#F5F5F5"/>
<path d="M1112.41 899.366L1221.34 941.58H1257.29L1132.11 899.366H1112.41Z" fill="#F5F5F5"/>
<path d="M424.078 1007.02C424.078 1007.02 424.721 1006.77 425.916 1006.33L431.594 1004.37L453.538 996.87L534.551 969.263L803.943 877.709L803.704 877.944V872.372L804.182 872.65H794.367L469.638 872.961H371.184H344.425H337.478C335.898 872.961 335.107 872.961 335.107 872.961C335.107 872.961 335.898 872.961 337.478 872.961H344.425L371.184 872.875L469.62 872.661L794.459 872.189H804.751V878.202L804.512 878.287L534.973 969.702L453.814 997.148L431.76 1004.58L426.026 1006.48L424.078 1007.02Z" fill="#263238"/>
<path d="M804.274 872.362L803.282 872.695L800.341 873.648L789.02 877.249L747.338 890.495L718.649 899.755L685.935 910.579L610.988 935.399L474.693 980.41L433.323 993.924L422.149 997.589L419.208 998.532C418.546 998.747 418.197 998.843 418.197 998.843C418.197 998.843 418.51 998.714 419.153 998.489L422.057 997.493L433.176 993.742L474.38 980.013L610.547 934.885L685.531 910.107C697.072 906.313 707.989 902.605 718.3 899.326C728.61 896.047 738.24 892.896 747.044 890.131C764.669 884.569 778.967 880.111 788.873 877.056L800.286 873.541L803.282 872.652C803.907 872.448 804.274 872.362 804.274 872.362Z" fill="#263238"/>
<path d="M486.933 985.487C486.295 982.43 486.295 979.339 486.933 976.281C487.57 979.339 487.57 982.43 486.933 985.487Z" fill="#263238"/>
<path d="M536.48 968.717C535.842 965.659 535.842 962.568 536.48 959.511C537.118 962.568 537.118 965.659 536.48 968.717Z" fill="#263238"/>
<path d="M586.05 951.966C585.412 949.099 585.412 946.195 586.05 943.328C586.688 946.195 586.688 949.099 586.05 951.966Z" fill="#263238"/>
<path d="M635.596 935.216C634.958 932.489 634.958 929.723 635.596 926.996C636.234 929.723 636.234 932.489 635.596 935.216Z" fill="#263238"/>
<path d="M685.164 918.464C684.526 915.84 684.526 913.178 685.164 910.555C685.802 913.178 685.802 915.84 685.164 918.464V918.464Z" fill="#263238"/>
<path d="M734.713 901.716C734.075 899.251 734.075 896.744 734.713 894.278C735.351 896.744 735.351 899.251 734.713 901.716V901.716Z" fill="#263238"/>
<path d="M399.487 969.947L628.821 901.898C630.069 901.527 631.082 900.892 631.693 900.097C632.305 899.302 632.476 898.396 632.181 897.53C631.885 896.663 631.139 895.888 630.067 895.333C628.995 894.779 627.662 894.478 626.289 894.481H399.487V969.947Z" fill="#AED1CF"/>
<path d="M400.121 894.482L183.909 962.531C182.733 962.901 181.777 963.537 181.201 964.332C180.625 965.126 180.463 966.032 180.742 966.899C181.021 967.766 181.724 968.541 182.734 969.095C183.745 969.65 185.002 969.951 186.296 969.947H400.121V894.482Z" fill="#AED1CF"/>
<path d="M497.979 904.042C499.922 905.826 501.268 907.807 501.949 909.883C502.942 911.911 503.284 914.029 502.959 916.131C502.665 916.131 502.408 913.344 501.011 910.011C499.614 906.678 497.721 904.117 497.979 904.042Z" fill="#263238"/>
<path d="M505.549 905.251C505.95 908.068 505.715 910.904 504.85 913.685C504.469 912.267 504.42 910.825 504.703 909.398C504.682 908.001 504.966 906.607 505.549 905.251V905.251Z" fill="#263238"/>
<path d="M512.902 910.812C512.8 911.771 512.388 912.709 511.689 913.577C511.279 914.504 510.561 915.374 509.575 916.139C509.675 915.184 510.086 914.249 510.788 913.385C511.2 912.455 511.918 911.582 512.902 910.812Z" fill="#263238"/>
<path d="M382.615 903.805C382.89 903.805 384.14 905.552 386.199 907.609C388.257 909.667 390.297 911.199 390.095 911.306C388.124 910.377 386.519 909.211 385.39 907.888C383.986 906.655 383.04 905.264 382.615 903.805V903.805Z" fill="#263238"/>
<path d="M393.828 901.897C393.828 901.897 393.406 901.897 392.689 901.897L392.983 901.779C393.041 903.204 393.343 904.622 393.883 906.012C394.699 907.584 395.656 909.129 396.751 910.642C394.796 909.375 393.485 907.817 392.965 906.141C392.342 904.709 392.192 903.222 392.523 901.757V901.586L392.762 901.64C393.498 901.715 393.847 901.822 393.828 901.897Z" fill="#263238"/>
<path d="M404.213 905.98C404.698 908.641 404.556 911.327 403.79 913.965C403.386 912.646 403.293 911.301 403.514 909.967C403.417 908.626 403.653 907.283 404.213 905.98V905.98Z" fill="#263238"/>
<path d="M305.66 951.318C304.465 950.358 303.535 949.295 302.903 948.167C302.001 947.107 301.381 945.972 301.065 944.802C302.276 945.758 303.213 946.822 303.841 947.953C304.735 949.015 305.349 950.149 305.66 951.318V951.318Z" fill="#263238"/>
<path d="M308.196 951.092C307.567 949.635 307.259 948.137 307.277 946.634C306.967 945.143 306.967 943.635 307.277 942.144C307.898 943.602 308.206 945.099 308.196 946.602C308.507 948.093 308.507 949.601 308.196 951.092V951.092Z" fill="#263238"/>
<path d="M311.357 951.092C311.529 949.824 312.005 948.576 312.772 947.384C313.245 946.141 314.031 944.945 315.106 943.837C314.934 945.105 314.458 946.354 313.691 947.545C313.222 948.789 312.436 949.985 311.357 951.092V951.092Z" fill="#263238"/>
<path d="M445.747 940.809C444.554 939.895 443.634 938.87 443.027 937.777C442.131 936.767 441.511 935.682 441.189 934.562C442.384 935.479 443.304 936.508 443.909 937.605C444.801 938.612 445.421 939.692 445.747 940.809V940.809Z" fill="#263238"/>
<path d="M448.062 939.877C446.459 937.558 445.456 935.113 445.084 932.622C446.71 934.937 447.714 937.384 448.062 939.877Z" fill="#263238"/>
<path d="M452.364 939.406C452.46 936.624 453.176 933.861 454.496 931.187C454.615 932.582 454.417 933.98 453.908 935.345C453.713 936.733 453.193 938.1 452.364 939.406V939.406Z" fill="#263238"/>
<path d="M1499.13 1007.02L1497.16 1006.37L1491.43 1004.47L1469.38 997.04L1388.22 969.594L1118.7 878.179L1118.48 878.093V872.081H1128.75L1453.59 872.553L1552.02 872.767L1578.78 872.853H1585.75H1588.12C1588.12 872.853 1587.31 872.853 1585.75 872.853H1578.78H1552.02H1453.59L1128.75 872.542H1118.95L1119.43 872.263V877.836L1119.19 877.6L1388.58 969.155C1422.82 980.836 1450.48 990.256 1469.58 996.761L1491.52 1004.26L1497.22 1006.22C1498.49 1006.77 1499.13 1007.02 1499.13 1007.02Z" fill="#263238"/>
<path d="M1117.77 871.975C1117.77 871.975 1118.14 872.06 1118.82 872.264L1121.8 873.153L1133.21 876.669C1143.12 879.723 1157.43 884.17 1175.04 889.743C1183.84 892.53 1193.42 895.595 1203.78 898.938C1214.15 902.282 1225.01 905.926 1236.55 909.719L1311.54 934.497L1447.67 979.626L1488.87 993.354L1500.05 997.105L1502.95 998.102L1503.92 998.455C1503.92 998.455 1503.56 998.359 1502.89 998.145L1499.95 997.212L1488.69 993.536L1447.34 979.969L1311.04 934.958L1236.08 910.137L1203.36 899.313L1174.71 890.108L1133.05 876.872L1121.71 873.271L1118.77 872.318L1117.77 871.975Z" fill="#263238"/>
<path d="M1436.29 985.487C1435.63 982.431 1435.63 979.338 1436.29 976.281C1436.93 979.339 1436.93 982.43 1436.29 985.487Z" fill="#263238"/>
<path d="M1386.73 968.717C1386.09 965.659 1386.09 962.568 1386.73 959.511C1387.36 962.568 1387.36 965.659 1386.73 968.717V968.717Z" fill="#263238"/>
<path d="M1337.16 951.966C1336.52 949.099 1336.52 946.195 1337.16 943.328C1337.82 946.194 1337.82 949.1 1337.16 951.966V951.966Z" fill="#263238"/>
<path d="M1287.61 935.216C1286.97 932.489 1286.97 929.723 1287.61 926.996C1288.25 929.723 1288.25 932.489 1287.61 935.216Z" fill="#263238"/>
<path d="M1238.04 918.464C1237.4 915.84 1237.4 913.178 1238.04 910.555C1238.68 913.178 1238.68 915.84 1238.04 918.464V918.464Z" fill="#263238"/>
<path d="M1188.53 901.716C1187.89 899.251 1187.89 896.744 1188.53 894.278C1189.17 896.744 1189.17 899.251 1188.53 901.716V901.716Z" fill="#263238"/>
<path d="M1515.45 971.11L1294.28 902.498C1293.08 902.093 1292.1 901.398 1291.51 900.529C1290.92 899.66 1290.76 898.669 1291.04 897.722C1291.33 896.775 1292.05 895.929 1293.09 895.324C1294.12 894.719 1295.41 894.392 1296.74 894.399H1515.45V971.11Z" fill="#AED1CF"/>
<path d="M1515.45 894.483L1736.62 963.094C1737.83 963.5 1738.81 964.195 1739.39 965.064C1739.98 965.933 1740.15 966.923 1739.86 967.871C1739.57 968.818 1738.85 969.664 1737.82 970.269C1736.78 970.874 1735.49 971.2 1734.17 971.194H1515.45V894.483Z" fill="#AED1CF"/>
<path d="M1479.33 906.185C1479.73 908.536 1479.64 910.907 1479.07 913.247C1478.83 915.606 1478.11 917.94 1476.94 920.202C1476.67 920.202 1477.48 917.051 1478.14 913.193C1478.8 909.335 1479.06 906.185 1479.33 906.185Z" fill="#263238"/>
<path d="M1473.4 912.752C1473.6 912.666 1474.76 913.588 1475.1 914.949C1475.48 915.757 1475.29 916.619 1474.59 917.349C1474.34 916.585 1474.19 915.811 1474.15 915.034C1473.84 913.791 1473.14 912.827 1473.4 912.752Z" fill="#263238"/>
<path d="M1567.69 927.58C1567.95 927.644 1566.02 930.206 1564.66 933.549C1563.3 936.893 1563 939.679 1562.71 939.669C1562.36 935.445 1564.09 931.252 1567.69 927.58V927.58Z" fill="#263238"/>
<path d="M1560.12 928.79C1560.95 931.574 1561.16 934.409 1560.73 937.224C1559.87 934.431 1559.65 931.585 1560.06 928.758L1560.12 928.79Z" fill="#263238"/>
<path d="M1552.77 934.351C1553.75 935.12 1554.47 935.994 1554.88 936.923C1555.58 937.788 1555.99 938.723 1556.09 939.677C1555.11 938.913 1554.39 938.042 1553.98 937.116C1553.28 936.247 1552.87 935.309 1552.77 934.351V934.351Z" fill="#263238"/>
<path d="M1369.1 911.767C1369.41 910.597 1370.03 909.462 1370.94 908.402C1371.56 907.273 1372.49 906.209 1373.69 905.251C1373.38 906.421 1372.76 907.557 1371.86 908.616C1371.23 909.745 1370.3 910.808 1369.1 911.767V911.767Z" fill="#263238"/>
<path d="M1366.58 911.541C1366.25 910.051 1366.25 908.541 1366.58 907.051C1366.57 905.549 1366.88 904.052 1367.48 902.593C1367.81 904.083 1367.81 905.592 1367.48 907.083C1367.49 908.585 1367.18 910.081 1366.58 911.541V911.541Z" fill="#263238"/>
<path d="M1363.4 911.54C1362.33 910.433 1361.54 909.237 1361.07 907.993C1360.29 906.804 1359.82 905.555 1359.67 904.285C1360.73 905.398 1361.51 906.592 1361.99 907.832C1362.77 909.022 1363.24 910.271 1363.4 911.54V911.54Z" fill="#263238"/>
<path d="M1477.48 940.809C1477.79 939.686 1478.41 938.6 1479.32 937.594C1479.94 936.502 1480.86 935.474 1482.04 934.551C1481.11 936.777 1479.58 938.901 1477.5 940.842L1477.48 940.809Z" fill="#263238"/>
<path d="M1475.23 939.877C1475.61 937.386 1476.61 934.941 1478.21 932.622C1477.84 935.113 1476.84 937.558 1475.23 939.877V939.877Z" fill="#263238"/>
<path d="M1470.84 939.406C1469.49 936.735 1468.78 933.97 1468.71 931.187C1470.05 933.858 1470.77 936.623 1470.84 939.406Z" fill="#263238"/>
<path d="M417.117 832.748C416.068 836.15 429.7 860.219 435.821 863.466L437.253 928.062L434.922 941.119H447.627L444.655 884.842L461.014 838.916L456.706 837.1L442.392 878.289L436.939 837.978L433.531 837.1L436.258 855.819C436.258 855.819 423.988 845.804 421.589 832.748H417.117Z" fill="#263238"/>
<path d="M504.667 785.945C501.586 782.338 495.887 780.45 491.17 782.121C493.461 778.899 495.806 775.545 496.31 771.77C496.814 767.995 494.947 763.679 490.857 762.356C488.539 761.599 485.826 761.887 483.686 760.793C480.169 759.002 479.978 754.65 480.373 751.079C481.045 747.141 481.228 743.15 480.919 739.177C480.387 735.234 478.519 731.23 474.893 728.874C470.803 726.181 465.2 726.06 460.102 726.589C438.753 728.753 419.368 740.451 407.425 756.213C395.359 771.992 389.317 790.756 390.18 809.773C390.633 818.552 393.704 827.07 399.082 834.467C404.085 841.008 410.847 846.887 419.177 849.76C422.714 851.091 426.359 852.184 430.083 853.03C434.311 853.892 438.639 854.32 442.979 854.304H446.551C460.184 853.775 469.072 848.413 479.269 840.418C489.466 832.424 495.969 821.892 502.295 811.24C504.826 807.351 506.635 803.13 507.652 798.736C508.151 796.537 508.143 794.271 507.631 792.073C507.118 789.876 506.11 787.792 504.667 785.945V785.945Z" fill="#07838A"/>
<path d="M1429.28 815.578C1428.22 818.98 1441.87 843.05 1447.97 846.284L1449.42 910.881L1447.09 923.937H1459.85L1456.89 867.672L1473.25 821.746L1468.95 819.93L1454.63 861.119L1449.17 820.796L1445.75 819.93L1448.48 838.637C1448.48 838.637 1436.21 828.635 1433.8 815.578H1429.28Z" fill="#263238"/>
<path d="M1516.76 768.738C1513.7 765.131 1507.98 763.244 1503.28 764.915C1505.57 761.693 1507.92 758.327 1508.41 754.552C1508.9 750.777 1507.04 746.473 1502.95 745.15C1500.62 744.381 1497.92 744.681 1495.78 743.587C1492.25 741.796 1492.06 737.444 1492.47 733.873C1493.14 729.935 1493.33 725.944 1493.02 721.971C1492.48 718.027 1490.62 714.024 1486.98 711.655C1482.89 708.974 1477.28 708.854 1472.2 709.371C1450.84 711.547 1431.47 723.245 1419.51 739.007C1407.45 754.79 1401.42 773.552 1402.28 792.567C1402.72 801.341 1405.79 809.856 1411.17 817.249C1416.17 823.801 1422.93 829.68 1431.27 832.542C1434.81 833.883 1438.45 834.98 1442.18 835.824C1446.41 836.686 1450.74 837.114 1455.08 837.098H1458.65C1472.28 836.557 1481.17 831.207 1491.37 823.212C1501.56 815.217 1508.08 804.685 1514.39 794.022C1516.93 790.134 1518.74 785.913 1519.76 781.518C1520.26 779.319 1520.25 777.055 1519.74 774.859C1519.22 772.663 1518.21 770.582 1516.76 768.738Z" fill="#07838A"/>
</svg>
