<svg width="41" height="40" viewBox="0 0 41 40" fill="none" xmlns="http://www.w3.org/2000/svg">
<path d="M30.1052 21.4504V28.4937H26.0225V21.9209C26.0225 20.2711 25.4319 19.1451 23.9535 19.1451C22.8256 19.1451 22.1531 19.9034 21.8578 20.6388C21.7511 20.9017 21.7226 21.2675 21.7226 21.6333V28.4937H17.6379C17.6379 28.4937 17.6932 17.3638 17.6379 16.2112H21.7226V17.9506L21.6959 17.9906H21.7226V17.9525C22.2655 17.1142 23.2333 15.9216 25.4033 15.9216C28.0896 15.9216 30.1052 17.6782 30.1052 21.4504ZM13.3647 10.2881C11.9682 10.2881 11.0537 11.2064 11.0537 12.4104C11.0537 13.5916 11.9415 14.5347 13.3113 14.5347H13.338C14.763 14.5347 15.6489 13.5897 15.6489 12.4104C15.6223 11.2064 14.763 10.2881 13.3647 10.2881ZM11.2957 28.4937H15.3803V16.2112H11.2957V28.4937Z" fill="#359AA0"/>
<path d="M29.2987 0H11.6165C8.73985 0.00329721 5.98191 1.14752 3.94777 3.18166C1.91364 5.2158 0.76941 7.97373 0.766113 10.8504V28.5326C0.76941 31.4093 1.91364 34.1673 3.94777 36.2014C5.98191 38.2355 8.73985 39.3798 11.6165 39.3831H29.2987C32.1754 39.3798 34.9334 38.2355 36.9675 36.2014C39.0017 34.1673 40.1459 31.4093 40.1492 28.5326V10.8504C40.1459 7.97373 39.0017 5.2158 36.9675 3.18166C34.9334 1.14752 32.1754 0.00329721 29.2987 0ZM37.738 28.5326C37.7355 30.7701 36.8455 32.9152 35.2634 34.4973C33.6813 36.0794 31.5362 36.9694 29.2987 36.9719H11.6165C9.37909 36.9694 7.23399 36.0794 5.65187 34.4973C4.06975 32.9152 3.17982 30.7701 3.17732 28.5326V10.8504C3.17982 8.61298 4.06975 6.46788 5.65187 4.88576C7.23399 3.30364 9.37909 2.41371 11.6165 2.41121H29.2987C31.5362 2.41371 33.6813 3.30364 35.2634 4.88576C36.8455 6.46788 37.7355 8.61298 37.738 10.8504V28.5326Z" fill="#359AA0"/>
</svg>
