<svg width="21" height="14" viewBox="0 0 21 14" fill="none" xmlns="http://www.w3.org/2000/svg">
<path fill-rule="evenodd" clip-rule="evenodd" d="M0.777389 0C0.571213 0 0.373481 0.0819444 0.227692 0.227806C0.0819032 0.373668 0 0.571498 0 0.777778C0 0.984057 0.0819032 1.18189 0.227692 1.32775C0.373481 1.47361 0.571213 1.55556 0.777389 1.55556H19.4347C19.6409 1.55556 19.8386 1.47361 19.9844 1.32775C20.1302 1.18189 20.2121 0.984057 20.2121 0.777778C20.2121 0.571498 20.1302 0.373668 19.9844 0.227806C19.8386 0.0819444 19.6409 0 19.4347 0H0.777389ZM0 7C0 6.79372 0.0819032 6.59589 0.227692 6.45003C0.373481 6.30417 0.571213 6.22222 0.777389 6.22222H19.4347C19.6409 6.22222 19.8386 6.30417 19.9844 6.45003C20.1302 6.59589 20.2121 6.79372 20.2121 7C20.2121 7.20628 20.1302 7.40411 19.9844 7.54997C19.8386 7.69583 19.6409 7.77778 19.4347 7.77778H0.777389C0.571213 7.77778 0.373481 7.69583 0.227692 7.54997C0.0819032 7.40411 0 7.20628 0 7ZM0 13.2222C0 13.0159 0.0819032 12.8181 0.227692 12.6722C0.373481 12.5264 0.571213 12.4444 0.777389 12.4444H19.4347C19.6409 12.4444 19.8386 12.5264 19.9844 12.6722C20.1302 12.8181 20.2121 13.0159 20.2121 13.2222C20.2121 13.4285 20.1302 13.6263 19.9844 13.7722C19.8386 13.9181 19.6409 14 19.4347 14H0.777389C0.571213 14 0.373481 13.9181 0.227692 13.7722C0.0819032 13.6263 0 13.4285 0 13.2222Z" fill="#2E3030"/>
</svg>
