<svg width="40" height="40" viewBox="0 0 40 40" fill="none" xmlns="http://www.w3.org/2000/svg">
<path d="M19.6915 10.4486C17.8634 10.4486 16.0764 10.9907 14.5564 12.0063C13.0364 13.0219 11.8517 14.4655 11.1521 16.1544C10.4526 17.8433 10.2695 19.7018 10.6262 21.4947C10.9828 23.2877 11.8631 24.9346 13.1558 26.2273C14.4484 27.5199 16.0954 28.4003 17.8883 28.7569C19.6813 29.1135 21.5397 28.9305 23.2287 28.2309C24.9176 27.5313 26.3611 26.3466 27.3768 24.8266C28.3924 23.3066 28.9345 21.5196 28.9345 19.6915C28.9317 17.241 27.957 14.8916 26.2242 13.1588C24.4914 11.426 22.1421 10.4513 19.6915 10.4486ZM19.6915 26.5233C18.3403 26.5233 17.0195 26.1226 15.896 25.3719C14.7725 24.6212 13.8969 23.5543 13.3798 22.3059C12.8627 21.0576 12.7274 19.684 12.991 18.3587C13.2546 17.0335 13.9053 15.8162 14.8607 14.8607C15.8162 13.9053 17.0335 13.2546 18.3587 12.991C19.684 12.7274 21.0576 12.8627 22.3059 13.3798C23.5543 13.8969 24.6212 14.7725 25.3719 15.896C26.1226 17.0195 26.5233 18.3403 26.5233 19.6915C26.5212 21.5028 25.8008 23.2393 24.52 24.52C23.2393 25.8008 21.5028 26.5212 19.6915 26.5233ZM28.5326 0H10.8504C7.97373 0.00329721 5.2158 1.14752 3.18166 3.18166C1.14752 5.2158 0.00329721 7.97373 0 10.8504V28.5326C0.00329721 31.4093 1.14752 34.1673 3.18166 36.2014C5.2158 38.2355 7.97373 39.3798 10.8504 39.3831H28.5326C31.4093 39.3798 34.1673 38.2355 36.2014 36.2014C38.2355 34.1673 39.3798 31.4093 39.3831 28.5326V10.8504C39.3798 7.97373 38.2355 5.2158 36.2014 3.18166C34.1673 1.14752 31.4093 0.00329721 28.5326 0ZM36.9719 28.5326C36.9694 30.7701 36.0794 32.9152 34.4973 34.4973C32.9152 36.0794 30.7701 36.9694 28.5326 36.9719H10.8504C8.61298 36.9694 6.46788 36.0794 4.88576 34.4973C3.30364 32.9152 2.41371 30.7701 2.41121 28.5326V10.8504C2.41371 8.61298 3.30364 6.46788 4.88576 4.88576C6.46788 3.30364 8.61298 2.41371 10.8504 2.41121H28.5326C30.7701 2.41371 32.9152 3.30364 34.4973 4.88576C36.0794 6.46788 36.9694 8.61298 36.9719 10.8504V28.5326ZM32.1494 9.24296C32.1494 9.64037 32.0316 10.0289 31.8108 10.3593C31.59 10.6897 31.2762 10.9473 30.909 11.0993C30.5419 11.2514 30.1379 11.2912 29.7481 11.2137C29.3583 11.1362 29.0003 10.9448 28.7193 10.6638C28.4383 10.3828 28.2469 10.0247 28.1694 9.63497C28.0918 9.24519 28.1316 8.84118 28.2837 8.47402C28.4358 8.10686 28.6933 7.79305 29.0238 7.57226C29.3542 7.35147 29.7427 7.23362 30.1401 7.23362C30.6728 7.23426 31.1835 7.44616 31.5602 7.82285C31.9369 8.19954 32.1488 8.71025 32.1494 9.24296Z" fill="#359AA0"/>
</svg>
