<svg width="454" height="370" viewBox="0 0 454 370" fill="none" xmlns="http://www.w3.org/2000/svg">
<path d="M453.709 297.074H0.0244141V297.301H453.709V297.074Z" fill="#EBEBEB"/>
<path d="M408.25 311.673H329.4V311.9H408.25V311.673Z" fill="#EBEBEB"/>
<path d="M332.438 303.252H324.553V303.479H332.438V303.252Z" fill="#EBEBEB"/>
<path d="M310.091 314.141H292.678V314.367H310.091V314.141Z" fill="#EBEBEB"/>
<path d="M67.2251 304.777H47.626V305.004H67.2251V304.777Z" fill="#EBEBEB"/>
<path d="M100.642 304.777H75.2993V305.004H100.642V304.777Z" fill="#EBEBEB"/>
<path d="M230.958 308.497H188.457V308.724H230.958V308.497Z" fill="#EBEBEB"/>
<path d="M215.072 256.604H39.8683C38.4958 256.602 37.1803 256.055 36.2106 255.083C35.2409 254.112 34.6963 252.795 34.6963 251.423V5.13571C34.7082 3.77105 35.2581 2.46621 36.2265 1.50462C37.1949 0.543022 38.5036 0.00233773 39.8683 0H215.072C216.446 0 217.764 0.545862 218.736 1.5175C219.707 2.48914 220.253 3.80697 220.253 5.18108V251.423C220.253 252.797 219.707 254.115 218.736 255.087C217.764 256.058 216.446 256.604 215.072 256.604V256.604ZM39.8683 0.181475C38.5559 0.183878 37.2981 0.7069 36.371 1.63574C35.4438 2.56458 34.9231 3.82333 34.9231 5.13571V251.423C34.9231 252.735 35.4438 253.994 36.371 254.923C37.2981 255.852 38.5559 256.375 39.8683 256.377H215.072C216.385 256.375 217.644 255.852 218.573 254.923C219.501 253.995 220.024 252.736 220.026 251.423V5.13571C220.024 3.8225 219.501 2.56376 218.573 1.63518C217.644 0.706605 216.385 0.183873 215.072 0.181475H39.8683Z" fill="#EBEBEB"/>
<path d="M411.344 256.604H236.131C234.758 256.602 233.441 256.055 232.47 255.084C231.499 254.113 230.953 252.796 230.95 251.423V5.13571C230.965 3.77022 231.516 2.46539 232.486 1.50405C233.456 0.542705 234.766 0.00231224 236.131 0H411.344C412.707 0.0047224 414.014 0.546462 414.98 1.5078C415.947 2.46914 416.495 3.77262 416.507 5.13571V251.423C416.507 252.794 415.964 254.109 414.996 255.08C414.028 256.051 412.715 256.599 411.344 256.604V256.604ZM236.131 0.181475C234.818 0.183873 233.559 0.706605 232.631 1.63518C231.702 2.56376 231.179 3.8225 231.177 5.13571V251.423C231.179 252.736 231.702 253.995 232.631 254.923C233.559 255.852 234.818 256.375 236.131 256.377H411.344C412.657 256.375 413.916 255.852 414.845 254.923C415.773 253.995 416.296 252.736 416.298 251.423V5.13571C416.296 3.8225 415.773 2.56376 414.845 1.63518C413.916 0.706605 412.657 0.183873 411.344 0.181475H236.131Z" fill="#EBEBEB"/>
<path d="M249.714 293.979H171.381C167.728 293.979 164.225 292.528 161.642 289.945C159.058 287.362 157.607 283.859 157.607 280.205V209.839C157.606 208.029 157.961 206.237 158.653 204.565C159.345 202.893 160.359 201.373 161.638 200.094C162.918 198.814 164.436 197.798 166.108 197.105C167.78 196.413 169.572 196.056 171.381 196.056H249.714V293.979Z" fill="#F0F0F0"/>
<path d="M249.071 293.979H250.369C257.976 293.979 264.143 287.813 264.143 280.205V209.839C264.143 202.232 257.976 196.065 250.369 196.065H249.071C241.464 196.065 235.297 202.232 235.297 209.839V280.205C235.297 287.813 241.464 293.979 249.071 293.979Z" fill="#F5F5F5"/>
<path d="M239.233 232.177H146.727V293.978H239.233V232.177Z" fill="#F0F0F0"/>
<path d="M70.2622 293.988H250.457V294.251C250.457 295 250.159 295.718 249.63 296.247C249.101 296.776 248.383 297.073 247.635 297.073H73.0932C72.3448 297.073 71.627 296.776 71.0978 296.247C70.5686 295.718 70.2713 295 70.2713 294.251V293.988H70.2622Z" fill="#E0E0E0"/>
<path d="M162.363 160.368H76.97C74.5103 160.324 72.0693 160.804 69.8097 161.777C67.5501 162.75 65.5239 164.193 63.866 166.011C62.2081 167.829 60.9566 169.979 60.1949 172.318C59.4332 174.657 59.1788 177.132 59.4487 179.577L65.3557 246.151H189.148L183.314 179.577C182.777 174.366 180.348 169.533 176.487 165.993C172.626 162.453 167.6 160.452 162.363 160.368Z" fill="#E0E0E0"/>
<path d="M181.626 160.368H94.3918C92.0501 160.324 89.7259 160.78 87.5744 161.706C85.423 162.631 83.4936 164.005 81.9152 165.736C80.3368 167.466 79.1457 169.513 78.4213 171.741C77.6969 173.968 77.4559 176.324 77.7144 178.652L83.6849 246.151H207.486L201.525 178.652C201.016 173.699 198.71 169.104 195.044 165.736C191.377 162.367 186.604 160.458 181.626 160.368Z" fill="#F5F5F5"/>
<path d="M151.345 226.535H239.478C240.578 226.535 241.633 226.972 242.41 227.75C243.188 228.527 243.625 229.582 243.625 230.682V247.568C243.625 248.668 243.188 249.722 242.41 250.5C241.633 251.278 240.578 251.715 239.478 251.715H151.345C151.283 251.715 151.223 251.69 151.178 251.645C151.134 251.601 151.109 251.541 151.109 251.479V226.771C151.109 226.708 151.134 226.648 151.178 226.604C151.223 226.56 151.283 226.535 151.345 226.535V226.535Z" fill="#E0E0E0"/>
<path d="M146.275 293.979H67.9417C64.2887 293.979 60.7852 292.528 58.2021 289.945C55.619 287.362 54.1679 283.859 54.1679 280.205L54.1679 209.839C54.1667 208.029 54.5221 206.237 55.2137 204.565C55.9054 202.893 56.9198 201.373 58.1989 200.094C59.4781 198.814 60.9969 197.798 62.6686 197.105C64.3403 196.413 66.1321 196.056 67.9417 196.056H146.275V293.979Z" fill="#F0F0F0"/>
<path d="M145.629 293.979H146.926C154.533 293.979 160.7 287.813 160.7 280.205V209.839C160.7 202.232 154.533 196.065 146.926 196.065H145.629C138.022 196.065 131.855 202.232 131.855 209.839V280.205C131.855 287.813 138.022 293.979 145.629 293.979Z" fill="#F5F5F5"/>
<path d="M399.084 181.801H374.594V297.073H399.084V181.801Z" fill="#E6E6E6"/>
<path d="M394.431 297.072H399.085V277.01H389.558L394.431 297.072Z" fill="#F0F0F0"/>
<path d="M307.559 181.801H283.069V297.073H307.559V181.801Z" fill="#E6E6E6"/>
<path d="M399.084 181.801H303.493V290.45H399.084V181.801Z" fill="#F0F0F0"/>
<path d="M352.855 188.406V213.377H395.483V188.406H352.855Z" fill="#E6E6E6"/>
<path d="M307.106 188.406V213.377H349.735V188.406H307.106Z" fill="#E6E6E6"/>
<path d="M332.637 191.455H324.199C320.672 191.502 317.242 190.3 314.517 188.061H342.319C339.594 190.3 336.164 191.502 332.637 191.455V191.455Z" fill="#F0F0F0"/>
<path d="M378.815 191.455H370.377C366.85 191.502 363.421 190.3 360.695 188.061H388.497C385.772 190.3 382.342 191.502 378.815 191.455V191.455Z" fill="#F0F0F0"/>
<path d="M352.855 220.535V245.506H395.483V220.535H352.855Z" fill="#E6E6E6"/>
<path d="M307.106 220.535V245.506H349.735V220.535H307.106Z" fill="#E6E6E6"/>
<path d="M332.637 223.558H324.199C320.671 223.603 317.241 222.397 314.517 220.155H342.319C339.595 222.397 336.165 223.603 332.637 223.558V223.558Z" fill="#F0F0F0"/>
<path d="M378.815 223.558H370.377C366.849 223.603 363.419 222.397 360.695 220.155H388.497C385.773 222.397 382.343 223.603 378.815 223.558V223.558Z" fill="#F0F0F0"/>
<path d="M352.855 252.658V277.629H395.483V252.658H352.855Z" fill="#E6E6E6"/>
<path d="M307.106 252.667V277.638H349.735V252.667H307.106Z" fill="#E6E6E6"/>
<path d="M332.637 255.679H324.199C320.667 255.716 317.237 254.501 314.517 252.249H342.319C339.599 254.501 336.168 255.716 332.637 255.679V255.679Z" fill="#F0F0F0"/>
<path d="M378.815 255.679H370.377C366.846 255.716 363.416 254.501 360.695 252.249H388.497C385.777 254.501 382.347 255.716 378.815 255.679V255.679Z" fill="#F0F0F0"/>
<path d="M308.148 297.072H303.493V277.01H313.021L308.148 297.072Z" fill="#F0F0F0"/>
<path d="M312.087 166.747C312.087 166.747 312.478 181.801 327.204 181.801C341.931 181.801 342.321 166.747 342.321 166.747H312.087Z" fill="#E6E6E6"/>
<path d="M358.054 168.616C358.054 168.616 358.399 181.8 371.301 181.8C384.204 181.8 384.54 168.616 384.54 168.616H358.054Z" fill="#FAFAFA"/>
<path d="M346.812 171.157C346.812 171.157 347.084 181.8 357.501 181.8C367.917 181.8 368.181 171.157 368.181 171.157H346.812Z" fill="#F5F5F5"/>
<path d="M312.087 155.442C312.087 155.442 312.478 170.486 327.204 170.486C341.931 170.486 342.321 155.442 342.321 155.442H312.087Z" fill="#E6E6E6"/>
<path d="M371.821 13.5664H78.5322V139.936H371.821V13.5664Z" fill="#E6E6E6"/>
<path d="M377.854 13.5664H82.2329V139.936H377.854V13.5664Z" fill="#F0F0F0"/>
<path d="M371.747 133.084V20.4339L88.3394 20.4339V133.084H371.747Z" fill="#FAFAFA"/>
<path d="M123.128 133.075L158.969 20.425H205.953L170.112 133.075H123.128Z" fill="white"/>
<path d="M177.714 133.075L213.555 20.425H234.778L198.937 133.075H177.714Z" fill="white"/>
<path d="M261.909 133.075L297.75 20.425H333.991L298.15 133.075H261.909Z" fill="white"/>
<path d="M371.747 133.084V20.4339H370.976V133.084H371.747Z" fill="#E6E6E6"/>
<path d="M238.853 13.5664H221.232V139.936H238.853V13.5664Z" fill="#F0F0F0"/>
<path d="M221.232 133.075V20.425H220.461V133.075H221.232Z" fill="#E6E6E6"/>
<path d="M230.352 13.5664H229.735V139.936H230.352V13.5664Z" fill="#E6E6E6"/>
<path d="M226.864 338.048C324.027 338.048 402.794 333.45 402.794 327.777C402.794 322.104 324.027 317.506 226.864 317.506C129.701 317.506 50.9341 322.104 50.9341 327.777C50.9341 333.45 129.701 338.048 226.864 338.048Z" fill="#F5F5F5"/>
<path d="M202.035 123.91H182V327.778H202.035C215.421 327.778 228.676 325.142 241.043 320.019C253.41 314.896 264.647 307.388 274.113 297.922C283.578 288.457 291.087 277.22 296.209 264.853C301.332 252.486 303.969 239.23 303.969 225.844C303.969 212.458 301.332 199.203 296.209 186.836C291.087 174.469 283.578 163.232 274.113 153.766C264.647 144.301 253.41 136.792 241.043 131.67C228.676 126.547 215.421 123.91 202.035 123.91V123.91Z" fill="#4ECDC4"/>
<path opacity="0.1" d="M202.035 123.91H182V327.778H202.035C215.421 327.778 228.676 325.142 241.043 320.019C253.41 314.896 264.647 307.388 274.113 297.922C283.578 288.457 291.087 277.22 296.209 264.853C301.332 252.486 303.969 239.23 303.969 225.844C303.969 212.458 301.332 199.203 296.209 186.836C291.087 174.469 283.578 163.232 274.113 153.766C264.647 144.301 253.41 136.792 241.043 131.67C228.676 126.547 215.421 123.91 202.035 123.91V123.91Z" fill="black"/>
<path d="M135.698 132.475L135.29 131.667C142.375 128.137 149.839 125.425 157.538 123.582L157.747 124.49C150.119 126.31 142.722 128.988 135.698 132.475V132.475Z" fill="#4ECDC4"/>
<path d="M123.917 139.362L123.418 138.609C125.369 137.302 127.384 136.032 129.407 134.861L129.861 135.642C127.855 136.812 125.859 138.064 123.917 139.362Z" fill="#4ECDC4"/>
<path d="M254.077 297.921C293.885 258.113 293.885 193.572 254.077 153.765C214.269 113.957 149.729 113.957 109.921 153.765C70.1132 193.572 70.1132 258.113 109.921 297.921C149.729 337.729 214.269 337.728 254.077 297.921Z" fill="#4ECDC4"/>
<path opacity="0.1" d="M244.199 170.838C228.371 156.806 207.783 149.345 186.64 149.977C165.497 150.609 145.393 159.288 130.431 174.241C115.47 189.194 106.781 209.294 106.137 230.437C105.493 251.58 112.943 272.171 126.967 288.007C118.493 280.495 111.645 271.328 106.845 261.071C102.045 250.814 99.3947 239.683 99.0562 228.363C98.7176 217.044 100.698 205.775 104.877 195.249C109.055 184.723 115.342 175.164 123.352 167.158C131.362 159.153 140.925 152.87 151.453 148.698C161.981 144.525 173.251 142.551 184.57 142.895C195.89 143.24 207.019 145.897 217.274 150.702C227.528 155.508 236.691 162.36 244.199 170.838V170.838Z" fill="black"/>
<path d="M279.56 79.7786C284.466 79.7786 288.443 75.8624 288.443 71.0315C288.443 66.2007 284.466 62.2845 279.56 62.2845C274.654 62.2845 270.677 66.2007 270.677 71.0315C270.677 75.8624 274.654 79.7786 279.56 79.7786Z" fill="#263238"/>
<path d="M287.435 78.3807C287.447 79.3614 287.168 80.3237 286.632 81.1452C286.097 81.9668 285.329 82.6105 284.427 82.9945C283.524 83.3785 282.528 83.4856 281.564 83.302C280.601 83.1184 279.714 82.6525 279.016 81.9635C278.318 81.2745 277.841 80.3936 277.645 79.4326C277.449 78.4716 277.543 77.4741 277.915 76.5668C278.288 75.6595 278.921 74.8834 279.736 74.3371C280.55 73.7909 281.509 73.4992 282.49 73.4991C283.135 73.4943 283.775 73.6169 284.373 73.8597C284.971 74.1026 285.515 74.4609 285.975 74.9144C286.434 75.3678 286.799 75.9073 287.05 76.5021C287.3 77.0969 287.431 77.7353 287.435 78.3807V78.3807Z" fill="#263238"/>
<path d="M291.774 78.1537C296.68 78.1537 300.657 74.2375 300.657 69.4067C300.657 64.5758 296.68 60.6596 291.774 60.6596C286.868 60.6596 282.891 64.5758 282.891 69.4067C282.891 74.2375 286.868 78.1537 291.774 78.1537Z" fill="#263238"/>
<path d="M293.079 320.312L300.365 320.203L302.461 303.308L295.175 303.417L293.079 320.312Z" fill="#FF8B7B"/>
<path d="M337.431 319.922L344.018 316.075L338.737 300.495L332.159 304.342L337.431 319.922Z" fill="#FF8B7B"/>
<path d="M344.724 315.557L337.003 319.939C336.876 320.009 336.777 320.12 336.724 320.254C336.671 320.389 336.667 320.537 336.712 320.674L338.654 327.026C338.703 327.179 338.785 327.319 338.895 327.436C339.006 327.552 339.141 327.643 339.29 327.7C339.44 327.758 339.601 327.781 339.761 327.768C339.921 327.755 340.076 327.706 340.215 327.625C342.674 326.173 344.407 325.003 347.537 323.224C349.461 322.135 355.386 319.041 358.044 317.526C360.703 316.011 359.56 313.198 358.335 313.57C352.845 315.276 348.354 315.893 345.976 315.384C345.552 315.29 345.108 315.351 344.724 315.557Z" fill="#263238"/>
<path d="M300.511 319.395L292.554 319.522C292.41 319.523 292.272 319.573 292.161 319.664C292.051 319.755 291.975 319.881 291.946 320.021L290.612 326.518C290.577 326.674 290.579 326.837 290.616 326.993C290.654 327.149 290.727 327.294 290.829 327.417C290.932 327.541 291.061 327.639 291.207 327.705C291.354 327.771 291.513 327.802 291.673 327.797C294.541 327.707 298.687 327.471 302.29 327.416C306.509 327.353 310.156 327.525 315.102 327.416C318.087 327.371 318.867 324.34 317.615 324.086C311.899 322.925 307.244 322.861 302.271 319.903C301.742 319.576 301.133 319.4 300.511 319.395Z" fill="#263238"/>
<path d="M311.616 98.7675C312.632 100.9 313.73 103.205 314.846 105.391C315.962 107.578 317.105 109.819 318.285 111.979C320.55 116.25 323.09 120.369 325.889 124.31L326.406 125.027C326.488 125.136 326.488 125.145 326.479 125.163C326.252 125.057 326.01 124.986 325.762 124.954C325.363 124.909 325.072 125.045 325.108 125.081C325.302 125.048 325.485 124.971 325.644 124.854C326.398 124.334 327.087 123.725 327.694 123.04C328.456 122.212 329.171 121.343 329.836 120.436C331.26 118.566 332.558 116.498 333.892 114.392C335.226 112.287 336.46 110.092 337.666 107.959L342.766 109.946C341.39 115.149 339.426 120.177 336.913 124.936C336.217 126.186 335.454 127.398 334.627 128.566C333.682 129.914 332.565 131.134 331.306 132.195C330.469 132.895 329.534 133.467 328.529 133.892C327.136 134.483 325.609 134.683 324.11 134.473C322.594 134.219 321.174 133.561 320 132.567C319.551 132.186 319.13 131.773 318.739 131.333L318.067 130.535C316.274 128.47 314.605 126.3 313.068 124.038C311.516 121.833 310.119 119.564 308.758 117.287C307.397 115.009 306.135 112.687 304.929 110.337C303.722 107.986 302.588 105.664 301.508 103.078L311.616 98.7675Z" fill="#FF8B7B"/>
<path d="M298.549 98.7231C296.589 105.401 310.418 123.612 310.418 123.612L324.355 114.647C321.727 108.874 318.487 103.398 314.691 98.3148C308.939 90.9923 300.663 91.3916 298.549 98.7231Z" fill="#4ECDC4"/>
<path opacity="0.2" d="M307.008 106.562C309.875 107.787 314.095 114.729 316.291 119.81L310.347 123.612C307.042 119.193 304.07 114.534 301.455 109.675C303.351 107.624 305.493 105.918 307.008 106.562Z" fill="black"/>
<path d="M337.739 110.782L335.924 102.571L344.209 102.507C344.209 102.507 346.423 108.677 341.976 111.581L337.739 110.782Z" fill="#FF8B7B"/>
<path d="M336.893 94.8772L343.535 97.2636L344.234 102.508L335.949 102.572L336.893 94.8772Z" fill="#FF8B7B"/>
<path opacity="0.2" d="M302.46 303.308L301.38 312.019L294.085 312.137L295.174 303.426L302.46 303.308Z" fill="black"/>
<path opacity="0.2" d="M332.159 304.342L338.746 300.504L341.459 308.534L334.872 312.372L332.159 304.342Z" fill="black"/>
<path d="M266.039 95.7649C273.888 123.431 272.309 152.793 273.017 158.736C278.706 158.328 300.165 156.722 311.861 155.851C315.59 114.23 306.762 93.0972 306.762 93.0972C306.762 93.0972 304.267 92.6163 300.864 92.2624C299.802 92.1535 298.65 92.0628 297.452 91.9993C296.79 91.9993 296.118 91.9358 295.438 91.9267C289.914 92.021 284.401 92.43 278.924 93.1517C277.889 93.2787 276.837 93.442 275.811 93.6053C274.786 93.7687 273.942 93.9411 273.089 94.1135C269.106 94.9029 266.039 95.7649 266.039 95.7649Z" fill="#4ECDC4"/>
<path opacity="0.1" d="M293.667 120.918L287.542 123.913L280.864 121.436L279.766 110.683L292.578 110.166L293.667 120.918Z" fill="white"/>
<path opacity="0.2" d="M274.331 107.634C275.03 110.311 274.231 122.524 271.437 125.537C271.056 121.626 270.529 117.543 269.876 113.369L274.331 107.634Z" fill="black"/>
<path d="M279.179 74.4056C280.622 79.6411 282.382 89.3046 278.925 93.1246C282.028 95.7832 286.048 98.8138 292.381 98.5688C298.715 98.3239 297.281 94.032 295.439 91.8997C289.414 90.9197 289.233 86.5099 289.995 82.3088L279.179 74.4056Z" fill="#FF8B7B"/>
<path d="M278.923 91.9178C278.923 91.9178 280.574 95.8286 293.777 98.46C291.59 100.066 290.592 103.995 290.592 103.995C290.592 103.995 273.352 101.1 273.878 93.4241C274.776 92.6982 278.923 91.9178 278.923 91.9178Z" fill="white"/>
<path d="M299.457 102.534C297.853 100.812 295.926 99.4215 293.786 98.442C294.674 97.5414 295.276 96.3993 295.518 95.1583C295.76 93.9173 295.631 92.6325 295.147 91.4644C296.471 91.4213 297.796 91.4758 299.112 91.6277C299.112 91.6277 305.246 96.4005 299.457 102.534Z" fill="white"/>
<path opacity="0.4" d="M294.422 103.986C294.54 104.785 294.984 105.375 295.42 105.311C295.855 105.247 296.1 104.549 295.982 103.75C295.865 102.952 295.42 102.353 294.993 102.416C294.567 102.48 294.304 103.179 294.422 103.986Z" fill="#263238"/>
<path opacity="0.2" d="M283.578 77.6642L289.929 82.3372C289.744 83.3155 289.647 84.3085 289.639 85.3043C287.353 85.1409 284.059 82.8907 283.641 80.5406C283.444 79.5938 283.423 78.6188 283.578 77.6642V77.6642Z" fill="black"/>
<path d="M286.538 67.9009C292.12 67.9009 296.646 63.4444 296.646 57.947C296.646 52.4497 292.12 47.9932 286.538 47.9932C280.955 47.9932 276.43 52.4497 276.43 57.947C276.43 63.4444 280.955 67.9009 286.538 67.9009Z" fill="#263238"/>
<path d="M295.972 59.2259C295.944 59.2155 295.92 59.1947 295.907 59.1677C295.893 59.1407 295.891 59.1096 295.899 59.0807C296.247 57.8323 296.341 56.5272 296.178 55.2417C296.014 53.9563 295.596 52.7165 294.947 51.5949C293.629 49.3034 291.461 47.6242 288.913 46.9219C288.884 46.9147 288.859 46.8963 288.844 46.8708C288.828 46.8453 288.824 46.8147 288.831 46.7858C288.838 46.7569 288.857 46.7321 288.882 46.7168C288.908 46.7015 288.938 46.6969 288.967 46.7042C290.259 47.0546 291.469 47.6565 292.528 48.4756C293.587 49.2946 294.473 50.3145 295.137 51.4769C295.802 52.6256 296.231 53.8953 296.4 55.2118C296.568 56.5284 296.472 57.8652 296.117 59.1442C296.107 59.173 296.086 59.1971 296.06 59.2121C296.033 59.2271 296.002 59.232 295.972 59.2259V59.2259Z" fill="#263238"/>
<path d="M294.857 69.9514C299.077 69.9514 302.497 66.5836 302.497 62.4293C302.497 58.2749 299.077 54.9072 294.857 54.9072C290.638 54.9072 287.217 58.2749 287.217 62.4293C287.217 66.5836 290.638 69.9514 294.857 69.9514Z" fill="#263238"/>
<path d="M277.336 71.4835C282.242 71.4835 286.219 67.5673 286.219 62.7365C286.219 57.9056 282.242 53.9894 277.336 53.9894C272.43 53.9894 268.453 57.9056 268.453 62.7365C268.453 67.5673 272.43 71.4835 277.336 71.4835Z" fill="#263238"/>
<path d="M277.952 66.4833C278.932 73.6424 279.141 77.8889 283.042 81.3097C288.922 86.4545 297.56 82.4984 298.74 75.194C299.811 68.6156 298.032 58.0085 290.773 55.6675C289.176 55.1428 287.471 55.0356 285.821 55.3559C284.17 55.6762 282.629 56.4135 281.344 57.4975C280.059 58.5815 279.073 59.9763 278.479 61.5491C277.886 63.1219 277.704 64.8205 277.952 66.4833Z" fill="#FF8B7B"/>
<path d="M273.889 62.9188C274.633 72.9906 296.881 58.8992 292.145 53.5276C287.408 48.1559 280.14 51.9487 277.518 54.3714C274.242 57.3929 273.707 60.4508 273.889 62.9188Z" fill="#263238"/>
<path d="M291.208 53.9456C295.31 52.6934 302.314 60.0068 296.035 59.2719C289.756 58.5369 286.399 55.4246 291.208 53.9456Z" fill="#263238"/>
<path d="M275.295 74.6599C275.828 75.3867 276.499 76.0013 277.27 76.4684C278.04 76.9355 278.896 77.246 279.787 77.382C282.173 77.7268 283.053 75.5128 282.128 73.4259C281.302 71.5476 279.052 69.1068 276.783 69.7238C274.515 70.3408 273.988 72.8542 275.295 74.6599Z" fill="#FF8B7B"/>
<path d="M304.085 310.323L291.754 310.513C291.754 310.513 298.876 261.797 297.769 239.131C297.434 232.235 298.532 222.589 296.717 212.254C294.412 199.225 293.305 194.034 290.365 177.575C288.242 165.833 286.364 157.785 286.364 157.785L311.897 155.88C311.897 155.88 320.236 214.595 319.991 236.817C319.701 259.9 304.085 310.323 304.085 310.323Z" fill="#263238"/>
<path d="M276.9 63.8987C281.02 65.0874 282.907 75.0412 278.035 70.9943C273.162 66.9475 272.073 62.5104 276.9 63.8987Z" fill="#263238"/>
<path opacity="0.2" d="M296.733 212.227C297.6 217.626 297.959 223.094 297.804 228.559C299.927 234.557 301.778 240.237 303.066 245.291C305.326 254.138 308.901 267.549 312.385 280.443C316.169 265.344 319.853 247.896 319.971 236.771L296.733 212.227Z" fill="black"/>
<path d="M298.087 156.877C298.087 156.877 316.434 203.244 323.384 223.414C331.006 245.509 343.301 305.15 343.301 305.15L331.705 311.738C331.705 311.738 313.621 262.567 306.135 241.045C297.606 216.546 274.114 177.792 273.016 158.746L298.087 156.877Z" fill="#263238"/>
<path d="M344.832 304.614L331.167 312.363L328.854 308.28L343.979 299.36L344.832 304.614Z" fill="#4ECDC4"/>
<path d="M305.636 310.558L290.946 310.785L290.874 306.04L307.288 305.532L305.636 310.558Z" fill="#4ECDC4"/>
<path d="M287.543 67.682C287.588 68.2718 287.933 68.7255 288.314 68.6892C288.695 68.6529 288.967 68.1629 288.931 67.5822C288.895 67.0015 288.541 66.5478 288.16 66.575C287.779 66.6023 287.498 67.1467 287.543 67.682Z" fill="#263238"/>
<path d="M295.635 67.1923C295.635 67.7821 296.025 68.2267 296.406 68.1995C296.788 68.1723 297.069 67.6732 297.023 67.0925C296.978 66.5118 296.633 66.049 296.252 66.0762C295.871 66.1035 295.59 66.6025 295.635 67.1923Z" fill="#263238"/>
<path d="M293.55 67.6379C294.384 69.3783 295.453 70.9963 296.726 72.447C296.351 72.7574 295.914 72.9831 295.444 73.1084C294.974 73.2337 294.483 73.2557 294.003 73.1729L293.55 67.6379Z" fill="#FF5652"/>
<path d="M291.609 74.9228C290.95 74.8967 290.304 74.7349 289.711 74.4476C289.117 74.1603 288.59 73.7537 288.161 73.2532C288.144 73.2357 288.132 73.2148 288.124 73.1921C288.116 73.1693 288.112 73.1451 288.114 73.1211C288.116 73.097 288.123 73.0737 288.135 73.0525C288.146 73.0313 288.162 73.0128 288.181 72.9981C288.2 72.9834 288.222 72.9729 288.246 72.9673C288.269 72.9616 288.294 72.961 288.317 72.9654C288.341 72.9697 288.364 72.9791 288.384 72.9927C288.403 73.0063 288.42 73.024 288.433 73.0445C288.92 73.5895 289.529 74.0122 290.21 74.2786C290.891 74.545 291.625 74.6475 292.353 74.578C292.375 74.5755 292.397 74.5775 292.419 74.584C292.44 74.5905 292.46 74.6014 292.477 74.6158C292.494 74.6303 292.508 74.6481 292.518 74.6681C292.528 74.6881 292.533 74.7099 292.534 74.7322C292.537 74.7549 292.535 74.7778 292.528 74.7997C292.522 74.8216 292.511 74.842 292.497 74.8597C292.483 74.8774 292.465 74.8921 292.445 74.9029C292.425 74.9138 292.403 74.9205 292.38 74.9228C292.123 74.941 291.866 74.941 291.609 74.9228Z" fill="#263238"/>
<path d="M286.31 65.6965C286.251 65.6953 286.195 65.6763 286.147 65.642C286.109 65.6181 286.076 65.5868 286.05 65.5499C286.024 65.513 286.006 65.4713 285.997 65.4273C285.988 65.3832 285.987 65.3378 285.996 65.2937C286.005 65.2495 286.022 65.2075 286.047 65.1702C286.335 64.6983 286.733 64.3031 287.207 64.0187C287.681 63.7342 288.217 63.5689 288.769 63.5369C288.861 63.5369 288.948 63.5733 289.013 63.6379C289.078 63.7026 289.114 63.7903 289.114 63.8817C289.114 63.9732 289.078 64.0609 289.013 64.1255C288.948 64.1902 288.861 64.2265 288.769 64.2265V64.2265C288.337 64.2618 287.921 64.3996 287.553 64.6285C287.185 64.8573 286.877 65.1706 286.655 65.5422C286.619 65.5987 286.567 65.6434 286.506 65.6708C286.444 65.6982 286.376 65.7071 286.31 65.6965V65.6965Z" fill="#263238"/>
<path d="M298.324 63.5621C298.266 63.5619 298.209 63.5457 298.159 63.5153C298.11 63.4849 298.07 63.4415 298.043 63.3897C297.837 63.0081 297.542 62.6814 297.184 62.4368C296.825 62.1921 296.414 62.0366 295.983 61.9833C295.938 61.981 295.894 61.9698 295.854 61.9501C295.813 61.9305 295.777 61.903 295.748 61.8691C295.718 61.8352 295.695 61.7958 295.681 61.7531C295.667 61.7103 295.662 61.6652 295.666 61.6204C295.67 61.5305 295.71 61.4461 295.776 61.385C295.842 61.324 295.93 61.2912 296.02 61.2937C296.565 61.3553 297.087 61.5464 297.543 61.8511C297.999 62.1557 298.376 62.5651 298.642 63.0449C298.685 63.1248 298.697 63.2184 298.673 63.3063C298.649 63.3942 298.593 63.4695 298.515 63.5168C298.458 63.5528 298.391 63.5688 298.324 63.5621V63.5621Z" fill="#263238"/>
<path d="M347.449 315.476C346.873 315.782 346.264 316.02 345.634 316.184C345.602 316.194 345.567 316.194 345.535 316.184C345.503 316.174 345.474 316.155 345.452 316.13C345.435 316.101 345.425 316.068 345.425 316.034C345.425 316.001 345.435 315.968 345.452 315.939C345.607 315.667 346.94 313.217 347.839 313.217C347.939 313.216 348.038 313.241 348.126 313.291C348.214 313.34 348.287 313.412 348.338 313.498C348.44 313.636 348.506 313.797 348.529 313.966C348.553 314.136 348.534 314.309 348.474 314.469C348.255 314.91 347.894 315.265 347.449 315.476V315.476ZM345.979 315.73C347.176 315.331 347.984 314.823 348.165 314.342C348.205 314.232 348.216 314.113 348.197 313.997C348.178 313.881 348.13 313.772 348.056 313.68C347.984 313.571 347.92 313.553 347.866 313.553C347.394 313.58 346.541 314.778 345.979 315.767V315.73Z" fill="#4ECDC4"/>
<path d="M345.732 316.175H345.641C345.61 316.173 345.581 316.163 345.555 316.145C345.53 316.128 345.509 316.103 345.496 316.075C345.496 315.994 344.589 314.079 344.97 313.063C345.012 312.938 345.081 312.824 345.172 312.728C345.263 312.632 345.374 312.558 345.496 312.509C345.609 312.446 345.739 312.423 345.866 312.445C345.994 312.466 346.11 312.531 346.195 312.627C346.73 313.262 346.249 315.349 345.796 316.093C345.785 316.128 345.763 316.157 345.732 316.175V316.175ZM345.56 312.881C345.495 312.915 345.438 312.961 345.391 313.018C345.344 313.074 345.309 313.138 345.288 313.208C345.167 314.03 345.299 314.869 345.669 315.613C346.041 314.751 346.249 313.244 345.932 312.89C345.932 312.89 345.841 312.772 345.632 312.89L345.56 312.881Z" fill="#4ECDC4"/>
<path d="M301.271 320.358C301.24 320.347 301.213 320.328 301.192 320.302C301.171 320.277 301.158 320.246 301.153 320.213C301.146 320.179 301.151 320.142 301.168 320.111C301.184 320.08 301.211 320.055 301.244 320.041C301.57 319.859 304.474 318.335 305.363 318.807C305.447 318.853 305.517 318.92 305.568 319.001C305.619 319.082 305.648 319.174 305.653 319.27V319.27C305.675 319.425 305.658 319.583 305.604 319.73C305.55 319.877 305.461 320.009 305.345 320.114C304.556 320.83 302.469 320.576 301.289 320.358H301.271ZM305.136 319.088C304.583 318.907 303.013 319.533 301.861 320.104C303.476 320.349 304.674 320.259 305.118 319.859C305.194 319.789 305.251 319.7 305.284 319.602C305.318 319.504 305.326 319.399 305.309 319.297C305.312 319.259 305.303 319.221 305.283 319.189C305.264 319.156 305.235 319.13 305.2 319.115L305.136 319.088Z" fill="#4ECDC4"/>
<path d="M301.269 320.356H301.224C301.198 320.341 301.177 320.318 301.165 320.29C301.152 320.263 301.147 320.232 301.152 320.202C301.152 320.12 301.324 318.151 302.231 317.38C302.36 317.265 302.511 317.179 302.675 317.126C302.839 317.073 303.013 317.054 303.184 317.072C303.665 317.072 303.801 317.344 303.837 317.543C303.983 318.36 302.268 319.966 301.397 320.374C301.353 320.382 301.309 320.376 301.269 320.356V320.356ZM303.338 317.416H303.157C303.03 317.405 302.903 317.42 302.782 317.46C302.662 317.501 302.552 317.566 302.458 317.652C301.93 318.294 301.614 319.083 301.551 319.912C302.458 319.358 303.601 318.097 303.52 317.607C303.513 317.556 303.489 317.508 303.451 317.473C303.412 317.438 303.363 317.418 303.311 317.416H303.338Z" fill="#4ECDC4"/>
<path d="M274.051 105.258C272 109.486 269.931 113.832 267.926 118.133C266.919 120.293 265.921 122.443 264.977 124.603C264.033 126.762 263.09 128.922 262.2 131.081C261.783 132.161 261.293 133.241 260.939 134.303L260.358 135.89C260.283 136.028 260.225 136.174 260.186 136.326C260.093 136.783 260.141 137.257 260.322 137.687C260.612 138.436 261 139.144 261.474 139.792C263.688 142.841 267.545 145.817 271.201 148.367L269.015 153.348C267.752 152.983 266.51 152.55 265.294 152.051C264.08 151.563 262.893 151.012 261.738 150.399C259.249 149.141 256.96 147.523 254.941 145.599C253.768 144.47 252.769 143.173 251.974 141.752C251.01 140.025 250.489 138.086 250.459 136.108C250.445 135.048 250.58 133.991 250.858 132.969L251.394 131.099C251.738 129.856 252.138 128.677 252.519 127.47C254.134 122.706 255.949 118.106 257.899 113.578C259.85 109.05 261.946 104.65 264.251 100.222L274.051 105.258Z" fill="#FF8B7B"/>
<path d="M266.047 95.7644C259.396 97.8514 252.863 120.381 252.863 120.381L268.234 127.105C268.234 127.105 273.215 116.217 276.073 107.687C279.186 98.3867 274.095 93.242 266.047 95.7644Z" fill="#4ECDC4"/>
<path d="M268.607 147.757L275.975 148.483L272.98 156.65C272.98 156.65 266.357 155.18 266.438 151.568L268.607 147.757Z" fill="#FF8B7B"/>
<path d="M282.326 152.15L278.433 158.901L272.926 156.687L275.929 148.485L282.326 152.15Z" fill="#FF8B7B"/>
<path d="M288.122 71.258C287.128 71.2652 286.154 70.9771 285.324 70.4301C284.494 69.8831 283.846 69.102 283.46 68.1858C283.075 67.2696 282.97 66.2595 283.16 65.2838C283.349 64.3081 283.824 63.4106 284.525 62.7052C285.225 61.9999 286.119 61.5183 287.093 61.3218C288.068 61.1252 289.078 61.2224 289.997 61.6011C290.916 61.9798 291.702 62.6229 292.255 63.4488C292.808 64.2748 293.103 65.2463 293.103 66.2403C293.101 67.5641 292.577 68.8335 291.644 69.773C290.711 70.7125 289.446 71.2461 288.122 71.258ZM288.122 61.6762C287.225 61.6762 286.347 61.9423 285.601 62.4408C284.855 62.9393 284.274 63.6479 283.93 64.4769C283.587 65.3059 283.497 66.2181 283.672 67.0982C283.847 67.9782 284.279 68.7866 284.914 69.4211C285.548 70.0556 286.357 70.4877 287.237 70.6627C288.117 70.8378 289.029 70.7479 289.858 70.4046C290.687 70.0612 291.396 69.4797 291.894 68.7336C292.393 67.9875 292.659 67.1104 292.659 66.2131C292.652 65.0145 292.17 63.8676 291.32 63.0226C290.47 62.1777 289.32 61.7034 288.122 61.7034V61.6762Z" fill="white"/>
<path d="M299.031 71.2582C298.039 71.2582 297.069 70.9639 296.244 70.4125C295.419 69.8612 294.775 69.0775 294.396 68.1606C294.016 67.2438 293.916 66.2349 294.11 65.2615C294.304 64.2882 294.782 63.3941 295.483 62.6923C296.185 61.9906 297.079 61.5127 298.052 61.3191C299.026 61.1255 300.035 61.2248 300.952 61.6046C301.869 61.9844 302.652 62.6275 303.204 63.4527C303.755 64.2779 304.049 65.248 304.049 66.2404C304.047 67.5705 303.517 68.8454 302.577 69.7859C301.636 70.7263 300.361 71.2558 299.031 71.2582V71.2582ZM299.031 61.6764C298.134 61.6764 297.257 61.9424 296.511 62.4409C295.765 62.9395 295.183 63.648 294.84 64.477C294.497 65.306 294.407 66.2182 294.582 67.0983C294.757 67.9784 295.189 68.7867 295.823 69.4212C296.458 70.0557 297.266 70.4878 298.146 70.6629C299.026 70.8379 299.939 70.7481 300.768 70.4047C301.597 70.0613 302.305 69.4798 302.804 68.7337C303.302 67.9877 303.568 67.1105 303.568 66.2132C303.561 65.0147 303.08 63.8677 302.23 63.0227C301.38 62.1778 300.23 61.7036 299.031 61.7036V61.6764Z" fill="white"/>
<path d="M181.74 258.001L182.011 232.858C174.356 230.103 168.757 226.334 165.213 221.55C161.663 216.612 159.84 210.655 160.06 204.704C159.961 198.582 162.204 192.795 166.31 188.578C170.613 184.309 176.417 181.944 182.572 181.952L182.633 175.891L191.151 176.459L191.073 182.531C196.59 183.344 201.792 185.985 205.874 190.043C209.659 194.178 212.087 199.394 212.788 204.895L197.91 205.881C197.658 203.776 196.884 201.743 195.664 199.977C194.444 198.211 192.817 196.771 190.941 195.795L190.714 219.266C200.086 222.509 206.454 226.313 209.817 230.676C213.297 235.421 215.053 241.201 214.762 246.951C214.884 253.68 212.521 260.067 208.145 264.836C203.413 269.682 197.024 272.5 190.169 272.767L190.108 278.827L181.59 278.259L181.646 272.481C175.446 271.496 169.648 268.37 165.226 263.63C160.707 258.273 157.925 251.656 157.294 244.768L172.657 244.121C173.164 247.156 174.339 250.069 176.092 252.637C177.563 254.83 179.498 256.667 181.74 258.001ZM182.379 194.978C180.152 195.545 178.197 196.831 176.795 198.652C175.433 200.398 174.689 202.584 174.676 204.878C174.665 207 175.303 209.109 176.501 210.91C177.908 213.007 179.84 214.689 182.077 215.766L182.379 194.978ZM190.254 259.432C193.02 259.134 195.542 257.842 197.378 255.782C199.229 253.728 200.244 251.01 200.231 248.138C200.298 245.623 199.492 243.116 197.956 241.06C195.938 238.684 193.301 236.947 190.388 236.073L190.254 259.432Z" fill="#F9F9F9"/>
</svg>
