<svg width="392" height="364" viewBox="0 0 392 364" fill="none" xmlns="http://www.w3.org/2000/svg">
<path d="M57.3957 336.641C133.929 373.114 258.008 373.125 334.541 336.641C411.074 300.157 411.063 241.028 334.541 204.555C258.019 168.082 133.929 168.082 57.3957 204.555C-19.1374 241.028 -19.1263 300.168 57.3957 336.641Z" fill="#F5F5F5"/>
<path d="M334.275 309.687C348.37 309.687 359.797 304.242 359.797 297.525C359.797 290.809 348.37 285.364 334.275 285.364C320.179 285.364 308.752 290.809 308.752 297.525C308.752 304.242 320.179 309.687 334.275 309.687Z" fill="#EBEBEB"/>
<path d="M51.5884 299.269L60.6178 294.06C65.6591 289.946 69.4962 284.547 71.724 278.434C74.5117 270.748 74.1229 264.906 72.1238 261.974C69.6693 258.365 63.3055 258.998 63.05 266.595C62.5169 281.566 58.1522 291.95 51.5884 299.269Z" fill="#4ECDC4"/>
<path opacity="0.2" d="M51.5884 299.269L60.6178 294.06C65.6591 289.946 69.4962 284.547 71.724 278.434C74.5117 270.748 74.1229 264.906 72.1238 261.974C69.6693 258.365 63.3055 258.998 63.05 266.595C62.5169 281.566 58.1522 291.95 51.5884 299.269Z" fill="black"/>
<path d="M51.5895 299.824C51.4719 299.823 51.3578 299.784 51.2637 299.713C51.1695 299.643 51.1002 299.544 51.0656 299.432C51.031 299.32 51.033 299.199 51.0713 299.088C51.1095 298.977 51.1821 298.881 51.2785 298.813C72.1583 284.375 68.1156 264.24 68.0712 264.04C68.0559 263.967 68.0551 263.892 68.0688 263.818C68.0826 263.745 68.1106 263.675 68.1514 263.613C68.1921 263.551 68.2447 263.497 68.3062 263.455C68.3678 263.413 68.437 263.383 68.5099 263.368C68.5828 263.353 68.658 263.352 68.7313 263.365C68.8045 263.379 68.8743 263.407 68.9367 263.448C68.9991 263.489 69.0529 263.541 69.0949 263.603C69.137 263.664 69.1665 263.734 69.1818 263.807C69.1818 264.018 73.4466 284.842 51.9449 299.724C51.8406 299.795 51.7157 299.831 51.5895 299.824Z" fill="white"/>
<path d="M33.4967 309.72C33.4967 309.72 30.3537 307.165 31.1089 303.7C31.8641 300.235 33.8966 297.747 30.4203 293.283C26.9441 288.818 25.9778 282.865 30.1315 279.644C33.2968 277.145 38.2391 280.677 40.0161 274.091C41.3266 269.271 40.8824 258.598 47.0241 255.044C53.1659 251.49 57.0198 256.843 56.0535 264.084C55.2094 270.559 54.01 276.79 54.9429 278.522C56.7421 281.854 59.8185 281.399 59.6741 287.485C59.552 293.149 54.1877 297.836 54.1877 297.836L33.4967 309.72Z" fill="#4ECDC4"/>
<path d="M43.8153 304.289C43.6796 304.288 43.5488 304.238 43.4469 304.148C43.345 304.059 43.2787 303.935 43.26 303.801C41.6718 290.64 45.4813 267.917 48.591 261.164C48.6172 261.089 48.6591 261.021 48.714 260.963C48.7688 260.906 48.8353 260.861 48.909 260.832C48.9827 260.802 49.0618 260.789 49.141 260.792C49.2203 260.796 49.2978 260.817 49.3685 260.853C49.4348 260.883 49.4944 260.926 49.5439 260.979C49.5933 261.032 49.6316 261.095 49.6565 261.163C49.6813 261.232 49.6922 261.304 49.6885 261.377C49.6848 261.449 49.6666 261.521 49.635 261.586C46.5586 268.25 42.8824 291.04 44.404 303.623C44.4196 303.769 44.377 303.915 44.2854 304.029C44.1939 304.144 44.0609 304.217 43.9153 304.234L43.8153 304.289Z" fill="white"/>
<path d="M43.5147 294.038C43.4297 294.042 43.3452 294.023 43.2703 293.982C39.4165 292.105 36.9731 285.408 36.8731 285.097C36.8459 285.028 36.8328 284.954 36.8346 284.88C36.8365 284.806 36.8531 284.733 36.8837 284.665C36.9142 284.597 36.9581 284.537 37.0126 284.486C37.067 284.436 37.1311 284.397 37.2009 284.371C37.2707 284.346 37.3449 284.335 37.419 284.339C37.4932 284.343 37.5658 284.362 37.6326 284.394C37.6993 284.427 37.7589 284.472 37.8078 284.528C37.8567 284.584 37.8939 284.649 37.9171 284.72C37.9171 284.786 40.305 291.272 43.759 292.949C43.8723 293.004 43.9636 293.096 44.0179 293.21C44.0722 293.323 44.0864 293.452 44.0579 293.574C44.0295 293.697 43.9603 293.806 43.8616 293.885C43.7629 293.963 43.6406 294.005 43.5147 294.004V294.038Z" fill="white"/>
<path d="M43.4477 298.48C43.3364 298.48 43.2278 298.446 43.1365 298.383C43.0451 298.319 42.9754 298.229 42.9368 298.125C42.8816 297.989 42.8821 297.837 42.9382 297.702C42.9944 297.567 43.1017 297.459 43.2367 297.403C49.7228 294.804 53.7654 287.085 53.8098 286.996C53.8776 286.865 53.9946 286.766 54.1352 286.722C54.2758 286.677 54.4284 286.69 54.5595 286.758C54.6906 286.825 54.7894 286.942 54.8342 287.083C54.879 287.224 54.8661 287.376 54.7983 287.507C54.6206 287.84 50.5224 295.681 43.6921 298.436C43.616 298.472 43.5317 298.487 43.4477 298.48Z" fill="white"/>
<path d="M270.16 238.729C270.16 238.729 265.306 230.866 264.829 222.325C264.351 213.784 266.228 210.23 268.805 209.208C271.382 208.187 271.581 211.33 272.903 213.185C274.225 215.039 276.924 213.984 277.923 208.198C278.923 202.411 282.566 192.649 290.14 190.75C298.47 188.684 294.005 198.458 291.906 202.267C289.807 206.077 288.185 211.274 289.562 212.685C290.94 214.095 293.083 211.485 295.116 213.906C297.592 216.827 289.896 227.345 285.475 229.888L270.16 238.729Z" fill="#4ECDC4"/>
<path d="M276.812 235.43C276.739 235.427 276.667 235.41 276.601 235.379C276.535 235.349 276.475 235.305 276.426 235.252C276.376 235.198 276.338 235.135 276.312 235.067C276.287 234.998 276.276 234.925 276.279 234.852C277.031 221.114 281.315 207.801 288.718 196.203C288.76 196.142 288.813 196.091 288.876 196.052C288.938 196.013 289.008 195.987 289.08 195.975C289.153 195.964 289.227 195.967 289.299 195.986C289.37 196.004 289.437 196.036 289.495 196.081C289.612 196.167 289.69 196.296 289.712 196.439C289.735 196.582 289.701 196.729 289.617 196.847C282.347 208.276 278.14 221.383 277.401 234.908C277.396 234.981 277.378 235.052 277.346 235.118C277.314 235.184 277.269 235.243 277.215 235.291C277.16 235.34 277.096 235.377 277.027 235.401C276.958 235.425 276.885 235.435 276.812 235.43Z" fill="white"/>
<path d="M277.445 228.866C277.353 228.866 277.261 228.843 277.179 228.8C274.069 227.078 272.348 221.969 272.281 221.758C272.257 221.689 272.246 221.616 272.25 221.542C272.254 221.469 272.273 221.397 272.305 221.331C272.337 221.265 272.382 221.206 272.437 221.157C272.492 221.109 272.556 221.071 272.625 221.048C272.765 221.002 272.918 221.014 273.049 221.081C273.18 221.147 273.279 221.263 273.325 221.403C273.325 221.403 274.991 226.323 277.768 227.822C277.893 227.897 277.986 228.017 278.025 228.158C278.064 228.298 278.048 228.449 277.979 228.578C277.928 228.673 277.851 228.752 277.756 228.803C277.661 228.855 277.553 228.877 277.445 228.866Z" fill="white"/>
<path d="M277.99 225.501C277.867 225.5 277.747 225.458 277.651 225.381C277.554 225.305 277.486 225.199 277.457 225.079C277.438 225.009 277.434 224.936 277.445 224.865C277.455 224.793 277.479 224.724 277.517 224.662C277.554 224.6 277.603 224.546 277.661 224.503C277.72 224.461 277.786 224.43 277.856 224.413C285.875 222.38 288.652 218.182 288.674 218.138C288.713 218.076 288.764 218.022 288.825 217.98C288.885 217.938 288.952 217.908 289.024 217.892C289.096 217.876 289.17 217.874 289.242 217.887C289.315 217.9 289.384 217.926 289.446 217.966C289.508 218.005 289.561 218.056 289.604 218.116C289.646 218.177 289.676 218.244 289.692 218.316C289.708 218.388 289.709 218.462 289.697 218.534C289.684 218.607 289.657 218.676 289.618 218.738C289.496 218.926 286.608 223.336 278.134 225.49L277.99 225.501Z" fill="white"/>
<path d="M149.324 221.47C149.324 221.47 138.673 218.871 138.118 198.924C137.529 177.4 140.728 152.278 128.122 150.245C115.517 148.213 108.52 163.573 108.675 181.509C108.82 197.214 115.15 231.31 149.28 237.996L149.324 221.47Z" fill="#4ECDC4"/>
<path opacity="0.2" d="M149.324 221.47C149.324 221.47 138.673 218.871 138.118 198.924C137.529 177.4 140.728 152.278 128.122 150.245C115.517 148.213 108.52 163.573 108.675 181.509C108.82 197.214 115.15 231.31 149.28 237.996L149.324 221.47Z" fill="black"/>
<path d="M149.324 235.952H149.224C141.55 234.553 135.297 230.321 130.643 223.391C116.849 202.811 121.192 164.383 122.625 157.675C122.657 157.532 122.743 157.407 122.865 157.327C122.987 157.246 123.136 157.216 123.28 157.242C123.424 157.277 123.549 157.365 123.629 157.489C123.71 157.613 123.74 157.763 123.713 157.909C122.303 164.572 117.982 202.511 131.565 222.769C133.542 225.91 136.151 228.607 139.225 230.687C142.299 232.767 145.772 234.186 149.424 234.853C149.496 234.866 149.566 234.893 149.627 234.934C149.689 234.974 149.742 235.026 149.783 235.087C149.825 235.148 149.854 235.217 149.868 235.289C149.883 235.361 149.883 235.436 149.868 235.508C149.845 235.634 149.777 235.748 149.677 235.83C149.578 235.911 149.453 235.954 149.324 235.952Z" fill="white"/>
<path d="M149.324 287.141C138.318 288.63 120.448 288.607 110.13 280.478C99.8123 272.348 101.967 265.351 105.932 262.43C109.897 259.509 113.34 256.177 106.52 249.691C99.7012 243.205 88.7505 232.787 85.1965 217.161C81.6425 201.534 83.3973 191.761 90.372 188.507C97.1357 185.353 98.9238 190.373 103.066 200.724C107.209 211.075 116.527 202.201 124.501 205.433C132.476 208.665 132.154 215.062 132.653 220.559C133.153 226.057 135.785 227.579 140.306 227.579C144.826 227.579 149.324 230.177 149.324 235.353V287.141Z" fill="#4ECDC4"/>
<path d="M149.323 268.993C149.276 269.003 149.226 269.003 149.179 268.993C148.701 268.86 137.317 265.55 120.736 250.323C103.077 234.108 94.7472 209.786 94.6583 209.541C94.6157 209.401 94.629 209.25 94.6952 209.12C94.7615 208.989 94.8756 208.89 95.0137 208.842C95.1522 208.795 95.3032 208.806 95.4342 208.87C95.5651 208.935 95.6654 209.048 95.7134 209.186C95.7911 209.43 104.043 233.486 121.491 249.501C137.839 264.528 149.357 267.893 149.479 267.927C149.549 267.947 149.614 267.981 149.671 268.027C149.728 268.072 149.775 268.129 149.81 268.193C149.845 268.257 149.867 268.327 149.875 268.399C149.883 268.472 149.877 268.545 149.856 268.615C149.82 268.727 149.749 268.825 149.653 268.893C149.557 268.961 149.441 268.996 149.323 268.993Z" fill="white"/>
<path d="M125.368 254.189C125.256 254.19 125.147 254.157 125.055 254.093C124.963 254.029 124.894 253.939 124.857 253.833C121.292 244.682 120.481 225.101 120.414 224.268C120.411 224.122 120.465 223.98 120.565 223.872C120.664 223.764 120.801 223.7 120.948 223.691C121.093 223.693 121.232 223.749 121.338 223.847C121.445 223.945 121.511 224.08 121.525 224.224C121.525 224.424 122.358 244.448 125.856 253.433C125.883 253.502 125.896 253.575 125.894 253.649C125.893 253.722 125.876 253.795 125.846 253.862C125.816 253.929 125.773 253.989 125.72 254.04C125.666 254.09 125.603 254.129 125.534 254.155C125.481 254.175 125.425 254.186 125.368 254.189Z" fill="white"/>
<path d="M125.279 267.35C124.255 267.358 123.231 267.306 122.214 267.194C122.141 267.186 122.07 267.163 122.006 267.127C121.942 267.091 121.886 267.042 121.84 266.985C121.795 266.927 121.762 266.861 121.742 266.79C121.722 266.719 121.716 266.645 121.725 266.572C121.734 266.499 121.757 266.429 121.793 266.365C121.829 266.301 121.877 266.245 121.935 266.199C121.992 266.154 122.059 266.12 122.129 266.1C122.2 266.081 122.274 266.075 122.347 266.084C122.447 266.084 132.787 267.261 137.529 262.43C137.578 262.371 137.639 262.324 137.708 262.29C137.777 262.256 137.852 262.237 137.928 262.233C138.004 262.23 138.081 262.242 138.152 262.27C138.224 262.297 138.289 262.339 138.343 262.393C138.398 262.446 138.44 262.511 138.469 262.582C138.497 262.653 138.511 262.729 138.508 262.806C138.506 262.882 138.488 262.957 138.455 263.026C138.422 263.095 138.375 263.157 138.318 263.207C134.886 266.75 128.9 267.35 125.279 267.35Z" fill="white"/>
<path d="M117.279 57.0418L116.08 50.1226L109.905 54.1875C109.34 53.0769 108.541 52.1028 107.561 51.3332L110.516 43.3367L104.962 42.1039L100.898 49.8782C99.4269 50.1263 98.001 50.5904 96.6661 51.2554L94.9002 45.3913L88.3031 50.5779L88.7362 57.4638C87.3928 58.9687 86.1744 60.5808 85.0934 62.2839L79.6513 62.0063L75.8308 70.5692L80.5065 72.5683C80.0183 74.3395 79.7095 76.1552 79.5847 77.9881L73.6428 83.4524L74.8312 90.3827L81.0174 86.3178C81.5784 87.4274 82.3788 88.3985 83.3608 89.161L80.4621 97.1686L86.0152 98.3903L91.8348 92.7261C93.1787 92.5151 92.8455 89.9829 94.3115 89.261L96.0774 95.1028L102.663 89.9273L102.497 87.2174C103.83 85.7292 108.872 82.4528 109.96 80.7425L111.326 78.5212L115.147 69.9583L113.37 66.7375L111.393 62.5394L117.279 57.0418ZM97.1214 79.8207C92.057 83.7967 90.4577 84.6741 89.6025 79.3542C88.7473 74.0343 91.646 65.949 96.7105 61.9618C101.775 57.9747 103.707 57.697 104.618 63.0058C105.529 68.3146 102.197 75.8891 97.1214 79.8207Z" fill="#E0E0E0"/>
<path d="M105.007 42.1039L112.215 46.2576L108.15 54.0098L100.942 49.856L105.007 42.1039Z" fill="#F5F5F5"/>
<path d="M123.289 54.2757L117.114 58.3406L109.906 54.1868L116.081 50.1219L123.289 54.2757Z" fill="#F5F5F5"/>
<path d="M122.301 74.0783L117.625 72.0902L110.417 67.9365L115.093 69.9245L122.301 74.0783Z" fill="#E0E0E0"/>
<path d="M80.4514 97.1682L87.6594 101.311L90.6136 93.3144L83.4057 89.1606L80.4514 97.1682Z" fill="#E0E0E0"/>
<path d="M103.22 99.2566L96.0232 95.1029L94.2573 89.261L101.465 93.4147L103.22 99.2566Z" fill="#E0E0E0"/>
<path d="M124.478 61.1953L123.29 54.2762L117.115 58.341C116.546 57.23 115.743 56.256 114.76 55.4867L117.714 47.4902L112.217 46.2574L108.141 54.0318C106.67 54.2799 105.244 54.744 103.909 55.409L102.155 49.5671L95.5574 54.7537L95.9906 61.6396C94.6457 63.1551 93.4273 64.7783 92.3477 66.493L86.8946 66.2154L83.074 74.7783L87.7498 76.7774C87.2661 78.5533 86.9573 80.3723 86.8279 82.2083L80.8972 87.5949L82.0856 94.5252L88.2607 90.4603C88.8291 91.5681 89.6327 92.5385 90.6152 93.3035L87.6609 101.3L93.214 102.533L97.2789 94.7584C98.7552 94.5131 100.186 94.045 101.522 93.3701L103.276 99.212L109.873 94.0365L109.44 87.1506C110.784 85.6457 112.002 84.0337 113.083 82.3305L118.536 82.5971L122.357 74.0341L117.614 72.0461C118.106 70.2715 118.419 68.4521 118.547 66.6152L124.478 61.1953ZM104.342 84.0187C99.2892 87.9947 94.4468 86.9174 93.525 81.6086C92.6032 76.2998 95.9684 68.7587 101.033 64.7827C106.097 60.8066 110.928 61.895 111.85 67.2038C112.772 72.5126 109.407 80.0426 104.342 84.0187Z" fill="#EBEBEB"/>
<path d="M102.155 49.5452L94.9467 45.3915L88.3496 50.5781L95.5575 54.7318L102.155 49.5452Z" fill="#F5F5F5"/>
<path d="M88.3496 50.5778L88.7828 57.4636L95.9907 61.6174L95.5575 54.7315L88.3496 50.5778Z" fill="#E0E0E0"/>
<path d="M92.3473 66.4377L85.1393 62.284L79.6973 62.0175L86.8941 66.1712L92.3473 66.4377Z" fill="#F5F5F5"/>
<path d="M79.697 62.0175L75.8765 70.5693L83.0733 74.723L86.8939 66.1712L79.697 62.0175Z" fill="#E0E0E0"/>
<path d="M86.8267 82.1418L79.6298 77.988L73.688 83.4523L80.8848 87.606L86.8267 82.1418Z" fill="#F5F5F5"/>
<path d="M82.0843 94.5363L74.8764 90.3826L73.688 83.4523L80.8848 87.606L82.0843 94.5363Z" fill="#E0E0E0"/>
<path d="M112.216 46.2576L105.008 42.1039L110.517 43.3367L117.714 47.4904L112.216 46.2576Z" fill="#F5F5F5"/>
<path d="M85.0054 25.6332V15.2933L76.7757 19.0028C76.3398 17.2485 75.587 15.5886 74.5544 14.1049L79.7411 3.65395L73.4105 0L66.9467 9.71796C65.1453 9.56059 63.3304 9.73756 61.5934 10.24L60.6827 1.25501L51.7311 6.43051L50.8315 16.4261C48.8833 18.1524 47.0919 20.0479 45.4783 22.0903L39.0145 19.8691L32.6839 30.842L37.8594 35.2845C36.9031 37.7029 36.1599 40.2002 35.6382 42.7479L27.4084 48.5343V58.8853L35.6382 55.1758C36.0741 56.9301 36.8268 58.59 37.8594 60.0737L32.7061 70.5357L39.0367 74.1897L45.5005 64.4717C47.3018 64.6286 49.1166 64.4516 50.8537 63.9497L51.7533 72.9347L60.705 67.7592L61.6157 57.7636C64.4096 56.7442 66.8847 55.0047 68.7903 52.7213L73.4327 54.3539L79.7633 43.3921L75.8761 40.0602C76.7199 37.2818 77.0326 34.3693 76.7979 31.4751L85.0054 25.6332ZM56.2069 51.4663C49.3433 55.4312 45.1007 52.5769 45.1007 44.6804C45.1007 36.7839 50.776 27.0215 57.6507 23.0566C64.5255 19.0916 68.6792 21.9459 68.6792 29.9091C68.6792 37.8723 63.0817 47.4903 56.2069 51.4663Z" fill="#E0E0E0"/>
<path d="M80.607 4.14263L73.4101 0L66.9463 9.71796L74.1431 13.8717L80.607 4.14263Z" fill="#F5F5F5"/>
<path d="M92.2128 19.4471L85.0049 15.2933L76.7751 19.0028L83.9831 23.1566L92.2128 19.4471Z" fill="#F5F5F5"/>
<path d="M58.9277 77.0884L51.7309 72.9347L50.8313 63.9497L58.0281 68.1034L58.9277 77.0884Z" fill="#E0E0E0"/>
<path d="M32.6733 70.5362L39.8813 74.6899L45.0679 64.2389L37.86 60.0852L32.6733 70.5362Z" fill="#E0E0E0"/>
<path d="M92.2134 29.8421V19.5021L83.9837 23.1783C83.5524 21.4224 82.7992 19.7618 81.7624 18.2805L86.9491 7.82949L80.6185 4.16443L74.1547 13.8935C72.3533 13.7307 70.5374 13.9077 68.8015 14.4155L67.8907 5.40833L58.9391 10.5838L58.0284 20.5795C56.083 22.3086 54.2919 24.2038 52.6752 26.2436L46.2114 24.0224L39.8808 34.9953L45.0674 39.4378C44.1061 41.8545 43.3627 44.3522 42.8462 46.9012L34.6165 52.6876V63.0386L42.8462 59.3291C43.2773 61.0851 44.0304 62.7458 45.0674 64.227L39.8808 74.6779L46.2114 78.3319L52.6752 68.6139C54.4765 68.7713 56.2914 68.5943 58.0284 68.0919L58.9391 77.0769L67.8907 71.9014L68.7904 61.9058C70.7385 60.1795 72.5299 58.284 74.1436 56.2416L80.6074 58.4628L86.938 47.501L81.7513 43.0585C82.7124 40.6418 83.4558 38.144 83.9726 35.5951L92.2134 29.8421ZM63.4149 55.6752C56.5402 59.6401 50.9648 56.4193 50.9648 48.4894C50.9648 40.5596 56.518 30.9083 63.4149 26.9322C70.3119 22.9562 75.8539 26.1881 75.8539 34.118C75.8539 42.0478 70.2786 51.6436 63.4149 55.6196V55.6752Z" fill="#EBEBEB"/>
<path d="M45.479 22.1127L52.6758 26.2665L46.212 24.0119L39.0151 19.847L45.479 22.1127Z" fill="#F0F0F0"/>
<path d="M39.0132 19.8579L32.6809 30.8346L39.8865 34.9914L46.2187 24.0147L39.0132 19.8579Z" fill="#F5F5F5"/>
<path d="M32.6733 30.8201L39.8813 34.9738L45.0679 39.4385L37.86 35.2959L32.6733 30.8201Z" fill="#E0E0E0"/>
<path d="M35.6379 42.7593L42.8459 46.913L34.6161 52.6994L27.4082 48.5456L35.6379 42.7593Z" fill="#F5F5F5"/>
<path d="M27.4082 48.5452L34.6162 52.6989V63.0499L27.4082 58.8962V48.5452Z" fill="#E0E0E0"/>
<path d="M67.8905 5.40886L60.6826 1.25513L51.731 6.43063L58.9278 10.5844L67.8905 5.40886Z" fill="#F5F5F5"/>
<path d="M160.295 302.001L264.693 241.717C264.923 241.636 265.123 241.486 265.264 241.287C265.405 241.088 265.48 240.85 265.48 240.606C265.48 240.362 265.405 240.124 265.264 239.926C265.123 239.727 264.923 239.576 264.693 239.495L255.042 233.942C254.444 233.642 253.784 233.485 253.115 233.485C252.446 233.485 251.786 233.642 251.188 233.942L146.756 294.171C146.526 294.252 146.327 294.403 146.186 294.602C146.045 294.8 145.969 295.038 145.969 295.282C145.969 295.526 146.045 295.764 146.186 295.963C146.327 296.162 146.526 296.312 146.756 296.393L156.441 301.946C157.034 302.255 157.692 302.421 158.361 302.431C159.03 302.441 159.693 302.294 160.295 302.001Z" fill="#E0E0E0"/>
<path d="M261.829 8.96246L167.692 63.3164C166.293 64.2297 165.128 65.4597 164.293 66.9068C163.457 68.354 162.974 69.9776 162.883 71.6461V294.959C162.883 298.025 165.038 299.268 167.692 297.736L261.829 243.382C263.23 242.471 264.396 241.241 265.231 239.793C266.067 238.346 266.549 236.721 266.638 235.052V11.739C266.638 8.6737 264.494 7.4298 261.829 8.96246Z" fill="#455A64"/>
<path d="M167.692 63.3169L261.828 8.96298C264.205 7.58581 266.171 8.44099 266.571 10.8288C266.348 9.32754 265.811 7.89028 264.994 6.61157C264.176 5.33287 263.097 4.2417 261.828 3.40986L257.919 1.18861C256.428 0.432501 254.781 0.0384521 253.11 0.0384521C251.439 0.0384521 249.791 0.432501 248.301 1.18861L154.153 55.4981C152.735 56.3873 151.566 57.6215 150.755 59.0854L164.293 66.8598C165.104 65.4074 166.274 64.1876 167.692 63.3169Z" fill="#37474F"/>
<path d="M149.321 287.141C149.412 288.81 149.895 290.433 150.731 291.88C151.566 293.328 152.731 294.558 154.13 295.471L158.051 297.692C159.408 298.371 160.893 298.755 162.409 298.821C163.924 298.886 165.437 298.63 166.847 298.07C164.626 298.936 162.86 297.659 162.86 294.916V71.6469C162.915 69.9713 163.401 68.3381 164.27 66.9045L150.732 59.1301C149.875 60.5529 149.39 62.1685 149.321 63.8281V287.141Z" fill="#263238"/>
<path d="M170.279 93.0706L259.273 41.7043C260.873 40.7936 262.161 41.5377 262.161 43.3702V208.653C262.108 209.655 261.818 210.63 261.316 211.498C260.815 212.367 260.115 213.105 259.273 213.651L170.312 265.017C168.713 265.939 167.425 265.195 167.425 263.351V98.0684C167.475 97.0699 167.76 96.0973 168.256 95.2291C168.752 94.3609 169.445 93.6215 170.279 93.0706Z" fill="white"/>
<path d="M214.759 44.6034C214.268 44.9258 213.859 45.3592 213.566 45.8684C213.273 46.3777 213.103 46.9486 213.071 47.5354C213.071 48.646 213.826 49.057 214.759 48.5127C215.252 48.1922 215.662 47.7594 215.956 47.2497C216.249 46.7401 216.418 46.1681 216.447 45.5807C216.447 44.5034 215.692 44.0703 214.759 44.6034Z" fill="#37474F"/>
<path d="M214.76 247.236C212.818 248.507 211.203 250.216 210.046 252.227C208.888 254.237 208.22 256.492 208.096 258.809C208.096 263.063 211.084 264.795 214.76 262.663C216.701 261.392 218.315 259.682 219.473 257.672C220.631 255.662 221.299 253.407 221.424 251.09C221.446 246.837 218.447 245.104 214.76 247.236Z" fill="#37474F"/>
<path d="M198.778 61.7956C197.802 62.4435 196.991 63.3118 196.413 64.3304C195.834 65.3491 195.503 66.4895 195.446 67.6597C195.446 69.8143 196.956 70.6917 198.778 69.6144C199.764 68.9726 200.585 68.1069 201.174 67.0879C201.762 66.0689 202.102 64.9254 202.165 63.7503C202.165 61.5957 200.655 60.7183 198.778 61.7956Z" fill="#37474F"/>
<path d="M207.075 61.0623C207.075 62.5061 208.186 63.0503 209.485 62.284L231.697 49.4341C232.386 49.0044 232.962 48.4183 233.381 47.7235C233.8 47.0288 234.049 46.2449 234.108 45.4358C234.108 44.0031 232.997 43.4589 231.697 44.2253L209.485 57.0752C208.798 57.5038 208.222 58.0881 207.804 58.7808C207.385 59.4736 207.135 60.2552 207.075 61.0623Z" fill="#37474F"/>
<path d="M156.829 100.223C157.617 100.737 158.273 101.429 158.744 102.243C159.215 103.057 159.487 103.971 159.539 104.91C159.539 106.643 158.328 107.342 156.829 106.476C156.043 105.961 155.39 105.268 154.921 104.454C154.452 103.64 154.181 102.727 154.13 101.789C154.13 100.068 155.341 99.3682 156.829 100.223Z" fill="#37474F"/>
<path d="M156.829 121.081C157.617 121.594 158.273 122.286 158.744 123.1C159.215 123.915 159.487 124.828 159.539 125.768C159.539 127.489 158.328 128.189 156.829 127.334C156.043 126.818 155.39 126.126 154.921 125.312C154.452 124.497 154.181 123.585 154.13 122.647C154.13 120.914 155.341 120.214 156.829 121.081Z" fill="#37474F"/>
<path d="M155.986 100.645C156.774 101.158 157.43 101.85 157.901 102.664C158.371 103.479 158.644 104.393 158.695 105.332C158.695 107.053 157.485 107.753 155.986 106.898C155.197 106.384 154.541 105.692 154.07 104.878C153.6 104.064 153.327 103.15 153.276 102.211C153.287 100.478 154.497 99.812 155.986 100.645Z" fill="#455A64"/>
<path d="M155.986 121.491C156.775 122.006 157.432 122.699 157.903 123.516C158.374 124.332 158.645 125.248 158.695 126.189C158.695 127.911 157.485 128.61 155.986 127.744C155.196 127.233 154.538 126.541 154.067 125.727C153.596 124.912 153.325 123.997 153.276 123.057C153.287 121.336 154.497 120.636 155.986 121.491Z" fill="#455A64"/>
<path d="M280.175 48.6006C280.175 46.757 278.887 46.0129 277.287 46.9347L266.636 53.0764L188.326 98.301C187.485 98.8475 186.785 99.5852 186.283 100.454C185.781 101.322 185.492 102.297 185.439 103.299V268.537C185.439 270.381 186.727 271.125 188.326 270.203L266.67 224.968L277.287 218.837C278.128 218.291 278.828 217.553 279.33 216.684C279.832 215.816 280.122 214.841 280.175 213.839V48.6006Z" fill="white"/>
<path d="M281.286 48.6015C281.356 48.0445 281.26 47.4793 281.01 46.9765C280.761 46.4738 280.368 46.0558 279.882 45.7749C279.396 45.494 278.838 45.3626 278.278 45.3971C277.718 45.4317 277.18 45.6307 276.732 45.9693L266.57 51.8445L187.771 97.3801C186.757 98.0204 185.913 98.898 185.314 99.937C184.714 100.976 184.376 102.145 184.328 103.344V268.538C184.284 269.093 184.391 269.649 184.637 270.148C184.883 270.646 185.26 271.069 185.728 271.37C186.126 271.602 186.578 271.721 187.038 271.715C187.689 271.694 188.324 271.507 188.882 271.171L267.736 225.635L277.876 219.782C278.885 219.135 279.724 218.256 280.323 217.219C280.922 216.181 281.264 215.015 281.319 213.818L281.286 48.6015ZM266.592 223.736L265.682 224.269L187.816 269.227C187.685 269.327 187.533 269.398 187.372 269.432C187.211 269.467 187.044 269.465 186.883 269.427C186.739 269.338 186.594 269.027 186.594 268.516V103.3C186.652 102.493 186.891 101.71 187.295 101.01C187.699 100.31 188.257 99.7105 188.926 99.257L266.715 54.2767L277.821 47.8462C277.952 47.7457 278.103 47.6756 278.265 47.641C278.426 47.6064 278.593 47.6082 278.754 47.6463C278.898 47.7352 279.042 48.0462 279.042 48.557V213.84C278.985 214.647 278.745 215.429 278.341 216.13C277.937 216.83 277.38 217.429 276.71 217.883L266.57 223.736H266.592Z" fill="#4ECDC4"/>
<path d="M232.807 86.9957C242.803 81.2426 250.855 85.885 250.855 97.4244C250.855 108.964 242.769 122.969 232.807 128.677C222.845 134.386 214.76 129.788 214.76 118.26C214.76 106.731 222.845 92.7598 232.807 86.9957Z" fill="#4ECDC4"/>
<path d="M232.807 96.0583C236.039 94.1924 238.66 95.7029 238.66 99.3902C238.55 101.421 237.963 103.398 236.946 105.16C235.929 106.922 234.511 108.419 232.807 109.53C229.575 111.396 226.954 109.886 226.954 106.198C227.064 104.167 227.651 102.19 228.668 100.428C229.685 98.6666 231.103 97.1694 232.807 96.0583Z" fill="#4ECDC4"/>
<path d="M244.213 115.961C244.213 109.83 239.915 107.342 234.595 110.408L231.264 112.329C225.955 115.394 221.646 122.858 221.646 128.988V130.643C224.722 131.654 228.587 131.11 232.752 128.677C237.365 125.832 241.267 121.968 244.158 117.382L244.213 115.961Z" fill="#4ECDC4"/>
<path opacity="0.7" d="M232.807 96.0583C236.039 94.1924 238.66 95.7029 238.66 99.3902C238.55 101.421 237.963 103.398 236.946 105.16C235.929 106.922 234.511 108.419 232.807 109.53C229.575 111.396 226.954 109.886 226.954 106.198C227.064 104.167 227.651 102.19 228.668 100.428C229.685 98.6666 231.103 97.1694 232.807 96.0583Z" fill="white"/>
<path opacity="0.7" d="M244.213 115.961C244.213 109.83 239.915 107.342 234.595 110.408L231.264 112.329C225.955 115.394 221.646 122.858 221.646 128.988V130.643C224.722 131.654 228.587 131.11 232.752 128.677C237.365 125.832 241.267 121.968 244.158 117.382L244.213 115.961Z" fill="white"/>
<path d="M197.889 154.055L221.113 140.649C222.223 140.038 223.034 140.527 223.034 141.76V142.526C222.999 143.194 222.806 143.843 222.473 144.422C222.139 145.001 221.673 145.493 221.113 145.858L197.889 159.263C196.834 159.874 195.968 159.374 195.968 158.153V157.386C196.004 156.719 196.197 156.07 196.531 155.491C196.864 154.912 197.33 154.42 197.889 154.055Z" fill="#4ECDC4"/>
<path opacity="0.1" d="M197.889 154.055L221.113 140.649C222.223 140.038 223.034 140.527 223.034 141.76V142.526C222.999 143.194 222.806 143.843 222.473 144.422C222.139 145.001 221.673 145.493 221.113 145.858L197.889 159.263C196.834 159.874 195.968 159.374 195.968 158.153V157.386C196.004 156.719 196.197 156.07 196.531 155.491C196.864 154.912 197.33 154.42 197.889 154.055Z" fill="black"/>
<path d="M196.934 170.237L267.192 129.677C267.714 129.366 268.147 129.61 268.147 130.232V138.429C268.128 138.761 268.032 139.085 267.866 139.374C267.7 139.663 267.47 139.91 267.192 140.095L196.934 180.655C196.401 180.966 195.968 180.71 195.968 180.099V171.903C195.987 171.569 196.084 171.244 196.252 170.955C196.42 170.665 196.654 170.419 196.934 170.237Z" fill="#4ECDC4"/>
<path opacity="0.2" d="M196.934 170.237L267.192 129.677C267.714 129.366 268.147 129.61 268.147 130.232V138.429C268.128 138.761 268.032 139.085 267.866 139.374C267.7 139.663 267.47 139.91 267.192 140.095L196.934 180.655C196.401 180.966 195.968 180.71 195.968 180.099V171.903C195.987 171.569 196.084 171.244 196.252 170.955C196.42 170.665 196.654 170.419 196.934 170.237Z" fill="white"/>
<path d="M197.889 190.516L221.113 177.111C222.223 176.5 223.034 177 223.034 178.222V178.988C223 179.656 222.808 180.306 222.474 180.885C222.14 181.464 221.673 181.956 221.113 182.32L197.889 195.725C196.834 196.347 195.968 195.847 195.968 194.615V193.848C196.006 193.181 196.199 192.533 196.533 191.954C196.867 191.376 197.331 190.883 197.889 190.516Z" fill="#4ECDC4"/>
<path opacity="0.1" d="M197.889 190.516L221.113 177.111C222.223 176.5 223.034 177 223.034 178.222V178.988C223 179.656 222.808 180.306 222.474 180.885C222.14 181.464 221.673 181.956 221.113 182.32L197.889 195.725C196.834 196.347 195.968 195.847 195.968 194.615V193.848C196.006 193.181 196.199 192.533 196.533 191.954C196.867 191.376 197.331 190.883 197.889 190.516Z" fill="black"/>
<path d="M196.934 206.699L267.192 166.139C267.714 165.828 268.147 166.083 268.147 166.694V174.89C268.128 175.223 268.032 175.547 267.866 175.836C267.7 176.125 267.47 176.371 267.192 176.556L196.934 217.116C196.401 217.427 195.968 217.183 195.968 216.561V208.365C195.987 208.031 196.084 207.706 196.252 207.416C196.42 207.127 196.654 206.881 196.934 206.699Z" fill="#4ECDC4"/>
<path opacity="0.2" d="M196.934 206.699L267.192 166.139C267.714 165.828 268.147 166.083 268.147 166.694V174.89C268.128 175.223 268.032 175.547 267.866 175.836C267.7 176.125 267.47 176.371 267.192 176.556L196.934 217.116C196.401 217.427 195.968 217.183 195.968 216.561V208.365C195.987 208.031 196.084 207.706 196.252 207.416C196.42 207.127 196.654 206.881 196.934 206.699Z" fill="white"/>
<path d="M224.955 211.352L252.721 195.348C253.831 194.726 254.653 195.226 254.653 196.459V205.033C254.617 205.701 254.423 206.352 254.087 206.931C253.751 207.51 253.283 208.001 252.721 208.365L224.955 224.38C223.844 224.991 223.034 224.491 223.034 223.269V214.684C223.072 214.017 223.266 213.369 223.6 212.791C223.933 212.212 224.397 211.72 224.955 211.352Z" fill="#4ECDC4"/>
<path opacity="0.1" d="M224.955 211.352L252.721 195.348C253.831 194.726 254.653 195.226 254.653 196.459V205.033C254.617 205.701 254.423 206.352 254.087 206.931C253.751 207.51 253.283 208.001 252.721 208.365L224.955 224.38C223.844 224.991 223.034 224.491 223.034 223.269V214.684C223.072 214.017 223.266 213.369 223.6 212.791C223.933 212.212 224.397 211.72 224.955 211.352Z" fill="black"/>
<path d="M290.705 175.168C290.705 175.168 277.066 156.354 276.267 154.066C275.634 152.378 276.267 149.868 276.467 148.701C276.667 147.535 276.844 144.936 277.044 144.259C277.377 142.993 275.745 143.248 274.823 144.403C273.901 145.558 273.59 147.868 273.113 148.246C272.635 148.624 269.003 143.326 267.104 140.883C265.205 138.439 264.017 136.951 262.85 137.862C262.017 138.517 262.639 139.939 264.017 142.027C264.821 143.151 265.562 144.319 266.238 145.525C266.449 145.98 265.316 146.014 264.705 146.958C264.228 147.691 264.705 148.879 264.039 149.445C263.629 149.758 263.348 150.21 263.249 150.716C263.151 151.221 263.242 151.746 263.506 152.189C264.742 154.13 266.336 155.819 268.204 157.164C270.247 158.575 271.069 159.075 272.28 160.996C273.49 162.917 284.352 182.542 285.085 183.719C285.818 184.897 287.229 187.296 289.372 187.362C291.516 187.429 309.063 172.324 309.963 171.569C312.851 169.159 313.773 168.815 314.261 170.98C314.43 171.75 314.556 172.529 314.639 173.313C314.983 176.067 316.86 185.907 316.86 185.907C316.86 185.907 325.745 190.205 333.042 188.129C340.339 186.052 342.804 182.953 342.804 182.953L339.15 177C340.139 174.546 344.703 164.594 346.181 157.631L323.302 153.932C322.835 153.832 322.08 153.644 321.08 153.388C319.825 153.055 316.638 151.956 314.228 154.066C306.365 160.918 290.727 175.168 290.727 175.168" fill="#FFA8A7"/>
<path d="M336.064 290.606L331.965 296.304C333.828 297.173 335.863 297.61 337.918 297.581C341.594 297.714 342.605 296.47 342.738 296.226C343.36 294.893 342.394 292.494 342.128 290.428L336.064 290.606Z" fill="#37474F"/>
<path d="M332.197 293.572C332.197 293.572 327.222 293.25 323.79 292.828C320.358 292.406 317.637 294.071 318.437 295.482C319.236 296.892 321.136 298.07 324.09 299.058C326.611 299.913 329.643 300.524 332.264 301.279C334.885 302.035 336.707 303.023 338.228 302.49C339.927 301.901 340.66 301.224 340.516 299.98C340.145 298.211 339.685 296.461 339.139 294.738L332.197 293.572Z" fill="#37474F"/>
<path d="M342.738 284.886C342.738 284.886 342.116 290.062 342.071 291.172C342.027 292.283 337.018 292.638 336.063 290.606L335.907 284.275L342.738 284.886Z" fill="#F28F8F"/>
<path d="M337.695 288.062L339.483 295.926C339.483 295.926 339.649 296.881 335.562 297.492C331.475 298.102 325.056 295.348 323.956 294.793C322.857 294.237 322.735 293.116 326.755 293.338C330.776 293.56 332.197 293.571 332.197 293.571L330.887 290.095L337.695 288.062Z" fill="#FFA8A7"/>
<path d="M346.114 157.564L348.946 156.776C348.946 156.776 354.866 175.512 355.521 177.322C356.177 179.133 356.921 181.043 355.643 183.275C354.122 185.93 346.114 196.603 346.114 196.603L341.028 191.627L346.803 181.054L341.694 170.725L346.114 157.564Z" fill="#F28F8F"/>
<path d="M317.026 133.231C316.363 131.984 316.025 130.59 316.047 129.178C316.068 127.766 316.447 126.382 317.149 125.156C319.97 119.925 326.256 117.382 333.741 118.348C337.206 118.804 341.294 121.68 343.526 125.978C345.991 130.743 346.225 140.339 346.858 143.97L317.026 133.231Z" fill="#37474F"/>
<path d="M316.826 135.286C316.826 135.286 315.049 138.673 315.36 138.984C315.821 139.253 316.324 139.441 316.848 139.539L316.826 135.286Z" fill="#FFA8A7"/>
<path d="M322.224 124.579C320.292 125.834 316.96 128.144 316.816 135.752C316.66 143.526 317.771 146.092 318.926 146.991C319.703 147.602 324.268 147.291 326.223 146.836C328.177 146.38 333.808 143.593 335.841 139.361C338.228 134.386 337.74 127.144 334.197 124.923C332.394 123.857 330.349 123.266 328.255 123.206C326.161 123.145 324.086 123.618 322.224 124.579Z" fill="#FFA8A7"/>
<path d="M342.738 182.909C346.158 188.24 349.401 192.905 350.112 198.924C351.578 211.574 346.78 226.035 345.747 235.397C347.69 238.06 348.81 241.234 348.968 244.527C348.968 248.403 342.738 284.887 342.738 284.887C342.738 284.887 338.206 286.264 335.907 284.276L331.631 217.161L333.853 208.987L342.738 182.909Z" fill="#4ECDC4"/>
<path opacity="0.2" d="M342.738 182.909C346.158 188.24 349.401 192.905 350.112 198.924C351.578 211.574 346.78 226.035 345.747 235.397C347.69 238.06 348.81 241.234 348.968 244.527C348.968 248.403 342.738 284.887 342.738 284.887C342.738 284.887 338.206 286.264 335.907 284.276L331.631 217.161L333.853 208.987L342.738 182.909Z" fill="black"/>
<path d="M331.631 217.16L333.853 208.986C338.106 207.866 342.208 206.237 346.069 204.133C346.069 204.133 343.759 208.342 337.118 210.652L333.686 221.147L333.397 245.192L331.631 217.16Z" fill="#4ECDC4"/>
<path opacity="0.3" d="M331.631 217.16L333.853 208.986C338.106 207.866 342.208 206.237 346.069 204.133C346.069 204.133 343.759 208.342 337.118 210.652L333.686 221.147L333.397 245.192L331.631 217.16Z" fill="black"/>
<path d="M342.737 182.909C344.57 185.908 348.945 191.017 348.012 195.937C346.902 201.89 343.681 206.077 333.885 208.987L324.689 242.305C324.689 242.305 329.476 246.748 330.942 251.046C332.408 255.344 337.695 288.085 337.695 288.085C337.695 288.085 336.051 290.762 330.887 290.118C330.887 290.118 312.883 249.025 311.617 246.348C310.081 243.637 309.542 240.474 310.096 237.408C310.662 233.098 316.76 185.93 316.76 185.93L342.737 182.909Z" fill="#4ECDC4"/>
<path opacity="0.2" d="M342.737 182.909C344.57 185.908 348.945 191.017 348.012 195.937C346.902 201.89 343.681 206.077 333.885 208.987L324.689 242.305C324.689 242.305 329.476 246.748 330.942 251.046C332.408 255.344 337.695 288.085 337.695 288.085C337.695 288.085 336.051 290.762 330.887 290.118C330.887 290.118 312.883 249.025 311.617 246.348C310.081 243.637 309.542 240.474 310.096 237.408C310.662 233.098 316.76 185.93 316.76 185.93L342.737 182.909Z" fill="black"/>
<path d="M346.114 157.564L323.235 153.866C322.768 153.766 322.013 153.577 321.013 153.322C321.013 153.322 320.036 167.671 314.161 170.958C314.305 171.647 314.427 172.413 314.538 173.291C314.883 176.045 316.76 185.885 316.76 185.885C316.76 185.885 325.645 190.183 332.942 188.106C340.238 186.029 342.704 182.931 342.704 182.931L339.05 176.978C340.072 174.501 344.67 164.55 346.114 157.564Z" fill="#4ECDC4"/>
<path opacity="0.7" d="M346.114 157.564L323.235 153.866C322.768 153.766 322.013 153.577 321.013 153.322C321.013 153.322 320.036 167.671 314.161 170.958C314.305 171.647 314.427 172.413 314.538 173.291C314.883 176.045 316.76 185.885 316.76 185.885C316.76 185.885 325.645 190.183 332.942 188.106C340.238 186.029 342.704 182.931 342.704 182.931L339.05 176.978C340.072 174.501 344.67 164.55 346.114 157.564Z" fill="white"/>
<path d="M340.083 174.612C337.045 176.437 333.862 178.008 330.565 179.31C333.557 179.25 336.486 178.441 339.084 176.956L340.083 174.612Z" fill="#4ECDC4"/>
<path d="M321.658 124.956C321.658 124.956 320.547 132.175 323.168 136.418C323.168 136.418 324.145 133.541 326.578 134.086C329.01 134.63 329.143 137.84 327.433 139.639C326.998 140.143 326.43 140.515 325.793 140.712C325.157 140.908 324.478 140.921 323.834 140.749C323.834 140.749 323.446 145.969 323.235 150.345C323.024 154.721 321.869 164.261 326.789 168.115C331.709 171.969 344.059 173.324 349.845 165.239C353.066 160.741 348.79 152.789 346.802 143.87C344.97 135.674 343.937 123.524 335.24 121.569C326.544 119.614 321.658 124.956 321.658 124.956Z" fill="#37474F"/>
<path d="M353.566 26.3215L351.733 27.4321C351.887 26.7801 351.973 26.1138 351.989 25.4441C351.989 21.7235 349.379 20.2242 346.158 22.1122C345.178 22.7035 344.303 23.4542 343.57 24.3335C343.57 19.3357 340.061 17.3032 335.729 19.8021C333.447 21.2907 331.547 23.2963 330.185 25.6563C328.823 28.0162 328.036 30.6641 327.888 33.3851C327.888 33.6405 327.888 33.8848 327.888 34.1292C326.773 33.9888 325.643 34.2485 324.701 34.8622C323.004 35.9681 321.591 37.4586 320.578 39.2127C319.565 40.9668 318.98 42.9351 318.87 44.9578C318.869 45.428 318.918 45.897 319.014 46.3572L318.037 46.9236C315.383 48.4562 313.228 51.4438 313.228 53.5873C313.228 55.7308 315.383 56.2417 318.037 54.6979L353.577 34.2069C356.231 32.6743 358.386 29.6867 358.386 27.5432C358.386 25.3997 356.22 24.7777 353.566 26.3215Z" fill="#EBEBEB"/>
</svg>
