<svg width="422" height="334" viewBox="0 0 422 334" fill="none" xmlns="http://www.w3.org/2000/svg">
<path d="M422 293.515H0V293.739H422V293.515Z" fill="#EBEBEB"/>
<path d="M279.549 310.376H272.215V310.601H279.549V310.376Z" fill="#EBEBEB"/>
<path d="M146.198 299.234H126.634V299.458H146.198V299.234Z" fill="#EBEBEB"/>
<path d="M387.201 304.038H339.372V304.263H387.201V304.038Z" fill="#EBEBEB"/>
<path d="M83.8847 304.038H36.0552V304.263H83.8847V304.038Z" fill="#EBEBEB"/>
<path d="M200.025 253.53H37.0569C35.7802 253.528 34.5566 252.987 33.6546 252.027C32.7527 251.068 32.2461 249.767 32.2461 248.411V5.07418C32.2572 3.72587 32.7687 2.43667 33.6695 1.48659C34.5702 0.536517 35.7875 0.00230973 37.0569 0H200.025C201.303 0 202.529 0.539323 203.433 1.49932C204.336 2.45932 204.844 3.76136 204.844 5.11901V248.411C204.844 249.769 204.336 251.071 203.433 252.031C202.529 252.991 201.303 253.53 200.025 253.53ZM37.0569 0.179301C35.8362 0.181675 34.6662 0.698431 33.8038 1.61614C32.9414 2.53385 32.4571 3.77753 32.4571 5.07418V248.411C32.4571 249.708 32.9414 250.951 33.8038 251.869C34.6662 252.787 35.8362 253.303 37.0569 253.306H200.025C201.246 253.303 202.417 252.787 203.281 251.87C204.145 250.952 204.631 249.708 204.633 248.411V5.07418C204.631 3.77671 204.145 2.53305 203.281 1.6156C202.417 0.69814 201.246 0.18167 200.025 0.179301H37.0569Z" fill="#EBEBEB"/>
<path d="M382.595 253.53H219.619C218.342 253.528 217.117 252.988 216.214 252.028C215.311 251.069 214.802 249.768 214.8 248.411V5.07418C214.813 3.72506 215.326 2.43586 216.229 1.48603C217.131 0.536204 218.349 0.00228454 219.619 0H382.595C383.863 0.00466583 385.079 0.539916 385.977 1.48974C386.876 2.43956 387.387 3.72742 387.398 5.07418V248.411C387.398 249.765 386.892 251.065 385.992 252.024C385.092 252.984 383.871 253.525 382.595 253.53ZM219.619 0.179301C218.398 0.18167 217.227 0.69814 216.363 1.6156C215.499 2.53305 215.013 3.77671 215.011 5.07418V248.411C215.013 249.708 215.499 250.952 216.363 251.87C217.227 252.787 218.398 253.303 219.619 253.306H382.595C383.817 253.303 384.988 252.787 385.852 251.87C386.715 250.952 387.201 249.708 387.204 248.411V5.07418C387.201 3.77671 386.715 2.53305 385.852 1.6156C384.988 0.69814 383.817 0.18167 382.595 0.179301H219.619Z" fill="#EBEBEB"/>
<path d="M95.624 162.589L319.723 162.589V33.2867L95.624 33.2867L95.624 162.589Z" fill="#E6E6E6"/>
<path d="M93.0762 162.589L317.175 162.589V33.2867L93.0762 33.2867L93.0762 162.589Z" fill="#F5F5F5"/>
<path d="M312.609 157.138V38.7377L97.6508 38.7377V157.138H312.609Z" fill="#F9F9F9"/>
<path d="M99.575 157.148V38.7474H97.6506V157.148H99.575Z" fill="#E6E6E6"/>
<path d="M94.9671 136.411L315.285 136.411V129.095L94.9671 129.095V136.411Z" fill="#F5F5F5"/>
<path d="M94.9671 74.2477L315.285 74.2477V66.9322L94.9671 66.9322V74.2477Z" fill="#F5F5F5"/>
<path d="M88.1072 24.2677H324.706C324.892 24.2701 325.07 24.3504 325.202 24.4914C325.333 24.6324 325.406 24.8226 325.406 25.0208C325.406 25.2181 325.332 25.4074 325.201 25.5469C325.07 25.6865 324.891 25.7649 324.706 25.7649H88.1072C87.9206 25.7649 87.7415 25.6868 87.6088 25.5475C87.4761 25.4082 87.4004 25.2189 87.3982 25.0208C87.4004 24.8218 87.4758 24.6316 87.6083 24.4908C87.7407 24.3501 87.9198 24.27 88.1072 24.2677Z" fill="#E6E6E6"/>
<path d="M83.8853 25.0211C83.8853 25.7609 84.0919 26.484 84.479 27.099C84.8661 27.714 85.4163 28.1931 86.0599 28.4758C86.7034 28.7585 87.4115 28.832 88.0945 28.687C88.7774 28.5421 89.4045 28.1851 89.8964 27.6614C90.3883 27.1377 90.7228 26.4707 90.8576 25.7449C90.9925 25.0192 90.9216 24.2672 90.6539 23.5843C90.3862 22.9013 89.9338 22.3181 89.3539 21.9084C88.774 21.4987 88.0928 21.281 87.3963 21.2827C86.9345 21.2827 86.4773 21.3795 86.0507 21.5675C85.6242 21.7555 85.2368 22.031 84.9106 22.3782C84.5845 22.7255 84.3261 23.1377 84.1501 23.5912C83.9742 24.0447 83.8842 24.5306 83.8853 25.0211Z" fill="#E6E6E6"/>
<path d="M318.776 29.1985C319.027 29.1985 319.267 29.0927 319.444 28.9044C319.622 28.7161 319.721 28.4607 319.721 28.1944V25.998C319.721 25.7317 319.622 25.4763 319.444 25.288C319.267 25.0997 319.027 24.9939 318.776 24.9939C318.524 24.9939 318.283 25.0994 318.104 25.2874C317.926 25.4755 317.824 25.7309 317.822 25.998V28.1675C317.82 28.302 317.843 28.4357 317.89 28.5607C317.937 28.6857 318.007 28.7995 318.095 28.8955C318.184 28.9914 318.29 29.0677 318.407 29.1197C318.524 29.1717 318.649 29.1985 318.776 29.1985Z" fill="#E6E6E6"/>
<path d="M98.7498 29.1997C99.0013 29.1997 99.2426 29.0942 99.4212 28.9062C99.5998 28.7181 99.7013 28.4627 99.7035 28.1956V25.9992C99.6948 25.7368 99.5904 25.4882 99.4125 25.3059C99.2346 25.1236 98.997 25.0218 98.7498 25.022C98.6243 25.016 98.4989 25.0367 98.3809 25.0827C98.263 25.1288 98.1549 25.1994 98.0629 25.2904C97.971 25.3814 97.8971 25.4909 97.8454 25.6126C97.7938 25.7343 97.7656 25.8658 97.7623 25.9992V28.1687C97.7587 28.3067 97.7819 28.444 97.8305 28.572C97.8791 28.7 97.952 28.816 98.0446 28.9127C98.1373 29.0095 98.2477 29.0849 98.3691 29.1343C98.4904 29.1836 98.62 29.2059 98.7498 29.1997Z" fill="#E6E6E6"/>
<path opacity="0.5" d="M88.3322 52.1671L315.292 52.1671V25.0211L88.3322 25.0211V52.1671Z" fill="#E0E0E0"/>
<path d="M307.461 28.7595C309.405 28.7595 310.981 27.0858 310.981 25.0211C310.981 22.9565 309.405 21.2827 307.461 21.2827C305.517 21.2827 303.942 22.9565 303.942 25.0211C303.942 27.0858 305.517 28.7595 307.461 28.7595Z" fill="#E6E6E6"/>
<path d="M249.73 293.515H264.128V191.278H249.73V293.515Z" fill="#E6E6E6"/>
<path d="M253.522 293.514H249.733V279.591H257.489L253.522 293.514Z" fill="#F0F0F0"/>
<path d="M366.658 293.515H381.057V191.278H366.658V293.515Z" fill="#E6E6E6"/>
<path d="M249.73 284.97H369.958V191.277H249.73V284.97Z" fill="#F0F0F0"/>
<path d="M252.669 221.112L367.023 221.112V195.419H252.669V221.112Z" fill="#E6E6E6"/>
<path d="M275.356 203.407H341.821C345.509 203.407 349.046 200.242 351.586 194.639H265.591C268.131 200.242 271.659 203.407 275.356 203.407Z" fill="#F0F0F0"/>
<path d="M366.176 293.514H369.958V279.591H362.201L366.176 293.514Z" fill="#F0F0F0"/>
<path d="M252.669 250.966L367.023 250.966V225.272H252.669V250.966Z" fill="#E6E6E6"/>
<path d="M275.356 233.26H341.821C345.509 233.26 349.046 230.087 351.586 224.492H265.591C268.131 230.087 271.659 233.26 275.356 233.26Z" fill="#F0F0F0"/>
<path d="M252.669 280.819H367.023V255.125H252.669V280.819Z" fill="#E6E6E6"/>
<path d="M275.356 263.105H341.821C345.509 263.105 349.046 259.931 351.586 254.337H265.591C268.131 259.931 271.659 263.105 275.356 263.105Z" fill="#F0F0F0"/>
<path d="M336.943 140.016C334.664 131.866 363.047 91.0937 375.505 92.3129C387.962 93.5322 366.061 142.992 359.334 147.367C351.746 152.307 339.424 148.882 336.943 140.016Z" fill="#F5F5F5"/>
<path d="M335.31 151.768C334.213 147.608 354.056 140.84 361.939 145.743C369.821 150.647 353.726 163.279 349.279 162.705C344.206 162.06 336.509 156.295 335.31 151.768Z" fill="#F5F5F5"/>
<path d="M359.418 148.039C362.161 142.57 341.956 110.628 331.187 110.036C320.417 109.445 334.25 146.793 339.559 150.621C345.56 154.969 356.422 153.983 359.418 148.039Z" fill="#F5F5F5"/>
<path d="M349.064 131.041H349.022C348.51 131.032 348.012 131.221 347.621 131.572C347.23 131.923 346.972 132.413 346.895 132.95C344.555 149.803 344.271 166.906 346.051 183.836C346.11 184.375 346.351 184.873 346.73 185.237C347.109 185.601 347.599 185.807 348.11 185.817H348.152C348.451 185.821 348.747 185.758 349.02 185.632C349.294 185.505 349.539 185.319 349.74 185.084C349.94 184.849 350.091 184.571 350.183 184.269C350.274 183.968 350.304 183.649 350.271 183.333C348.575 166.777 348.856 150.059 351.106 133.578C351.148 133.265 351.127 132.946 351.044 132.643C350.961 132.34 350.818 132.059 350.625 131.819C350.432 131.579 350.192 131.385 349.923 131.251C349.654 131.117 349.361 131.045 349.064 131.041Z" fill="#EBEBEB"/>
<path d="M347.515 191.268C354.976 191.268 361.264 186.606 362.791 180.286C363.165 178.598 363.7 176.955 364.386 175.382L364.505 175.122H330.525L330.643 175.382C331.33 176.955 331.864 178.598 332.238 180.286C333.766 186.606 340.062 191.268 347.515 191.268Z" fill="#FAFAFA"/>
<path d="M330.457 176.709H364.606C365.559 176.709 366.386 175.723 366.623 174.307C366.96 172.272 365.964 170.299 364.606 170.299H330.457C329.098 170.299 328.103 172.272 328.449 174.307C328.685 175.714 329.512 176.709 330.457 176.709Z" fill="#F0F0F0"/>
<path d="M225.273 229.109H183.234V293.514H225.273V229.109Z" fill="#F0F0F0"/>
<path d="M58.2144 293.515H183.245V229.11H58.2144L58.2144 293.515Z" fill="#F5F5F5"/>
<path d="M69.1929 279.25H95.627V250.661H69.1929V279.25Z" fill="#FAFAFA"/>
<path d="M105.08 279.25H131.514V250.661H105.08V279.25Z" fill="#FAFAFA"/>
<g style="mix-blend-mode:multiply" opacity="0.7">
<path d="M225.271 235.958H57.7622V239.625H225.271V235.958Z" fill="#E6E6E6"/>
</g>
<path d="M227.594 226.886H183.234V237.51H227.594V226.886Z" fill="#F0F0F0"/>
<path d="M55.8935 237.5L183.245 237.5V226.877L55.8935 226.877V237.5Z" fill="#F5F5F5"/>
<path d="M91.9128 208.804C91.9128 208.804 92.7146 226.887 123.394 226.887C154.073 226.887 154.875 208.804 154.875 208.804H91.9128Z" fill="#F0F0F0"/>
<path d="M91.9128 196.826C91.9128 196.826 92.7146 214.908 123.394 214.908C154.073 214.908 154.875 196.826 154.875 196.826H91.9128Z" fill="#F0F0F0"/>
<path d="M210.998 334C301.376 334 374.641 329.456 374.641 323.852C374.641 318.247 301.376 313.703 210.998 313.703C120.62 313.703 47.3547 318.247 47.3547 323.852C47.3547 329.456 120.62 334 210.998 334Z" fill="#F5F5F5"/>
<path d="M161.494 304.326H78.6213V320.893H161.494V304.326Z" fill="#4ECDC4"/>
<path opacity="0.2" d="M161.494 304.326H78.6213V306.208H161.494V304.326Z" fill="black"/>
<path opacity="0.2" d="M87.956 304.326H84.6897V320.893H87.956V304.326Z" fill="black"/>
<path opacity="0.2" d="M95.4499 304.326H92.1836V320.893H95.4499V304.326Z" fill="black"/>
<path opacity="0.2" d="M102.951 304.326H99.6851V320.893H102.951V304.326Z" fill="black"/>
<path opacity="0.2" d="M110.449 304.326H107.183V320.893H110.449V304.326Z" fill="black"/>
<path opacity="0.2" d="M117.939 304.326H114.673V320.893H117.939V304.326Z" fill="black"/>
<path opacity="0.2" d="M125.448 304.326H122.182V320.893H125.448V304.326Z" fill="black"/>
<path opacity="0.2" d="M132.938 304.326H129.672V320.893H132.938V304.326Z" fill="black"/>
<path opacity="0.2" d="M140.436 304.326H137.169V320.893H140.436V304.326Z" fill="black"/>
<path opacity="0.2" d="M147.937 304.326H144.671V320.893H147.937V304.326Z" fill="black"/>
<path opacity="0.2" d="M155.431 304.326H152.165V320.893H155.431V304.326Z" fill="black"/>
<path d="M158.123 287.758H75.251V304.325H158.123V287.758Z" fill="#4ECDC4"/>
<path opacity="0.2" d="M158.123 287.758H75.251V289.64H158.123V287.758Z" fill="black"/>
<path opacity="0.2" d="M84.578 287.758H81.3118V304.325H84.578V287.758Z" fill="black"/>
<path opacity="0.2" d="M92.0832 287.758H88.8169V304.325H92.0832V287.758Z" fill="black"/>
<path opacity="0.2" d="M99.5734 287.758H96.3071V304.325H99.5734V287.758Z" fill="black"/>
<path opacity="0.2" d="M107.071 287.758H103.805V304.325H107.071V287.758Z" fill="black"/>
<path opacity="0.2" d="M114.572 287.758H111.306V304.325H114.572V287.758Z" fill="black"/>
<path opacity="0.2" d="M122.07 287.758H118.804V304.325H122.07V287.758Z" fill="black"/>
<path opacity="0.2" d="M129.564 287.758H126.298V304.325H129.564V287.758Z" fill="black"/>
<path opacity="0.2" d="M137.065 287.758H133.799V304.325H137.065V287.758Z" fill="black"/>
<path opacity="0.2" d="M144.563 287.758H141.297V304.325H144.563V287.758Z" fill="black"/>
<path opacity="0.2" d="M152.053 287.758H148.787V304.325H152.053V287.758Z" fill="black"/>
<path d="M155.736 271.192H72.8638V287.759H155.736V271.192Z" fill="#4ECDC4"/>
<path opacity="0.2" d="M155.736 271.192H72.8638V273.075H155.736V271.192Z" fill="black"/>
<path opacity="0.2" d="M82.1984 271.192H78.9321V287.759H82.1984V271.192Z" fill="black"/>
<path opacity="0.2" d="M89.696 271.192H86.4297V287.759H89.696V271.192Z" fill="black"/>
<path opacity="0.2" d="M97.1972 271.192H93.9309V287.759H97.1972V271.192Z" fill="black"/>
<path opacity="0.2" d="M104.691 271.192H101.425V287.759H104.691V271.192Z" fill="black"/>
<path opacity="0.2" d="M112.185 271.192H108.919V287.759H112.185V271.192Z" fill="black"/>
<path opacity="0.2" d="M119.69 271.192H116.424V287.759H119.69V271.192Z" fill="black"/>
<path opacity="0.2" d="M127.188 271.192H123.922V287.759H127.188V271.192Z" fill="black"/>
<path opacity="0.2" d="M134.678 271.192H131.412V287.759H134.678V271.192Z" fill="black"/>
<path opacity="0.2" d="M142.18 271.192H138.913V287.759H142.18V271.192Z" fill="black"/>
<path opacity="0.2" d="M149.677 271.192H146.411V287.759H149.677V271.192Z" fill="black"/>
<path d="M159.494 254.632H76.6218V271.199H159.494V254.632Z" fill="#4ECDC4"/>
<path opacity="0.2" d="M159.494 254.632H76.6218V256.515H159.494V254.632Z" fill="black"/>
<path opacity="0.2" d="M85.9452 254.632H82.679V271.199H85.9452V254.632Z" fill="black"/>
<path opacity="0.2" d="M93.4467 254.632H90.1804V271.199H93.4467V254.632Z" fill="black"/>
<path opacity="0.2" d="M100.944 254.632H97.678V271.199H100.944V254.632Z" fill="black"/>
<path opacity="0.2" d="M108.435 254.632H105.168V271.199H108.435V254.632Z" fill="black"/>
<path opacity="0.2" d="M115.943 254.632H112.677V271.199H115.943V254.632Z" fill="black"/>
<path opacity="0.2" d="M123.437 254.632H120.171V271.199H123.437V254.632Z" fill="black"/>
<path opacity="0.2" d="M130.931 254.632H127.665V271.199H130.931V254.632Z" fill="black"/>
<path opacity="0.2" d="M138.433 254.632H135.166V271.199H138.433V254.632Z" fill="black"/>
<path opacity="0.2" d="M145.926 254.632H142.66V271.199H145.926V254.632Z" fill="black"/>
<path opacity="0.2" d="M153.424 254.632H150.158V271.199H153.424V254.632Z" fill="black"/>
<path d="M72.9846 254.624H155.857V238.057H72.9846V254.624Z" fill="#4ECDC4"/>
<path opacity="0.2" d="M72.9846 239.939H155.857V238.056H72.9846V239.939Z" fill="black"/>
<path opacity="0.2" d="M146.522 254.624H149.789V238.057H146.522V254.624Z" fill="black"/>
<path opacity="0.2" d="M139.014 254.624H142.28V238.057H139.014V254.624Z" fill="black"/>
<path opacity="0.2" d="M131.524 254.624H134.79V238.057H131.524V254.624Z" fill="black"/>
<path opacity="0.2" d="M124.026 254.624H127.292V238.057H124.026V254.624Z" fill="black"/>
<path opacity="0.2" d="M116.521 254.624H119.787V238.057H116.521V254.624Z" fill="black"/>
<path opacity="0.2" d="M109.031 254.624H112.297V238.057H109.031V254.624Z" fill="black"/>
<path opacity="0.2" d="M101.533 254.624H104.799V238.057H101.533V254.624Z" fill="black"/>
<path opacity="0.2" d="M94.0316 254.624H97.2979V238.057H94.0316V254.624Z" fill="black"/>
<path opacity="0.2" d="M86.534 254.624H89.8003V238.057H86.534V254.624Z" fill="black"/>
<path opacity="0.2" d="M79.0435 254.624H82.3098V238.057H79.0435V254.624Z" fill="black"/>
<path d="M76.3515 238.066H159.224V221.499H76.3515V238.066Z" fill="#4ECDC4"/>
<path opacity="0.2" d="M76.3515 223.381H159.224V221.498H76.3515V223.381Z" fill="black"/>
<path opacity="0.2" d="M149.886 238.066H153.152V221.499H149.886V238.066Z" fill="black"/>
<path opacity="0.2" d="M142.402 238.066H145.669V221.499H142.402V238.066Z" fill="black"/>
<path opacity="0.2" d="M134.898 238.066H138.164V221.499H134.898V238.066Z" fill="black"/>
<path opacity="0.2" d="M127.396 238.066H130.663V221.499H127.396V238.066Z" fill="black"/>
<path opacity="0.2" d="M119.91 238.066H123.176V221.499H119.91V238.066Z" fill="black"/>
<path opacity="0.2" d="M112.401 238.066H115.667V221.499H112.401V238.066Z" fill="black"/>
<path opacity="0.2" d="M104.9 238.066H108.166V221.499H104.9V238.066Z" fill="black"/>
<path opacity="0.2" d="M97.4129 238.066H100.679V221.499H97.4129V238.066Z" fill="black"/>
<path opacity="0.2" d="M89.9117 238.066H93.178V221.499H89.9117V238.066Z" fill="black"/>
<path opacity="0.2" d="M82.4068 238.066H85.6731V221.499H82.4068V238.066Z" fill="black"/>
<path d="M78.7385 221.498H161.611V204.931H78.7385V221.498Z" fill="#4ECDC4"/>
<path opacity="0.2" d="M78.7385 206.815H161.611V204.932H78.7385V206.815Z" fill="black"/>
<path opacity="0.2" d="M152.276 221.498H155.542V204.931H152.276V221.498Z" fill="black"/>
<path opacity="0.2" d="M144.771 221.498H148.038V204.931H144.771V221.498Z" fill="black"/>
<path opacity="0.2" d="M137.281 221.498H140.547V204.931H137.281V221.498Z" fill="black"/>
<path opacity="0.2" d="M129.783 221.498H133.05V204.931H129.783V221.498Z" fill="black"/>
<path opacity="0.2" d="M122.282 221.498H125.548V204.931H122.282V221.498Z" fill="black"/>
<path opacity="0.2" d="M114.785 221.498H118.051V204.931H114.785V221.498Z" fill="black"/>
<path opacity="0.2" d="M107.29 221.498H110.557V204.931H107.29V221.498Z" fill="black"/>
<path opacity="0.2" d="M99.7891 221.498H103.055V204.931H99.7891V221.498Z" fill="black"/>
<path opacity="0.2" d="M92.2916 221.498H95.5579V204.931H92.2916V221.498Z" fill="black"/>
<path opacity="0.2" d="M84.8011 221.498H88.0674V204.931H84.8011V221.498Z" fill="black"/>
<path d="M74.9807 204.932H157.853V188.364H74.9807V204.932Z" fill="#4ECDC4"/>
<path opacity="0.2" d="M74.9807 190.247H157.853V188.364H74.9807V190.247Z" fill="black"/>
<path opacity="0.2" d="M148.518 204.932H151.785V188.364H148.518V204.932Z" fill="black"/>
<path opacity="0.2" d="M141.032 204.932H144.298V188.364H141.032V204.932Z" fill="black"/>
<path opacity="0.2" d="M133.53 204.932H136.797V188.364H133.53V204.932Z" fill="black"/>
<path opacity="0.2" d="M126.025 204.932H129.292V188.364H126.025V204.932Z" fill="black"/>
<path opacity="0.2" d="M118.539 204.932H121.805V188.364H118.539V204.932Z" fill="black"/>
<path opacity="0.2" d="M111.037 204.932H114.304V188.364H111.037V204.932Z" fill="black"/>
<path opacity="0.2" d="M103.536 204.932H106.802V188.364H103.536V204.932Z" fill="black"/>
<path opacity="0.2" d="M96.0494 204.932H99.3157V188.364H96.0494V204.932Z" fill="black"/>
<path opacity="0.2" d="M88.5445 204.932H91.8108V188.364H88.5445V204.932Z" fill="black"/>
<path opacity="0.2" d="M81.0433 204.932H84.3096V188.364H81.0433V204.932Z" fill="black"/>
<path d="M338.159 122.821L305.108 128.837C304.472 128.95 303.883 129.262 303.414 129.733C302.946 130.204 302.62 130.812 302.478 131.48C302.336 132.148 302.384 132.846 302.616 133.485C302.849 134.124 303.255 134.674 303.783 135.067L309.877 139.649L272.513 195.751C272.27 196.116 271.961 196.427 271.605 196.665C271.249 196.903 270.853 197.064 270.438 197.139C270.023 197.214 269.599 197.201 269.189 197.101C268.778 197.002 268.391 196.817 268.048 196.558L213.129 155.319C212.433 154.799 211.572 154.593 210.734 154.746C209.895 154.899 209.148 155.398 208.656 156.135L97.9482 322.346H137.734L216.421 204.196C216.664 203.832 216.972 203.521 217.328 203.283C217.684 203.045 218.081 202.884 218.495 202.809C218.91 202.734 219.335 202.747 219.745 202.847C220.155 202.946 220.542 203.131 220.885 203.39L275.804 244.629C276.148 244.887 276.537 245.071 276.948 245.17C277.359 245.269 277.785 245.281 278.2 245.206C278.616 245.13 279.013 244.968 279.369 244.729C279.726 244.49 280.034 244.179 280.278 243.813L336.395 159.542L342.497 164.123C343.023 164.508 343.644 164.72 344.283 164.733C344.921 164.747 345.549 164.56 346.089 164.197C346.629 163.834 347.056 163.311 347.318 162.692C347.579 162.073 347.664 161.386 347.561 160.716L341.89 125.609C341.737 124.717 341.26 123.925 340.562 123.403C339.864 122.881 339.001 122.672 338.159 122.821Z" fill="#4ECDC4"/>
<path opacity="0.2" d="M338.159 122.821L305.108 128.837C304.472 128.95 303.883 129.262 303.414 129.733C302.946 130.204 302.62 130.812 302.478 131.48C302.336 132.148 302.384 132.846 302.616 133.485C302.849 134.124 303.255 134.674 303.783 135.067L309.877 139.649L272.513 195.751C272.27 196.116 271.961 196.427 271.605 196.665C271.249 196.903 270.853 197.064 270.438 197.139C270.023 197.214 269.599 197.201 269.189 197.101C268.778 197.002 268.391 196.817 268.048 196.558L213.129 155.319C212.433 154.799 211.572 154.593 210.734 154.746C209.895 154.899 209.148 155.398 208.656 156.135L97.9482 322.346H137.734L216.421 204.196C216.664 203.832 216.972 203.521 217.328 203.283C217.684 203.045 218.081 202.884 218.495 202.809C218.91 202.734 219.335 202.747 219.745 202.847C220.155 202.946 220.542 203.131 220.885 203.39L275.804 244.629C276.148 244.887 276.537 245.071 276.948 245.17C277.359 245.269 277.785 245.281 278.2 245.206C278.616 245.13 279.013 244.968 279.369 244.729C279.726 244.49 280.034 244.179 280.278 243.813L336.395 159.542L342.497 164.123C343.023 164.508 343.644 164.72 344.283 164.733C344.921 164.747 345.549 164.56 346.089 164.197C346.629 163.834 347.056 163.311 347.318 162.692C347.579 162.073 347.664 161.386 347.561 160.716L341.89 125.609C341.737 124.717 341.26 123.925 340.562 123.403C339.864 122.881 339.001 122.672 338.159 122.821Z" fill="black"/>
<path opacity="0.2" d="M135.245 317.46H107.241C107.202 317.458 107.165 317.446 107.132 317.424C107.099 317.402 107.073 317.371 107.055 317.335C107.035 317.299 107.024 317.259 107.024 317.218C107.024 317.177 107.035 317.137 107.055 317.101L209.618 163.083C209.875 162.691 210.202 162.356 210.582 162.099C210.961 161.842 211.384 161.666 211.827 161.583C212.27 161.5 212.724 161.51 213.163 161.614C213.603 161.717 214.018 161.912 214.386 162.186L269.297 203.425C269.62 203.674 269.986 203.851 270.374 203.948C270.762 204.044 271.165 204.057 271.558 203.986C271.951 203.915 272.327 203.762 272.663 203.535C272.999 203.307 273.29 203.011 273.517 202.663L316.316 138.402L309.564 133.301C309.528 133.277 309.5 133.242 309.485 133.2C309.47 133.158 309.468 133.111 309.48 133.068C309.489 133.025 309.51 132.986 309.54 132.956C309.57 132.926 309.608 132.905 309.649 132.898L337.501 127.833C337.527 127.827 337.555 127.828 337.581 127.834C337.607 127.841 337.632 127.852 337.654 127.869C337.677 127.886 337.695 127.907 337.709 127.932C337.724 127.956 337.733 127.983 337.737 128.012L342.506 157.596C342.512 157.64 342.507 157.686 342.49 157.727C342.474 157.768 342.447 157.803 342.413 157.829C342.378 157.853 342.337 157.866 342.295 157.866C342.253 157.866 342.212 157.853 342.176 157.829L335.424 152.728L279.425 236.82C279.168 237.211 278.841 237.544 278.462 237.801C278.084 238.057 277.662 238.232 277.22 238.315C276.778 238.399 276.325 238.389 275.886 238.286C275.448 238.183 275.033 237.99 274.665 237.716L219.746 196.477C219.424 196.236 219.061 196.064 218.677 195.972C218.294 195.879 217.896 195.868 217.508 195.939C217.12 196.01 216.749 196.161 216.416 196.384C216.083 196.607 215.795 196.898 215.568 197.24L135.422 317.361C135.402 317.392 135.375 317.416 135.344 317.433C135.314 317.451 135.279 317.46 135.245 317.46ZM107.646 317.012H135.135L215.095 196.944C215.616 196.154 216.411 195.615 217.305 195.447C218.199 195.279 219.119 195.495 219.864 196.047L274.783 237.286C275.104 237.528 275.467 237.699 275.851 237.792C276.235 237.884 276.633 237.895 277.021 237.825C277.409 237.754 277.78 237.603 278.113 237.379C278.445 237.156 278.734 236.866 278.961 236.524L335.078 152.253C335.093 152.228 335.112 152.207 335.136 152.191C335.159 152.176 335.186 152.166 335.213 152.164C335.238 152.151 335.266 152.144 335.294 152.144C335.321 152.144 335.349 152.151 335.374 152.164L341.915 157.076L337.264 128.379L310.164 133.31L316.705 138.223C316.748 138.258 316.778 138.309 316.789 138.366C316.81 138.421 316.81 138.482 316.789 138.537L273.872 202.986C273.614 203.376 273.286 203.708 272.906 203.962C272.526 204.216 272.103 204.387 271.66 204.465C270.774 204.622 269.865 204.403 269.128 203.856L214.218 162.617C213.895 162.368 213.529 162.191 213.14 162.094C212.752 161.998 212.35 161.985 211.957 162.056C211.564 162.127 211.188 162.28 210.852 162.508C210.515 162.735 210.225 163.031 209.998 163.379L107.646 317.012Z" fill="#F9F9F9"/>
<path d="M293.752 266.073H290.283V320.894H293.752V266.073Z" fill="#263238"/>
<path d="M324.104 236.201H320.635V320.893H324.104V236.201Z" fill="#263238"/>
<path d="M355.009 256.516H351.54V320.894H355.009V256.516Z" fill="#263238"/>
<path d="M290.29 266.073H265.966V320.894H290.29V266.073Z" fill="#4ECDC4"/>
<path opacity="0.2" d="M265.966 266.073V298.58L278.119 266.073H265.966Z" fill="#F9F9F9"/>
<path d="M320.631 236.201H296.307V320.893H320.631V236.201Z" fill="#4ECDC4"/>
<path opacity="0.2" d="M296.307 236.201V268.708L308.469 236.201H296.307Z" fill="#F9F9F9"/>
<path d="M351.547 256.516H327.223V320.894H351.547V256.516Z" fill="#4ECDC4"/>
<path opacity="0.2" d="M327.223 256.516V285.446L339.385 256.516H327.223Z" fill="#F9F9F9"/>
<path d="M209.386 316.41L202.862 315.11L203.967 298.713L210.492 300.022L209.386 316.41Z" fill="#7F3E3B"/>
<path d="M253.292 316.222H246.649L245.004 299.896H251.638L253.292 316.222Z" fill="#7F3E3B"/>
<path d="M246.107 315.406H254.193C254.325 315.407 254.453 315.455 254.555 315.543C254.658 315.631 254.73 315.753 254.758 315.89L256.075 322.166C256.105 322.318 256.103 322.476 256.068 322.628C256.033 322.779 255.967 322.92 255.874 323.041C255.78 323.161 255.663 323.258 255.53 323.324C255.397 323.39 255.251 323.423 255.104 323.421C252.496 323.376 250.597 323.206 247.323 323.206C245.306 323.206 239.22 323.43 236.435 323.43C233.65 323.43 233.287 320.507 234.426 320.238C239.541 319.055 243.39 317.414 245.027 315.854C245.322 315.567 245.707 315.407 246.107 315.406Z" fill="#263238"/>
<path d="M202.993 313.585L210.142 314.894C210.271 314.918 210.389 314.988 210.476 315.092C210.564 315.196 210.615 315.328 210.623 315.468L210.91 321.878C210.917 322.033 210.892 322.187 210.835 322.33C210.778 322.473 210.692 322.6 210.582 322.703C210.473 322.805 210.343 322.88 210.202 322.922C210.062 322.964 209.914 322.972 209.77 322.945C207.238 322.425 203.5 321.582 200.267 320.99C196.477 320.3 194.629 319.798 190.19 318.982C187.506 318.489 188.088 315.396 189.261 315.315C194.57 315.064 196.444 315.925 201.33 313.836C201.852 313.59 202.428 313.503 202.993 313.585Z" fill="#263238"/>
<path d="M225.722 100.488C225.494 101.205 225.317 101.725 225.106 102.281C224.895 102.837 224.684 103.429 224.464 103.993C224.025 105.132 223.561 106.244 223.071 107.355C222.094 109.586 220.998 111.756 219.788 113.855C217.314 118.344 214.091 122.318 210.276 125.581C209.214 126.441 208.085 127.203 206.9 127.858C206.597 128.038 206.284 128.19 205.964 128.342C205.643 128.495 205.356 128.638 204.976 128.791C204.228 129.083 203.457 129.305 202.672 129.454C201.397 129.682 200.107 129.799 198.815 129.804C197.6 129.804 196.435 129.804 195.287 129.687C190.81 129.308 186.379 128.455 182.062 127.141L182.728 121.897C186.948 121.726 191.227 121.583 195.245 121.206C196.249 121.108 197.237 120.982 198.173 120.83C199.031 120.706 199.878 120.508 200.705 120.238C200.976 120.156 201.236 120.042 201.482 119.897C201.76 119.718 202.14 119.548 202.453 119.315C203.14 118.854 203.792 118.335 204.402 117.764C205.749 116.495 206.962 115.077 208.023 113.532C209.179 111.894 210.233 110.178 211.18 108.395C212.167 106.602 213.053 104.693 213.923 102.774C214.345 101.815 214.767 100.838 215.138 99.8606L215.703 98.3993L216.218 97.0187L225.722 100.488Z" fill="#7F3E3B"/>
<path d="M222.526 92.2229C234.638 92.2229 221.328 120.014 221.328 120.014L205.874 113.371C205.874 113.371 210.094 103.707 212.871 98.1757C213.77 96.3017 215.16 94.7432 216.872 93.6873C218.585 92.6314 220.548 92.1229 222.526 92.2229Z" fill="#4ECDC4"/>
<g opacity="0.3">
<path opacity="0.3" d="M222.528 92.2234C234.639 92.2234 221.329 120.015 221.329 120.015L205.876 113.372C205.876 113.372 210.096 103.708 212.872 98.1762C213.772 96.3022 215.161 94.7437 216.874 93.6878C218.587 92.6319 220.55 92.1234 222.528 92.2234Z" fill="#F9F9F9"/>
</g>
<path opacity="0.2" d="M219.561 101.204C215.13 104.513 212.049 110.654 211.171 115.638L219.999 119.439C221.603 116.893 223.164 113.89 224.886 111.254C225.359 109.883 225.823 108.439 226.228 106.978L219.561 101.204Z" fill="black"/>
<path d="M186.533 122.568L181.224 119.386L177.156 127.454C179.506 127.876 181.91 127.812 184.237 127.266L186.533 122.568Z" fill="#7F3E3B"/>
<path d="M176.136 119.386L173.182 126.504L177.115 127.481L181.183 119.386H176.136Z" fill="#7F3E3B"/>
<path opacity="0.2" d="M203.969 298.722L203.403 307.167L209.927 308.467L210.493 300.022L203.969 298.722Z" fill="black"/>
<path opacity="0.2" d="M251.635 299.905H244.993L245.854 308.323H252.487L251.635 299.905Z" fill="black"/>
<path d="M255.552 95.2969C253.606 102.906 252.196 110.658 251.332 118.489C250.699 123.949 250.328 129.158 250.092 133.891C249.535 144.972 249.771 153.417 249.459 156.304C244.268 155.927 224.713 154.511 214.011 153.686C209.191 113.585 218.399 92.9301 218.399 92.9301C221.189 92.3733 224.007 91.999 226.839 91.8095C227.439 91.8095 228.055 91.7468 228.671 91.7378C233.706 91.8005 238.733 92.1716 243.728 92.8495C244.673 92.966 245.635 93.1184 246.564 93.2798C251.383 94.0687 255.552 95.2969 255.552 95.2969Z" fill="#4ECDC4"/>
<g opacity="0.3">
<path opacity="0.3" d="M255.552 95.2969C253.606 102.906 252.196 110.658 251.332 118.489C250.699 123.949 250.328 129.158 250.092 133.891C249.535 144.972 249.771 153.417 249.459 156.304C244.268 155.927 224.713 154.511 214.011 153.686C209.191 113.585 218.399 92.9301 218.399 92.9301C221.189 92.3733 224.007 91.999 226.839 91.8095C227.439 91.8095 228.055 91.7468 228.671 91.7378C233.706 91.8005 238.733 92.1716 243.728 92.8495C244.673 92.966 245.635 93.1184 246.564 93.2798C251.383 94.0687 255.552 95.2969 255.552 95.2969Z" fill="#F9F9F9"/>
</g>
<path opacity="0.2" d="M246.614 105.446C246.547 111.216 248.069 116.881 250.995 121.744C251.096 120.668 251.214 119.583 251.341 118.49C251.814 114.384 252.421 110.134 253.223 105.84L246.614 105.446Z" fill="black"/>
<path d="M243.487 74.7041C242.204 79.7873 240.634 89.1377 243.799 92.8223C242.199 94.3647 240.305 95.5238 238.246 96.2214C236.187 96.9189 234.011 97.1386 231.865 96.8656C227.704 96.4621 227.704 93.3513 228.742 91.7107C234.237 90.7425 234.372 86.4751 233.697 82.405L243.487 74.7041Z" fill="#7F3E3B"/>
<path d="M228.82 98.5433C228.918 99.3346 229.094 100.113 229.344 100.865C229.415 101.105 229.557 101.314 229.748 101.462C229.94 101.611 230.17 101.69 230.407 101.69C231.1 101.679 231.793 101.742 232.475 101.878C232.618 101.914 232.767 101.918 232.913 101.89C233.058 101.863 233.196 101.804 233.319 101.717C234.163 101.152 235.243 100.318 234.965 99.2785C234.635 98.0592 232.661 96.9565 232.661 96.9565C232.661 96.9565 229.268 97.8441 228.82 98.5433Z" fill="#263238"/>
<path d="M230.602 100.864C229.243 104.019 226.103 124.227 225.715 127.284C225.327 130.341 226.652 135.271 228.492 139.189C230.607 136.108 231.811 132.429 231.952 128.619C232.197 124.442 232.433 101.366 232.433 101.366L230.602 100.864Z" fill="#263238"/>
<path d="M232.637 96.9565C233.893 98.0696 234.931 99.4343 235.692 100.973C237.827 100.794 247.255 96.4007 245.913 93.0119C244.74 92.6623 243.71 91.9451 243.381 92.3126C242.934 93.0388 238.933 95.6028 232.637 96.9565Z" fill="#F9F9F9"/>
<path d="M232.634 96.9556C232.634 96.9556 229.014 98.2555 228.17 100.443C225.984 99.412 224.794 94.7592 226.726 91.7021C227.933 91.5945 229.09 90.958 229.309 91.3794C229.647 92.1772 228.727 94.3199 232.634 96.9556Z" fill="#F9F9F9"/>
<path opacity="0.2" d="M239.499 77.8512L233.701 82.3965C233.876 83.3447 233.969 84.308 233.979 85.2742C236.064 85.1128 239.043 82.9164 239.431 80.6393C239.615 79.7223 239.638 78.7771 239.499 77.8512Z" fill="black"/>
<path d="M229.43 58.3791C226.898 59.437 225.961 69.8454 231.118 68.8234C236.275 67.8013 234.528 56.2544 229.43 58.3791Z" fill="#263238"/>
<path d="M246.149 68.7873C244.081 75.4304 243.195 79.4288 239.127 82.0017C232.999 85.8656 225.918 80.5763 226.07 73.4132C226.205 66.9674 229.556 57.1776 236.451 56.2363C237.969 56.0181 239.515 56.216 240.941 56.8113C242.367 57.4066 243.625 58.3795 244.597 59.6374C245.569 60.8953 246.222 62.3964 246.494 63.998C246.765 65.5995 246.646 67.2482 246.149 68.7873Z" fill="#7F3E3B"/>
<path d="M243.799 73.3599C241.174 73.4136 239.022 64.9686 244.314 62.6019C240.144 62.0909 227.341 62.835 225.045 56.7567C222.75 50.6784 231.654 49.7371 234.684 52.0321C233.722 48.6882 237.638 43.7575 244.677 48.2399C251.716 52.7224 251.631 58.2538 250.973 59.8944C254.113 60.7909 254.729 68.2139 251.26 69.2091C253.294 72.2034 251.538 78.4968 246.052 77.152C245.867 80.8187 242.018 79.214 242.254 76.399C242.491 73.584 243.799 73.3599 243.799 73.3599Z" fill="#263238"/>
<path d="M232.105 74.9828C232.847 75.2133 233.63 75.2522 234.389 75.0963C235.148 74.9403 235.861 74.594 236.469 74.0863C236.5 74.0512 236.518 74.0047 236.518 73.9563C236.518 73.9078 236.5 73.8613 236.469 73.8263C236.437 73.7934 236.395 73.775 236.351 73.775C236.306 73.775 236.264 73.7934 236.233 73.8263C235.671 74.304 235.012 74.6342 234.308 74.79C233.604 74.9458 232.875 74.9228 232.181 74.7228C232.16 74.7161 232.138 74.714 232.116 74.7167C232.094 74.7195 232.073 74.727 232.054 74.7388C232.035 74.7505 232.019 74.7663 232.006 74.7852C231.993 74.804 231.984 74.8255 231.979 74.8483C231.985 74.8815 232 74.9121 232.023 74.936C232.045 74.96 232.074 74.9763 232.105 74.9828Z" fill="#263238"/>
<path d="M247.458 75.8338C246.245 77.036 244.635 77.6804 242.977 77.6268C240.782 77.5281 240.36 75.269 241.533 73.4491C242.597 71.8085 245.011 69.8631 246.935 70.8582C247.353 71.0812 247.713 71.4118 247.981 71.82C248.248 72.2281 248.416 72.7008 248.468 73.1951C248.52 73.6895 248.455 74.1898 248.278 74.6506C248.102 75.1114 247.82 75.5181 247.458 75.8338Z" fill="#7F3E3B"/>
<path d="M201.197 304.433L212.169 307.185C212.169 307.185 216.051 261.778 219.385 236.828C220.271 230.212 221.638 220.906 223.723 210.991C226.348 198.503 229.631 184.993 232.349 174.414C235.193 163.27 237.362 155.39 237.362 155.39L214.085 153.66C214.085 153.66 201.484 212.022 200.15 233.448C198.724 255.807 201.197 304.433 201.197 304.433Z" fill="#263238"/>
<path opacity="0.2" d="M223.665 210.991C226.29 198.503 229.573 184.992 232.291 174.414L229.868 168.882C224.121 176.171 222.568 198.736 223.665 210.991Z" fill="black"/>
<path d="M226.612 154.592C226.612 154.592 229.144 214.944 231.93 235.384C234.993 257.797 242.783 306.692 242.783 306.692H254.945C254.945 306.692 251.569 260.19 249.282 238.271C246.674 213.304 249.459 156.286 249.459 156.286L226.612 154.592Z" fill="#263238"/>
<path d="M241.33 306.97H255.645L256.278 302.425L240.478 302.129L241.33 306.97Z" fill="#4ECDC4"/>
<path d="M200.498 305.212L212.964 307.704L214.373 303.087L200.16 300.227L200.498 305.212Z" fill="#4ECDC4"/>
<path d="M236.532 68.2584C236.389 68.8052 236.009 69.1549 235.688 69.0831C235.368 69.0114 235.182 68.4646 235.317 67.9177C235.452 67.3708 235.84 67.0212 236.161 67.0929C236.482 67.1646 236.667 67.7115 236.532 68.2584Z" fill="#263238"/>
<path d="M230.676 66.627C230.541 67.1739 230.153 67.5235 229.832 67.4428C229.511 67.3621 229.334 66.8332 229.469 66.2774C229.604 65.7216 229.993 65.3809 230.313 65.4526C230.634 65.5243 230.811 66.0712 230.676 66.627Z" fill="#263238"/>
<path d="M231.976 67.1381C230.94 68.6455 229.716 69.9966 228.338 71.1544C229.022 72.3109 230.785 72.2122 230.785 72.2122L231.976 67.1381Z" fill="#630F0F"/>
<path d="M238.348 66.4752C238.289 66.4714 238.233 66.45 238.185 66.4135C238.137 66.377 238.1 66.3269 238.078 66.269C237.935 65.8774 237.708 65.5266 237.415 65.2448C237.122 64.963 236.771 64.7581 236.39 64.6464C236.349 64.6381 236.311 64.6215 236.276 64.5974C236.242 64.5734 236.212 64.5424 236.189 64.5062C236.166 64.4699 236.15 64.4292 236.142 64.3864C236.133 64.3435 236.133 64.2994 236.141 64.2564C236.149 64.2134 236.164 64.1725 236.187 64.1359C236.21 64.0994 236.239 64.068 236.273 64.0434C236.307 64.0188 236.345 64.0017 236.386 63.9928C236.426 63.984 236.468 63.9837 236.508 63.9919C236.992 64.123 237.439 64.3754 237.812 64.7279C238.185 65.0805 238.473 65.5229 238.652 66.018C238.668 66.0586 238.677 66.1022 238.678 66.1464C238.678 66.1906 238.67 66.2345 238.654 66.2754C238.639 66.3163 238.615 66.3535 238.586 66.3847C238.557 66.416 238.522 66.4406 238.483 66.4573C238.44 66.4744 238.394 66.4805 238.348 66.4752Z" fill="#263238"/>
<path d="M228.204 63.5079C228.139 63.4998 228.077 63.4718 228.026 63.4272C227.997 63.3963 227.973 63.3593 227.957 63.3185C227.94 63.2777 227.932 63.2339 227.932 63.1896C227.932 63.1453 227.94 63.1015 227.957 63.0607C227.973 63.0199 227.997 62.9829 228.026 62.952C228.342 62.5414 228.746 62.2172 229.204 62.0066C229.663 61.7961 230.162 61.7052 230.66 61.7418C230.741 61.7571 230.814 61.8044 230.864 61.8741C230.914 61.9438 230.937 62.031 230.93 62.1183C230.917 62.2056 230.873 62.2843 230.807 62.3378C230.741 62.3913 230.658 62.4155 230.575 62.4052C230.181 62.3862 229.788 62.4655 229.427 62.6367C229.067 62.8079 228.749 63.0664 228.499 63.3913C228.463 63.4361 228.418 63.4704 228.366 63.4908C228.314 63.5112 228.258 63.5171 228.204 63.5079Z" fill="#263238"/>
<path d="M243.918 316.644C243.465 316.681 243.013 316.554 242.635 316.285C242.516 316.176 242.424 316.037 242.368 315.88C242.312 315.724 242.293 315.555 242.314 315.389C242.312 315.292 242.336 315.196 242.384 315.113C242.432 315.03 242.502 314.964 242.585 314.922C243.319 314.519 245.454 315.918 245.699 316.079C245.725 316.095 245.745 316.119 245.757 316.148C245.769 316.177 245.772 316.209 245.766 316.24C245.764 316.274 245.751 316.307 245.729 316.333C245.708 316.358 245.68 316.376 245.648 316.384C245.082 316.539 244.502 316.626 243.918 316.644ZM242.931 315.182C242.86 315.176 242.79 315.192 242.728 315.227C242.686 315.227 242.635 315.29 242.627 315.425C242.612 315.535 242.624 315.648 242.661 315.753C242.697 315.858 242.758 315.952 242.838 316.025C243.579 316.384 244.421 316.429 245.193 316.151C244.502 315.675 243.731 315.346 242.922 315.182H242.931Z" fill="#4ECDC4"/>
<path d="M245.608 316.392H245.532C244.848 315.998 243.515 314.447 243.658 313.703C243.681 313.58 243.743 313.47 243.834 313.39C243.925 313.31 244.038 313.265 244.156 313.264C244.277 313.246 244.399 313.256 244.516 313.293C244.632 313.33 244.74 313.393 244.831 313.479C245.599 314.142 245.76 316.168 245.768 316.267C245.769 316.297 245.762 316.327 245.749 316.353C245.735 316.38 245.716 316.403 245.692 316.419C245.662 316.42 245.633 316.41 245.608 316.392ZM244.266 313.532H244.198C243.996 313.532 243.979 313.658 243.97 313.703C243.886 314.16 244.73 315.334 245.414 315.881C245.369 315.078 245.095 314.309 244.629 313.676C244.528 313.583 244.399 313.532 244.266 313.532Z" fill="#4ECDC4"/>
<path d="M202.205 314.428C201.116 314.428 199.2 314.384 198.592 313.586C198.496 313.463 198.431 313.316 198.403 313.16C198.375 313.003 198.385 312.841 198.432 312.689C198.45 312.601 198.489 312.52 198.545 312.452C198.601 312.385 198.673 312.334 198.753 312.304C199.597 311.99 202.027 313.873 202.297 314.097C202.323 314.116 202.343 314.145 202.352 314.177C202.361 314.21 202.36 314.244 202.348 314.276C202.344 314.315 202.328 314.352 202.302 314.379C202.276 314.407 202.241 314.425 202.205 314.428ZM198.879 312.635C198.846 312.647 198.816 312.668 198.794 312.697C198.772 312.725 198.757 312.76 198.753 312.797C198.725 312.891 198.72 312.991 198.738 313.088C198.755 313.185 198.795 313.276 198.854 313.353C199.192 313.81 200.255 314.07 201.74 314.079C200.736 313.38 199.386 312.528 198.879 312.644V312.635Z" fill="#4ECDC4"/>
<path d="M202.205 314.428C202.167 314.444 202.125 314.444 202.087 314.428C201.361 313.908 200.044 312.115 200.289 311.353C200.348 311.174 200.508 310.967 200.939 310.994C201.1 311.002 201.259 311.045 201.404 311.12C201.549 311.196 201.678 311.303 201.783 311.434C202.5 312.33 202.374 314.222 202.365 314.302C202.363 314.331 202.355 314.358 202.34 314.382C202.325 314.405 202.305 314.424 202.281 314.437L202.205 314.428ZM200.736 311.317C200.618 311.317 200.593 311.407 200.584 311.434C200.441 311.891 201.31 313.272 202.028 313.926C202.087 313.123 201.906 312.32 201.513 311.631C201.44 311.537 201.35 311.461 201.248 311.405C201.147 311.35 201.036 311.317 200.922 311.308C200.86 311.296 200.797 311.299 200.736 311.317Z" fill="#4ECDC4"/>
<path d="M225.444 126.782L222.752 124.738L178.611 190.371L181.303 192.415C189.507 198.319 199.558 200.583 209.312 198.724C219.066 196.866 227.749 191.031 233.509 182.466C239.27 173.902 241.65 163.285 240.144 152.881C238.637 142.478 233.362 133.112 225.444 126.782Z" fill="#4ECDC4"/>
<path opacity="0.1" d="M225.444 126.782L222.752 124.738L178.611 190.371L181.303 192.415C189.507 198.319 199.558 200.583 209.312 198.724C219.066 196.866 227.749 191.031 233.509 182.466C239.27 173.902 241.65 163.285 240.144 152.881C238.637 142.478 233.362 133.112 225.444 126.782Z" fill="black"/>
<path d="M160.069 162.686C159.441 157.14 159.828 151.518 161.209 146.128L162.053 146.361C160.696 151.642 160.318 157.153 160.939 162.588L160.069 162.686Z" fill="#4ECDC4"/>
<path d="M162.626 173.509C161.873 171.468 161.267 169.37 160.812 167.233L161.656 167.036C162.105 169.124 162.701 171.174 163.436 173.168L162.626 173.509Z" fill="#4ECDC4"/>
<path d="M208.356 197.037C228.891 192.544 242.109 171.219 237.879 149.406C233.649 127.594 213.572 113.554 193.037 118.047C172.502 122.54 159.284 143.865 163.514 165.678C167.744 187.491 187.821 201.531 208.356 197.037Z" fill="#4ECDC4"/>
<path d="M191.721 167.752L197.68 158.904C195.609 156.142 194.504 153.501 194.363 150.979C194.256 148.401 194.999 145.864 196.464 143.807C197.857 141.613 200.001 140.085 202.44 139.548C204.96 139.039 207.569 139.554 209.749 140.992L211.184 138.858L214.07 141.045L212.627 143.179C214.393 144.754 215.621 146.903 216.121 149.293C216.499 151.641 216.143 154.056 215.108 156.169L209.605 153.049C210.007 152.245 210.207 151.344 210.186 150.433C210.165 149.523 209.925 148.633 209.487 147.85L203.934 156.116C206.5 159.45 207.87 162.283 208.044 164.614C208.171 167.107 207.446 169.565 206.002 171.535C204.476 173.949 202.149 175.662 199.486 176.332C196.679 176.946 193.757 176.455 191.265 174.951L189.831 177.085L186.944 174.897L188.311 172.862C186.343 171.067 185.017 168.608 184.556 165.896C184.203 162.944 184.76 159.95 186.142 157.362L191.738 160.715C191.21 161.908 190.947 163.215 190.97 164.534C190.98 165.654 191.237 166.756 191.721 167.752ZM206.643 145.564C205.722 145.245 204.729 145.245 203.807 145.564C202.917 145.865 202.144 146.466 201.604 147.276C201.106 148.026 200.84 148.922 200.845 149.84C200.855 150.911 201.147 151.958 201.689 152.861L206.643 145.564ZM194.405 170.244C195.455 170.784 196.65 170.914 197.781 170.612C198.916 170.316 199.91 169.589 200.575 168.568C201.185 167.692 201.484 166.616 201.419 165.529C201.257 164.216 200.728 162.985 199.899 161.997L194.405 170.244Z" fill="#F9F9F9"/>
<path opacity="0.1" d="M231.441 154.197C229.674 146.049 225.047 138.923 218.505 134.272C211.963 129.621 203.997 127.796 196.232 129.168C188.466 130.54 181.486 135.006 176.713 141.655C171.94 148.305 169.735 156.638 170.546 164.955C169.598 160.586 169.503 156.056 170.266 151.646C171.029 147.236 172.634 143.039 174.981 139.313C177.329 135.586 180.37 132.41 183.918 129.979C187.465 127.549 191.443 125.915 195.607 125.18C199.771 124.444 204.033 124.622 208.13 125.702C212.227 126.782 216.073 128.742 219.43 131.46C222.787 134.179 225.584 137.598 227.65 141.509C229.715 145.419 231.005 149.737 231.441 154.197Z" fill="black"/>
<path d="M256.402 99.1514C257.246 100.29 257.946 101.312 258.655 102.424C259.364 103.535 260.056 104.602 260.731 105.714C262.073 107.937 263.348 110.196 264.529 112.554C265.711 114.912 266.808 117.323 267.804 119.816L268.53 121.707L269.188 123.653C269.408 124.289 269.593 124.971 269.787 125.634L270.066 126.638L270.142 126.889L270.268 127.436C270.349 127.808 270.405 128.185 270.437 128.565C270.517 129.829 270.36 131.097 269.973 132.295C269.681 133.196 269.299 134.062 268.834 134.877C268.063 136.211 267.17 137.46 266.167 138.606C264.386 140.616 262.453 142.466 260.385 144.138C256.455 147.326 252.269 150.142 247.877 152.556L245.143 148.127C248.679 144.927 252.215 141.556 255.414 138.14C256.968 136.505 258.412 134.755 259.735 132.905C260.297 132.131 260.784 131.299 261.187 130.421C261.312 130.134 261.408 129.833 261.474 129.525C261.474 129.328 261.474 129.292 261.474 129.525C261.461 129.59 261.461 129.657 261.474 129.722C261.472 129.749 261.472 129.776 261.474 129.803L261.398 129.605L261.103 128.817C260.9 128.279 260.723 127.75 260.486 127.221L259.811 125.634L259.094 124.047C258.09 121.94 257.018 119.843 255.853 117.772C254.688 115.701 253.481 113.639 252.224 111.613C251.608 110.591 250.966 109.578 250.325 108.583L248.4 105.669L256.402 99.1514Z" fill="#7F3E3B"/>
<path d="M255.55 95.297C261.771 96.6328 267.231 112.788 267.231 112.788L254.251 124.021C254.251 124.021 250.031 115.809 246.587 107.884C242.882 99.2506 248.014 93.6833 255.55 95.297Z" fill="#4ECDC4"/>
<g opacity="0.3">
<path opacity="0.3" d="M255.552 95.2973C261.772 96.6331 267.233 112.788 267.233 112.788L254.252 124.021C254.252 124.021 250.032 115.809 246.589 107.884C242.884 99.2508 248.015 93.6836 255.552 95.2973Z" fill="#F9F9F9"/>
</g>
<path d="M246.679 147.509L239.977 148.289L244.324 156.017C244.324 156.017 249.894 154.009 249.219 150.764L246.679 147.509Z" fill="#7F3E3B"/>
<path d="M235.985 152.368L239.859 158.581L244.324 156.017L239.977 148.289L235.985 152.368Z" fill="#7F3E3B"/>
</svg>
