<svg width="40" height="40" viewBox="0 0 40 40" fill="none" xmlns="http://www.w3.org/2000/svg">
<path d="M30.4885 11.7847C29.5083 12.3651 28.5222 12.6544 27.5044 13.0488C26.2414 11.8957 24.5323 11.9811 22.9502 12.7246C21.3681 13.4681 20.4288 15.0192 20.6042 16.6843L20.6947 17.6785C17.3775 18.0637 14.2828 16.8638 12.1363 14.4479C12.1363 14.4479 8.5244 22.2278 17.2301 25.0109C15.425 26.4253 13.5883 27.4356 11.2639 27.559C14.8162 29.0429 18.5658 29.3231 21.6814 28.1312C25.2552 26.7633 28.0265 23.8215 28.8195 19.7205C29.0539 18.4739 29.1109 17.2028 28.989 15.943C28.9644 15.6956 30.2851 13.0462 30.4884 11.7837L30.4885 11.7847Z" stroke="#359AA0" stroke-width="2.5" stroke-linecap="round" stroke-linejoin="round"/>
<path d="M28.9157 0H11.2335C8.35679 0.00329721 5.59885 1.14752 3.56472 3.18166C1.53058 5.2158 0.386354 7.97373 0.383057 10.8504V28.5326C0.386354 31.4093 1.53058 34.1673 3.56472 36.2014C5.59885 38.2355 8.35679 39.3798 11.2335 39.3831H28.9157C31.7924 39.3798 34.5503 38.2355 36.5845 36.2014C38.6186 34.1673 39.7628 31.4093 39.7661 28.5326V10.8504C39.7628 7.97373 38.6186 5.2158 36.5845 3.18166C34.5503 1.14752 31.7924 0.00329721 28.9157 0ZM37.3549 28.5326C37.3524 30.7701 36.4625 32.9152 34.8804 34.4973C33.2982 36.0794 31.1531 36.9694 28.9157 36.9719H11.2335C8.99604 36.9694 6.85094 36.0794 5.26882 34.4973C3.6867 32.9152 2.79676 30.7701 2.79426 28.5326V10.8504C2.79676 8.61298 3.6867 6.46788 5.26882 4.88576C6.85094 3.30364 8.99604 2.41371 11.2335 2.41121H28.9157C31.1531 2.41371 33.2982 3.30364 34.8804 4.88576C36.4625 6.46788 37.3524 8.61298 37.3549 10.8504V28.5326Z" fill="#359AA0"/>
</svg>
