<svg width="24" height="13" viewBox="0 0 24 13" fill="none" xmlns="http://www.w3.org/2000/svg">
<path d="M11.5631 0.418266C11.945 0.417455 12.315 0.562007 12.609 0.826831L22.4144 9.7087C22.7481 10.0102 22.958 10.4435 22.9978 10.9132C23.0377 11.3829 22.9042 11.8506 22.6268 12.2134C22.3495 12.5761 21.9508 12.8043 21.5187 12.8476C21.0866 12.8909 20.6563 12.7458 20.3226 12.4443L11.5631 4.48616L2.80369 12.1601C2.63653 12.3076 2.44419 12.4178 2.23772 12.4843C2.03126 12.5508 1.81474 12.5723 1.60061 12.5475C1.38648 12.5228 1.17896 12.4523 0.989985 12.34C0.801008 12.2278 0.634298 12.0761 0.499437 11.8936C0.349775 11.711 0.236427 11.4967 0.166494 11.2642C0.0965616 11.0317 0.0715524 10.7861 0.0930311 10.5426C0.11451 10.2991 0.182013 10.0631 0.291315 9.84929C0.400618 9.63549 0.549364 9.44854 0.728232 9.30013L10.5336 0.720249C10.836 0.497287 11.1985 0.390961 11.5631 0.418266Z" fill="#07838A"/>
</svg>
